%TF.GenerationSoftware,KiCad,Pcbnew,7.0.9+dfsg-1*%
%TF.CreationDate,2023-11-29T17:00:19+07:00*%
%TF.ProjectId,wifitools,77696669-746f-46f6-9c73-2e6b69636164,rev?*%
%TF.SameCoordinates,Original*%
%TF.FileFunction,Legend,Top*%
%TF.FilePolarity,Positive*%
%FSLAX46Y46*%
G04 Gerber Fmt 4.6, Leading zero omitted, Abs format (unit mm)*
G04 Created by KiCad (PCBNEW 7.0.9+dfsg-1) date 2023-11-29 17:00:19*
%MOMM*%
%LPD*%
G01*
G04 APERTURE LIST*
%ADD10C,0.150000*%
%ADD11C,0.100000*%
%ADD12C,0.120000*%
G04 APERTURE END LIST*
D10*
G36*
X132020942Y-77421182D02*
G01*
X132013192Y-77361121D01*
X131991690Y-77315986D01*
X131949462Y-77277309D01*
X131894951Y-77254459D01*
X131845938Y-77244774D01*
X131794956Y-77240421D01*
X131744626Y-77239266D01*
X131720523Y-77239221D01*
X131659372Y-77239741D01*
X131597906Y-77243381D01*
X131537756Y-77253261D01*
X131480555Y-77272500D01*
X131427933Y-77304218D01*
X131392453Y-77338073D01*
X131361155Y-77382018D01*
X131334728Y-77437371D01*
X131313859Y-77505446D01*
X130767976Y-79802550D01*
X130747518Y-79887048D01*
X130725725Y-79977756D01*
X130702894Y-80073674D01*
X130691183Y-80123273D01*
X130679323Y-80173799D01*
X130667353Y-80225127D01*
X130655309Y-80277130D01*
X130643228Y-80329685D01*
X130631148Y-80382665D01*
X130619105Y-80435946D01*
X130607136Y-80489402D01*
X130595280Y-80542908D01*
X130583573Y-80596339D01*
X130572051Y-80649570D01*
X130560753Y-80702475D01*
X130549715Y-80754930D01*
X130538974Y-80806808D01*
X130528568Y-80857985D01*
X130518534Y-80908336D01*
X130508908Y-80957735D01*
X130499729Y-81006057D01*
X130482855Y-81098969D01*
X130468211Y-81186071D01*
X130456092Y-81266361D01*
X130446797Y-81338838D01*
X130439469Y-81338838D01*
X130427908Y-81260453D01*
X130414411Y-81177673D01*
X130399160Y-81090997D01*
X130382339Y-81000924D01*
X130364130Y-80907953D01*
X130344716Y-80812583D01*
X130334613Y-80764154D01*
X130324278Y-80715313D01*
X130313732Y-80666121D01*
X130302999Y-80616642D01*
X130292101Y-80566937D01*
X130281062Y-80517070D01*
X130269903Y-80467102D01*
X130258649Y-80417095D01*
X130247321Y-80367113D01*
X130235942Y-80317217D01*
X130224536Y-80267470D01*
X130213125Y-80217935D01*
X130201732Y-80168673D01*
X130190379Y-80119747D01*
X130179090Y-80071220D01*
X130167888Y-80023153D01*
X130145832Y-79928653D01*
X130124396Y-79836744D01*
X129571186Y-77511552D01*
X129557932Y-77463615D01*
X129533381Y-77402804D01*
X129503962Y-77354111D01*
X129470502Y-77316188D01*
X129421032Y-77280053D01*
X129367809Y-77257480D01*
X129312793Y-77245280D01*
X129257946Y-77240260D01*
X129205227Y-77239230D01*
X129192610Y-77239221D01*
X128892191Y-77239221D01*
X128836142Y-77239768D01*
X128779019Y-77243591D01*
X128722497Y-77253969D01*
X128668251Y-77274179D01*
X128617954Y-77307497D01*
X128583831Y-77343061D01*
X128553579Y-77389224D01*
X128527902Y-77447369D01*
X128507508Y-77518879D01*
X128031235Y-79530219D01*
X128015401Y-79597372D01*
X127999521Y-79665240D01*
X127983626Y-79733680D01*
X127967748Y-79802550D01*
X127951920Y-79871706D01*
X127936173Y-79941005D01*
X127920538Y-80010304D01*
X127905049Y-80079460D01*
X127889737Y-80148330D01*
X127874634Y-80216771D01*
X127859772Y-80284639D01*
X127845183Y-80351791D01*
X127830900Y-80418085D01*
X127816953Y-80483377D01*
X127803375Y-80547524D01*
X127790198Y-80610383D01*
X127777454Y-80671811D01*
X127765174Y-80731665D01*
X127753392Y-80789802D01*
X127742139Y-80846078D01*
X127731446Y-80900350D01*
X127721346Y-80952476D01*
X127711871Y-81002312D01*
X127694923Y-81094542D01*
X127680858Y-81175896D01*
X127669931Y-81245229D01*
X127662399Y-81301395D01*
X127659986Y-81324183D01*
X127652658Y-81324183D01*
X127646127Y-81257143D01*
X127637212Y-81184681D01*
X127626136Y-81107442D01*
X127613122Y-81026073D01*
X127598390Y-80941219D01*
X127582162Y-80853527D01*
X127564661Y-80763641D01*
X127546108Y-80672207D01*
X127526724Y-80579872D01*
X127506733Y-80487282D01*
X127486355Y-80395081D01*
X127465813Y-80303916D01*
X127445328Y-80214432D01*
X127425121Y-80127276D01*
X127405416Y-80043093D01*
X127386434Y-79962529D01*
X126806357Y-77505446D01*
X126785511Y-77437371D01*
X126759246Y-77382018D01*
X126728388Y-77338073D01*
X126681530Y-77294948D01*
X126629938Y-77266642D01*
X126575573Y-77250035D01*
X126520397Y-77242008D01*
X126466369Y-77239441D01*
X126427781Y-77239221D01*
X126281235Y-77239221D01*
X126221979Y-77240421D01*
X126165808Y-77246612D01*
X126110112Y-77261967D01*
X126061125Y-77290648D01*
X126025079Y-77336821D01*
X126009749Y-77389153D01*
X126007683Y-77421182D01*
X126015392Y-77469701D01*
X126028444Y-77518879D01*
X127065254Y-81813890D01*
X127078227Y-81861612D01*
X127102194Y-81922150D01*
X127130914Y-81970625D01*
X127163642Y-82008378D01*
X127212232Y-82044351D01*
X127264869Y-82066822D01*
X127319792Y-82078968D01*
X127375241Y-82083965D01*
X127429455Y-82084991D01*
X127442610Y-82085000D01*
X127744250Y-82085000D01*
X127802102Y-82084415D01*
X127859483Y-82080325D01*
X127915231Y-82069222D01*
X127968190Y-82047600D01*
X128017198Y-82011953D01*
X128050665Y-81973905D01*
X128080769Y-81924517D01*
X128107021Y-81862309D01*
X128122141Y-81812984D01*
X128128932Y-81785802D01*
X128667488Y-79515565D01*
X128685648Y-79443256D01*
X128701217Y-79378232D01*
X128720267Y-79297273D01*
X128742165Y-79202861D01*
X128753984Y-79151387D01*
X128766277Y-79097480D01*
X128778966Y-79041452D01*
X128791971Y-78983613D01*
X128805213Y-78924272D01*
X128818613Y-78863742D01*
X128832091Y-78802331D01*
X128845570Y-78740350D01*
X128858968Y-78678110D01*
X128872208Y-78615921D01*
X128885210Y-78554093D01*
X128897895Y-78492937D01*
X128910183Y-78432763D01*
X128921996Y-78373882D01*
X128933255Y-78316604D01*
X128943880Y-78261238D01*
X128953792Y-78208096D01*
X128962912Y-78157489D01*
X128978459Y-78065116D01*
X128989888Y-77986605D01*
X128997215Y-77986605D01*
X129008861Y-78065390D01*
X129022601Y-78149317D01*
X129038241Y-78237802D01*
X129055586Y-78330262D01*
X129074440Y-78426113D01*
X129084373Y-78475129D01*
X129094610Y-78524774D01*
X129105126Y-78574975D01*
X129115899Y-78625659D01*
X129126902Y-78676754D01*
X129138113Y-78728187D01*
X129149506Y-78779884D01*
X129161057Y-78831774D01*
X129172742Y-78883782D01*
X129184536Y-78935836D01*
X129196415Y-78987864D01*
X129208355Y-79039791D01*
X129220330Y-79091547D01*
X129232318Y-79143056D01*
X129244293Y-79194247D01*
X129256232Y-79245047D01*
X129268109Y-79295383D01*
X129279900Y-79345182D01*
X129291582Y-79394370D01*
X129303129Y-79442876D01*
X129314517Y-79490625D01*
X129325722Y-79537547D01*
X129865499Y-81799235D01*
X129879600Y-81849537D01*
X129904459Y-81913347D01*
X129933333Y-81964443D01*
X129965734Y-82004236D01*
X130013573Y-82042154D01*
X130065653Y-82065840D01*
X130120813Y-82078642D01*
X130177894Y-82083909D01*
X130235737Y-82084991D01*
X130250181Y-82085000D01*
X130586015Y-82085000D01*
X130639999Y-82084470D01*
X130695486Y-82080763D01*
X130750772Y-82070703D01*
X130804154Y-82051111D01*
X130853931Y-82018811D01*
X130898398Y-81970625D01*
X130927239Y-81922150D01*
X130951418Y-81861612D01*
X130964592Y-81813890D01*
X132000181Y-77518879D01*
X132013233Y-77469701D01*
X132020941Y-77421265D01*
X132020942Y-77421182D01*
G37*
G36*
X133305659Y-81779696D02*
G01*
X133305659Y-79108900D01*
X133304384Y-79051394D01*
X133299968Y-79000346D01*
X133287659Y-78942025D01*
X133266083Y-78894460D01*
X133233137Y-78857233D01*
X133186717Y-78829932D01*
X133124719Y-78812140D01*
X133066733Y-78804788D01*
X132997913Y-78802376D01*
X132864801Y-78802376D01*
X132800313Y-78804152D01*
X132744574Y-78809886D01*
X132682956Y-78824744D01*
X132634711Y-78849169D01*
X132598596Y-78884606D01*
X132573363Y-78932501D01*
X132557770Y-78994300D01*
X132551651Y-79050642D01*
X132549728Y-79116228D01*
X132549728Y-81772369D01*
X132551475Y-81836514D01*
X132557142Y-81891916D01*
X132571887Y-81953106D01*
X132596229Y-82000958D01*
X132631668Y-82036731D01*
X132679709Y-82061684D01*
X132741853Y-82077078D01*
X132798621Y-82083108D01*
X132864801Y-82085000D01*
X132997913Y-82085000D01*
X133061938Y-82083114D01*
X133117010Y-82077127D01*
X133177518Y-82061908D01*
X133224515Y-82037344D01*
X133259377Y-82002262D01*
X133283477Y-81955487D01*
X133298189Y-81895847D01*
X133303888Y-81841967D01*
X133305659Y-81779696D01*
G37*
G36*
X133361835Y-77848607D02*
G01*
X133361835Y-77680080D01*
X133359883Y-77610747D01*
X133353688Y-77551358D01*
X133342744Y-77501230D01*
X133319888Y-77447621D01*
X133286484Y-77407646D01*
X133241331Y-77379690D01*
X133183226Y-77362134D01*
X133130424Y-77354819D01*
X133069155Y-77351763D01*
X133046762Y-77351573D01*
X132815952Y-77351573D01*
X132753157Y-77353186D01*
X132698446Y-77358552D01*
X132637354Y-77372913D01*
X132588906Y-77397227D01*
X132552114Y-77433369D01*
X132525991Y-77483214D01*
X132512806Y-77530718D01*
X132504650Y-77587776D01*
X132501107Y-77655177D01*
X132500879Y-77680080D01*
X132500879Y-77848607D01*
X132502627Y-77914837D01*
X132508293Y-77972341D01*
X132518512Y-78021602D01*
X132540313Y-78075295D01*
X132572837Y-78116336D01*
X132617587Y-78145872D01*
X132676064Y-78165047D01*
X132729835Y-78173317D01*
X132792807Y-78176886D01*
X132815952Y-78177114D01*
X133046762Y-78177114D01*
X133110967Y-78175180D01*
X133166535Y-78168983D01*
X133228066Y-78153068D01*
X133276344Y-78127121D01*
X133312573Y-78089739D01*
X133337953Y-78039520D01*
X133353688Y-77975062D01*
X133359883Y-77916530D01*
X133361835Y-77848607D01*
G37*
G36*
X137186678Y-77576277D02*
G01*
X137185928Y-77523072D01*
X137182870Y-77474189D01*
X137173105Y-77416077D01*
X137154202Y-77366473D01*
X137123284Y-77325849D01*
X137077476Y-77294678D01*
X137031618Y-77277787D01*
X136974552Y-77266677D01*
X136905064Y-77261549D01*
X136878932Y-77261203D01*
X134575722Y-77261203D01*
X134511234Y-77262951D01*
X134455495Y-77268617D01*
X134393877Y-77283363D01*
X134345633Y-77307705D01*
X134309517Y-77343144D01*
X134284284Y-77391185D01*
X134268691Y-77453329D01*
X134262572Y-77510097D01*
X134260649Y-77576277D01*
X134260649Y-81774811D01*
X134262397Y-81838332D01*
X134268063Y-81893227D01*
X134282809Y-81953900D01*
X134307150Y-82001392D01*
X134342590Y-82036935D01*
X134390630Y-82061759D01*
X134452774Y-82077094D01*
X134509542Y-82083110D01*
X134575722Y-82085000D01*
X134806531Y-82085000D01*
X134870838Y-82083115D01*
X134926082Y-82077135D01*
X134986677Y-82061945D01*
X135033641Y-82037446D01*
X135068390Y-82002479D01*
X135092341Y-81955884D01*
X135106912Y-81896502D01*
X135112536Y-81842876D01*
X135114277Y-81780917D01*
X135114277Y-79974741D01*
X136605380Y-79974741D01*
X136658925Y-79974195D01*
X136712713Y-79970372D01*
X136764469Y-79959994D01*
X136811918Y-79939784D01*
X136852783Y-79906465D01*
X136884790Y-79856761D01*
X136901613Y-79806757D01*
X136911213Y-79744310D01*
X136913126Y-79695083D01*
X136911293Y-79644567D01*
X136902066Y-79580484D01*
X136885820Y-79529170D01*
X136854715Y-79478163D01*
X136814666Y-79443971D01*
X136767689Y-79423232D01*
X136715805Y-79412582D01*
X136661029Y-79408658D01*
X136605380Y-79408098D01*
X135114277Y-79408098D01*
X135114277Y-77869368D01*
X135393936Y-77869368D01*
X136830083Y-77891350D01*
X136892212Y-77891090D01*
X136948700Y-77889273D01*
X136999444Y-77884340D01*
X137057991Y-77870225D01*
X137105901Y-77844110D01*
X137142931Y-77802303D01*
X137168838Y-77741111D01*
X137180822Y-77680275D01*
X137186310Y-77604901D01*
X137186678Y-77576277D01*
G37*
G36*
X138610614Y-81779696D02*
G01*
X138610614Y-79108900D01*
X138609339Y-79051394D01*
X138604922Y-79000346D01*
X138592613Y-78942025D01*
X138571037Y-78894460D01*
X138538091Y-78857233D01*
X138491672Y-78829932D01*
X138429674Y-78812140D01*
X138371688Y-78804788D01*
X138302868Y-78802376D01*
X138169755Y-78802376D01*
X138105268Y-78804152D01*
X138049529Y-78809886D01*
X137987911Y-78824744D01*
X137939666Y-78849169D01*
X137903550Y-78884606D01*
X137878318Y-78932501D01*
X137862724Y-78994300D01*
X137856605Y-79050642D01*
X137854682Y-79116228D01*
X137854682Y-81772369D01*
X137856430Y-81836514D01*
X137862096Y-81891916D01*
X137876842Y-81953106D01*
X137901183Y-82000958D01*
X137936623Y-82036731D01*
X137984664Y-82061684D01*
X138046808Y-82077078D01*
X138103575Y-82083108D01*
X138169755Y-82085000D01*
X138302868Y-82085000D01*
X138366892Y-82083114D01*
X138421965Y-82077127D01*
X138482472Y-82061908D01*
X138529470Y-82037344D01*
X138564332Y-82002262D01*
X138588432Y-81955487D01*
X138603143Y-81895847D01*
X138608843Y-81841967D01*
X138610614Y-81779696D01*
G37*
G36*
X138666790Y-77848607D02*
G01*
X138666790Y-77680080D01*
X138664838Y-77610747D01*
X138658643Y-77551358D01*
X138647699Y-77501230D01*
X138624843Y-77447621D01*
X138591439Y-77407646D01*
X138546285Y-77379690D01*
X138488180Y-77362134D01*
X138435379Y-77354819D01*
X138374109Y-77351763D01*
X138351716Y-77351573D01*
X138120907Y-77351573D01*
X138058112Y-77353186D01*
X138003401Y-77358552D01*
X137942309Y-77372913D01*
X137893860Y-77397227D01*
X137857068Y-77433369D01*
X137830945Y-77483214D01*
X137817760Y-77530718D01*
X137809605Y-77587776D01*
X137806062Y-77655177D01*
X137805834Y-77680080D01*
X137805834Y-77848607D01*
X137807582Y-77914837D01*
X137813248Y-77972341D01*
X137823466Y-78021602D01*
X137845268Y-78075295D01*
X137877792Y-78116336D01*
X137922541Y-78145872D01*
X137981019Y-78165047D01*
X138034790Y-78173317D01*
X138097762Y-78176886D01*
X138120907Y-78177114D01*
X138351716Y-78177114D01*
X138415922Y-78175180D01*
X138471490Y-78168983D01*
X138533020Y-78153068D01*
X138581299Y-78127121D01*
X138617527Y-78089739D01*
X138642908Y-78039520D01*
X138658643Y-77975062D01*
X138664838Y-77916530D01*
X138666790Y-77848607D01*
G37*
G36*
X145479944Y-77597037D02*
G01*
X145479164Y-77543833D01*
X145476024Y-77494950D01*
X145466087Y-77436838D01*
X145446971Y-77387234D01*
X145415826Y-77346610D01*
X145369804Y-77315438D01*
X145323812Y-77298547D01*
X145266649Y-77287438D01*
X145197113Y-77282310D01*
X145170977Y-77281964D01*
X141768674Y-77281964D01*
X141704468Y-77283712D01*
X141648901Y-77289378D01*
X141587370Y-77304124D01*
X141539092Y-77328465D01*
X141502863Y-77363905D01*
X141477482Y-77411945D01*
X141461747Y-77474090D01*
X141455553Y-77530857D01*
X141453601Y-77597037D01*
X141455886Y-77667731D01*
X141462995Y-77727241D01*
X141475308Y-77776491D01*
X141500479Y-77827795D01*
X141536480Y-77864691D01*
X141584213Y-77889369D01*
X141644578Y-77904019D01*
X141698685Y-77909742D01*
X141760786Y-77911980D01*
X141783328Y-77912110D01*
X143043622Y-77891350D01*
X143043622Y-81771147D01*
X143045369Y-81835323D01*
X143051036Y-81890808D01*
X143065781Y-81952168D01*
X143090123Y-82000233D01*
X143125562Y-82036234D01*
X143173603Y-82061401D01*
X143235747Y-82076966D01*
X143292515Y-82083078D01*
X143358695Y-82085000D01*
X143589504Y-82085000D01*
X143653529Y-82083084D01*
X143708601Y-82077014D01*
X143769109Y-82061625D01*
X143816106Y-82036847D01*
X143850968Y-82001537D01*
X143875068Y-81954549D01*
X143889780Y-81894738D01*
X143895479Y-81840776D01*
X143897250Y-81778475D01*
X143897250Y-77891350D01*
X145157543Y-77912110D01*
X145221930Y-77910684D01*
X145277993Y-77905848D01*
X145326167Y-77896769D01*
X145378878Y-77876625D01*
X145419368Y-77845484D01*
X145448666Y-77801369D01*
X145467804Y-77742306D01*
X145476109Y-77687011D01*
X145479712Y-77621364D01*
X145479944Y-77597037D01*
G37*
G36*
X146894902Y-78647334D02*
G01*
X146964809Y-78651327D01*
X147036294Y-78658296D01*
X147108986Y-78668500D01*
X147182516Y-78682196D01*
X147256512Y-78699641D01*
X147330606Y-78721093D01*
X147404425Y-78746810D01*
X147477600Y-78777050D01*
X147549761Y-78812069D01*
X147620538Y-78852126D01*
X147689559Y-78897478D01*
X147756456Y-78948382D01*
X147820857Y-79005097D01*
X147882392Y-79067880D01*
X147940691Y-79136988D01*
X147970637Y-79176665D01*
X147998914Y-79217111D01*
X148050645Y-79300040D01*
X148096262Y-79385229D01*
X148136142Y-79472135D01*
X148170663Y-79560215D01*
X148200201Y-79648925D01*
X148225135Y-79737721D01*
X148245842Y-79826058D01*
X148262698Y-79913394D01*
X148276083Y-79999185D01*
X148286373Y-80082886D01*
X148293946Y-80163953D01*
X148299179Y-80241844D01*
X148302449Y-80316013D01*
X148304135Y-80385918D01*
X148304612Y-80451015D01*
X148304538Y-80478529D01*
X148303764Y-80538338D01*
X148301759Y-80603977D01*
X148298044Y-80674792D01*
X148292142Y-80750127D01*
X148283576Y-80829327D01*
X148271867Y-80911739D01*
X148256539Y-80996707D01*
X148237113Y-81083577D01*
X148213112Y-81171694D01*
X148184059Y-81260402D01*
X148149475Y-81349049D01*
X148108883Y-81436977D01*
X148086185Y-81480468D01*
X148061805Y-81523534D01*
X148035685Y-81566093D01*
X148007765Y-81608064D01*
X147977984Y-81649364D01*
X147946283Y-81689912D01*
X147912603Y-81729626D01*
X147851869Y-81793260D01*
X147788115Y-81850636D01*
X147721786Y-81902052D01*
X147653324Y-81947804D01*
X147583173Y-81988189D01*
X147511777Y-82023505D01*
X147439580Y-82054048D01*
X147367025Y-82080115D01*
X147294556Y-82102003D01*
X147222617Y-82120009D01*
X147151650Y-82134431D01*
X147082101Y-82145564D01*
X147014412Y-82153707D01*
X146949026Y-82159155D01*
X146886389Y-82162206D01*
X146826943Y-82163157D01*
X146734997Y-82160982D01*
X146645614Y-82154571D01*
X146558897Y-82144095D01*
X146474947Y-82129726D01*
X146393867Y-82111637D01*
X146315758Y-82089999D01*
X146240722Y-82064983D01*
X146168861Y-82036762D01*
X146100278Y-82005506D01*
X146035074Y-81971388D01*
X145973351Y-81934580D01*
X145915211Y-81895253D01*
X145860757Y-81853579D01*
X145810089Y-81809730D01*
X145763311Y-81763877D01*
X145720523Y-81716193D01*
X145663439Y-81640590D01*
X145612410Y-81563255D01*
X145567109Y-81484460D01*
X145527209Y-81404478D01*
X145492382Y-81323580D01*
X145462301Y-81242037D01*
X145436638Y-81160123D01*
X145415067Y-81078108D01*
X145397259Y-80996266D01*
X145382888Y-80914866D01*
X145371626Y-80834183D01*
X145363146Y-80754487D01*
X145357120Y-80676050D01*
X145353221Y-80599144D01*
X145351122Y-80524042D01*
X145350495Y-80451015D01*
X145351347Y-80367984D01*
X145351387Y-80366751D01*
X146127187Y-80366751D01*
X146127358Y-80459913D01*
X146127764Y-80509065D01*
X146128554Y-80559641D01*
X146129857Y-80611424D01*
X146131800Y-80664198D01*
X146134512Y-80717746D01*
X146138121Y-80771851D01*
X146142755Y-80826295D01*
X146148542Y-80880863D01*
X146155611Y-80935336D01*
X146164089Y-80989499D01*
X146174104Y-81043134D01*
X146185785Y-81096024D01*
X146199260Y-81147953D01*
X146214657Y-81198703D01*
X146232104Y-81248058D01*
X146251729Y-81295801D01*
X146273660Y-81341715D01*
X146298026Y-81385582D01*
X146324955Y-81427187D01*
X146354574Y-81466312D01*
X146422397Y-81536255D01*
X146460857Y-81566638D01*
X146502520Y-81593675D01*
X146547515Y-81617147D01*
X146595969Y-81636838D01*
X146648011Y-81652530D01*
X146703768Y-81664008D01*
X146763370Y-81671054D01*
X146826943Y-81673450D01*
X146890517Y-81671054D01*
X146950118Y-81664008D01*
X147005876Y-81652529D01*
X147057917Y-81636835D01*
X147106371Y-81617142D01*
X147151366Y-81593667D01*
X147193029Y-81566626D01*
X147231490Y-81536235D01*
X147299313Y-81466275D01*
X147328932Y-81427138D01*
X147355860Y-81385518D01*
X147380226Y-81341633D01*
X147402157Y-81295699D01*
X147421783Y-81247933D01*
X147439230Y-81198551D01*
X147454626Y-81147770D01*
X147468101Y-81095807D01*
X147479782Y-81042878D01*
X147489798Y-80989201D01*
X147498276Y-80934991D01*
X147505344Y-80880466D01*
X147511131Y-80825842D01*
X147515765Y-80771336D01*
X147519374Y-80717164D01*
X147522086Y-80663543D01*
X147524030Y-80610691D01*
X147525332Y-80558823D01*
X147526122Y-80508156D01*
X147526528Y-80458907D01*
X147526698Y-80365778D01*
X147526678Y-80321842D01*
X147526122Y-80226975D01*
X147525332Y-80177434D01*
X147524030Y-80126767D01*
X147522086Y-80075180D01*
X147519374Y-80022884D01*
X147515765Y-79970085D01*
X147511131Y-79916994D01*
X147505344Y-79863817D01*
X147498276Y-79810764D01*
X147489798Y-79758043D01*
X147479782Y-79705861D01*
X147468101Y-79654429D01*
X147454626Y-79603954D01*
X147439230Y-79554644D01*
X147421783Y-79506708D01*
X147402157Y-79460354D01*
X147380226Y-79415791D01*
X147328932Y-79332870D01*
X147266875Y-79259613D01*
X147193029Y-79197687D01*
X147151366Y-79171494D01*
X147106371Y-79148758D01*
X147057917Y-79129690D01*
X147005876Y-79114496D01*
X146950118Y-79103385D01*
X146890517Y-79096565D01*
X146826943Y-79094246D01*
X146763370Y-79096544D01*
X146703768Y-79103304D01*
X146648011Y-79114321D01*
X146595969Y-79129389D01*
X146547515Y-79148306D01*
X146502520Y-79170866D01*
X146422397Y-79226099D01*
X146354574Y-79293453D01*
X146298026Y-79371295D01*
X146273660Y-79413637D01*
X146251729Y-79457987D01*
X146232104Y-79504142D01*
X146214657Y-79551896D01*
X146199260Y-79601045D01*
X146185785Y-79651386D01*
X146174104Y-79702713D01*
X146164089Y-79754823D01*
X146155611Y-79807510D01*
X146148542Y-79860570D01*
X146142755Y-79913800D01*
X146138121Y-79966994D01*
X146134512Y-80019949D01*
X146131800Y-80072459D01*
X146129857Y-80124321D01*
X146128554Y-80175331D01*
X146127358Y-80273973D01*
X146127187Y-80366751D01*
X145351387Y-80366751D01*
X145354047Y-80284336D01*
X145358811Y-80200255D01*
X145365856Y-80115925D01*
X145375398Y-80031531D01*
X145387654Y-79947257D01*
X145402840Y-79863287D01*
X145421173Y-79779805D01*
X145442869Y-79696996D01*
X145468144Y-79615044D01*
X145497216Y-79534133D01*
X145530300Y-79454447D01*
X145567613Y-79376171D01*
X145609371Y-79299489D01*
X145655791Y-79224585D01*
X145707090Y-79151643D01*
X145761526Y-79083578D01*
X145819723Y-79021226D01*
X145881319Y-78964405D01*
X145945952Y-78912934D01*
X146013261Y-78866628D01*
X146082885Y-78825307D01*
X146154463Y-78788787D01*
X146227632Y-78756885D01*
X146302033Y-78729421D01*
X146377303Y-78706210D01*
X146453081Y-78687070D01*
X146529005Y-78671820D01*
X146604715Y-78660277D01*
X146679849Y-78652257D01*
X146754045Y-78647579D01*
X146826943Y-78646060D01*
X146894902Y-78647334D01*
G37*
G36*
X150402229Y-78647334D02*
G01*
X150472137Y-78651327D01*
X150543621Y-78658296D01*
X150616314Y-78668500D01*
X150689843Y-78682196D01*
X150763840Y-78699641D01*
X150837933Y-78721093D01*
X150911752Y-78746810D01*
X150984928Y-78777050D01*
X151057089Y-78812069D01*
X151127865Y-78852126D01*
X151196887Y-78897478D01*
X151263783Y-78948382D01*
X151328184Y-79005097D01*
X151389719Y-79067880D01*
X151448018Y-79136988D01*
X151477965Y-79176665D01*
X151506241Y-79217111D01*
X151557972Y-79300040D01*
X151603589Y-79385229D01*
X151643469Y-79472135D01*
X151677990Y-79560215D01*
X151707528Y-79648925D01*
X151732462Y-79737721D01*
X151753169Y-79826058D01*
X151770026Y-79913394D01*
X151783411Y-79999185D01*
X151793701Y-80082886D01*
X151801273Y-80163953D01*
X151806506Y-80241844D01*
X151809776Y-80316013D01*
X151811462Y-80385918D01*
X151811940Y-80451015D01*
X151811865Y-80478529D01*
X151811091Y-80538338D01*
X151809086Y-80603977D01*
X151805371Y-80674792D01*
X151799469Y-80750127D01*
X151790903Y-80829327D01*
X151779194Y-80911739D01*
X151763866Y-80996707D01*
X151744440Y-81083577D01*
X151720440Y-81171694D01*
X151691386Y-81260402D01*
X151656802Y-81349049D01*
X151616210Y-81436977D01*
X151593512Y-81480468D01*
X151569133Y-81523534D01*
X151543013Y-81566093D01*
X151515092Y-81608064D01*
X151485311Y-81649364D01*
X151453610Y-81689912D01*
X151419930Y-81729626D01*
X151359196Y-81793260D01*
X151295442Y-81850636D01*
X151229113Y-81902052D01*
X151160651Y-81947804D01*
X151090500Y-81988189D01*
X151019105Y-82023505D01*
X150946907Y-82054048D01*
X150874352Y-82080115D01*
X150801883Y-82102003D01*
X150729944Y-82120009D01*
X150658978Y-82134431D01*
X150589428Y-82145564D01*
X150521739Y-82153707D01*
X150456354Y-82159155D01*
X150393716Y-82162206D01*
X150334271Y-82163157D01*
X150242324Y-82160982D01*
X150152942Y-82154571D01*
X150066224Y-82144095D01*
X149982275Y-82129726D01*
X149901194Y-82111637D01*
X149823085Y-82089999D01*
X149748049Y-82064983D01*
X149676189Y-82036762D01*
X149607605Y-82005506D01*
X149542401Y-81971388D01*
X149480678Y-81934580D01*
X149422539Y-81895253D01*
X149368084Y-81853579D01*
X149317416Y-81809730D01*
X149270638Y-81763877D01*
X149227850Y-81716193D01*
X149170766Y-81640590D01*
X149119737Y-81563255D01*
X149074436Y-81484460D01*
X149034536Y-81404478D01*
X148999709Y-81323580D01*
X148969628Y-81242037D01*
X148943965Y-81160123D01*
X148922394Y-81078108D01*
X148904587Y-80996266D01*
X148890216Y-80914866D01*
X148878954Y-80834183D01*
X148870474Y-80754487D01*
X148864448Y-80676050D01*
X148860549Y-80599144D01*
X148858449Y-80524042D01*
X148857822Y-80451015D01*
X148858674Y-80367984D01*
X148858714Y-80366751D01*
X149634515Y-80366751D01*
X149634686Y-80459913D01*
X149635091Y-80509065D01*
X149635881Y-80559641D01*
X149637184Y-80611424D01*
X149639127Y-80664198D01*
X149641839Y-80717746D01*
X149645448Y-80771851D01*
X149650082Y-80826295D01*
X149655870Y-80880863D01*
X149662938Y-80935336D01*
X149671416Y-80989499D01*
X149681431Y-81043134D01*
X149693112Y-81096024D01*
X149706587Y-81147953D01*
X149721984Y-81198703D01*
X149739431Y-81248058D01*
X149759056Y-81295801D01*
X149780988Y-81341715D01*
X149805354Y-81385582D01*
X149832282Y-81427187D01*
X149861901Y-81466312D01*
X149929724Y-81536255D01*
X149968184Y-81566638D01*
X150009848Y-81593675D01*
X150054842Y-81617147D01*
X150103296Y-81636838D01*
X150155338Y-81652530D01*
X150211096Y-81664008D01*
X150270697Y-81671054D01*
X150334271Y-81673450D01*
X150397844Y-81671054D01*
X150457445Y-81664008D01*
X150513203Y-81652529D01*
X150565245Y-81636835D01*
X150613699Y-81617142D01*
X150658693Y-81593667D01*
X150700357Y-81566626D01*
X150738817Y-81536235D01*
X150806640Y-81466275D01*
X150836259Y-81427138D01*
X150863187Y-81385518D01*
X150887553Y-81341633D01*
X150909485Y-81295699D01*
X150929110Y-81247933D01*
X150946557Y-81198551D01*
X150961954Y-81147770D01*
X150975429Y-81095807D01*
X150987110Y-81042878D01*
X150997125Y-80989201D01*
X151005603Y-80934991D01*
X151012671Y-80880466D01*
X151018459Y-80825842D01*
X151023093Y-80771336D01*
X151026702Y-80717164D01*
X151029414Y-80663543D01*
X151031357Y-80610691D01*
X151032660Y-80558823D01*
X151033450Y-80508156D01*
X151033855Y-80458907D01*
X151034025Y-80365778D01*
X151034005Y-80321842D01*
X151033450Y-80226975D01*
X151032660Y-80177434D01*
X151031357Y-80126767D01*
X151029414Y-80075180D01*
X151026702Y-80022884D01*
X151023093Y-79970085D01*
X151018459Y-79916994D01*
X151012671Y-79863817D01*
X151005603Y-79810764D01*
X150997125Y-79758043D01*
X150987110Y-79705861D01*
X150975429Y-79654429D01*
X150961954Y-79603954D01*
X150946557Y-79554644D01*
X150929110Y-79506708D01*
X150909485Y-79460354D01*
X150887553Y-79415791D01*
X150836259Y-79332870D01*
X150774202Y-79259613D01*
X150700357Y-79197687D01*
X150658693Y-79171494D01*
X150613699Y-79148758D01*
X150565245Y-79129690D01*
X150513203Y-79114496D01*
X150457445Y-79103385D01*
X150397844Y-79096565D01*
X150334271Y-79094246D01*
X150270697Y-79096544D01*
X150211096Y-79103304D01*
X150155338Y-79114321D01*
X150103296Y-79129389D01*
X150054842Y-79148306D01*
X150009848Y-79170866D01*
X149929724Y-79226099D01*
X149861901Y-79293453D01*
X149805354Y-79371295D01*
X149780988Y-79413637D01*
X149759056Y-79457987D01*
X149739431Y-79504142D01*
X149721984Y-79551896D01*
X149706587Y-79601045D01*
X149693112Y-79651386D01*
X149681431Y-79702713D01*
X149671416Y-79754823D01*
X149662938Y-79807510D01*
X149655870Y-79860570D01*
X149650082Y-79913800D01*
X149645448Y-79966994D01*
X149641839Y-80019949D01*
X149639127Y-80072459D01*
X149637184Y-80124321D01*
X149635881Y-80175331D01*
X149634686Y-80273973D01*
X149634515Y-80366751D01*
X148858714Y-80366751D01*
X148861374Y-80284336D01*
X148866138Y-80200255D01*
X148873183Y-80115925D01*
X148882725Y-80031531D01*
X148894981Y-79947257D01*
X148910167Y-79863287D01*
X148928500Y-79779805D01*
X148950196Y-79696996D01*
X148975472Y-79615044D01*
X149004543Y-79534133D01*
X149037627Y-79454447D01*
X149074940Y-79376171D01*
X149116698Y-79299489D01*
X149163119Y-79224585D01*
X149214417Y-79151643D01*
X149268854Y-79083578D01*
X149327050Y-79021226D01*
X149388646Y-78964405D01*
X149453279Y-78912934D01*
X149520588Y-78866628D01*
X149590212Y-78825307D01*
X149661790Y-78788787D01*
X149734960Y-78756885D01*
X149809360Y-78729421D01*
X149884630Y-78706210D01*
X149960408Y-78687070D01*
X150036332Y-78671820D01*
X150112042Y-78660277D01*
X150187176Y-78652257D01*
X150261373Y-78647579D01*
X150334271Y-78646060D01*
X150402229Y-78647334D01*
G37*
G36*
X153138178Y-81778475D02*
G01*
X153138178Y-77546967D01*
X153136903Y-77489431D01*
X153132487Y-77438301D01*
X153120178Y-77379809D01*
X153098602Y-77332030D01*
X153065656Y-77294576D01*
X153019236Y-77267061D01*
X152957239Y-77249099D01*
X152899252Y-77241664D01*
X152830432Y-77239221D01*
X152697320Y-77239221D01*
X152632833Y-77240998D01*
X152577093Y-77246740D01*
X152515475Y-77261627D01*
X152467231Y-77286117D01*
X152431115Y-77321669D01*
X152405882Y-77369744D01*
X152390289Y-77431801D01*
X152384170Y-77488397D01*
X152382247Y-77554295D01*
X152382247Y-81771147D01*
X152383995Y-81835323D01*
X152389661Y-81890808D01*
X152404407Y-81952168D01*
X152428748Y-82000233D01*
X152464188Y-82036234D01*
X152512228Y-82061401D01*
X152574372Y-82076966D01*
X152631140Y-82083078D01*
X152697320Y-82085000D01*
X152830432Y-82085000D01*
X152894457Y-82083084D01*
X152949529Y-82077014D01*
X153010037Y-82061625D01*
X153057034Y-82036847D01*
X153091896Y-82001537D01*
X153115996Y-81954549D01*
X153130708Y-81894738D01*
X153136407Y-81840776D01*
X153138178Y-81778475D01*
G37*
G36*
X155920104Y-81088489D02*
G01*
X155919115Y-81038752D01*
X155916143Y-80989408D01*
X155911177Y-80940508D01*
X155904210Y-80892102D01*
X155889986Y-80820528D01*
X155871207Y-80750347D01*
X155847844Y-80681728D01*
X155819867Y-80614839D01*
X155787245Y-80549850D01*
X155749947Y-80486930D01*
X155722470Y-80446216D01*
X155692893Y-80406547D01*
X155661207Y-80367972D01*
X155615422Y-80319258D01*
X155570048Y-80275470D01*
X155524977Y-80236269D01*
X155480105Y-80201315D01*
X155435326Y-80170267D01*
X155390534Y-80142787D01*
X155345624Y-80118534D01*
X155300491Y-80097168D01*
X155255028Y-80078350D01*
X155185987Y-80054155D01*
X155115610Y-80033779D01*
X155067776Y-80021751D01*
X155019084Y-80010572D01*
X154969431Y-79999900D01*
X154918709Y-79989396D01*
X154861630Y-79976425D01*
X154806004Y-79963307D01*
X154752138Y-79949581D01*
X154700340Y-79934785D01*
X154650918Y-79918458D01*
X154604179Y-79900138D01*
X154539775Y-79867911D01*
X154483140Y-79828605D01*
X154435310Y-79780661D01*
X154397327Y-79722522D01*
X154377986Y-79677330D01*
X154363791Y-79626452D01*
X154355048Y-79569428D01*
X154352065Y-79505795D01*
X154354092Y-79447691D01*
X154360089Y-79394619D01*
X154369936Y-79346402D01*
X154391659Y-79282793D01*
X154421360Y-79229111D01*
X154458627Y-79184760D01*
X154503051Y-79149140D01*
X154554221Y-79121655D01*
X154611726Y-79101707D01*
X154675156Y-79088698D01*
X154744100Y-79082030D01*
X154792924Y-79080812D01*
X154873147Y-79083102D01*
X154948593Y-79089683D01*
X155019405Y-79100124D01*
X155085729Y-79113995D01*
X155147709Y-79130864D01*
X155205491Y-79150300D01*
X155259220Y-79171872D01*
X155309039Y-79195149D01*
X155355095Y-79219699D01*
X155397532Y-79245092D01*
X155454719Y-79283818D01*
X155504578Y-79322015D01*
X155547599Y-79358228D01*
X155584271Y-79391001D01*
X155625029Y-79420310D01*
X155661207Y-79427637D01*
X155709030Y-79411178D01*
X155732071Y-79363834D01*
X155744795Y-79309228D01*
X155753862Y-79260600D01*
X155758904Y-79232243D01*
X155772719Y-79176945D01*
X155782836Y-79126904D01*
X155792618Y-79073610D01*
X155800834Y-79024273D01*
X155807365Y-78975582D01*
X155807753Y-78968461D01*
X155798415Y-78920333D01*
X155757427Y-78886293D01*
X155707825Y-78859100D01*
X155661207Y-78835348D01*
X155599780Y-78805000D01*
X155537259Y-78776613D01*
X155472869Y-78750412D01*
X155405840Y-78726620D01*
X155335397Y-78705460D01*
X155286157Y-78692926D01*
X155234828Y-78681728D01*
X155181180Y-78671931D01*
X155124985Y-78663602D01*
X155066014Y-78656807D01*
X155004038Y-78651612D01*
X154938827Y-78648084D01*
X154870152Y-78646288D01*
X154834445Y-78646060D01*
X154754244Y-78656618D01*
X154669338Y-78669328D01*
X154581090Y-78685282D01*
X154490864Y-78705575D01*
X154400022Y-78731299D01*
X154309929Y-78763547D01*
X154221946Y-78803412D01*
X154137437Y-78851987D01*
X154096911Y-78879883D01*
X154057765Y-78910366D01*
X154020169Y-78943573D01*
X153984294Y-78979640D01*
X153950309Y-79018705D01*
X153918386Y-79060904D01*
X153888694Y-79106373D01*
X153861404Y-79155249D01*
X153836687Y-79207669D01*
X153814713Y-79263770D01*
X153795651Y-79323688D01*
X153779674Y-79387559D01*
X153766950Y-79455521D01*
X153757651Y-79527709D01*
X153751946Y-79604261D01*
X153750007Y-79685314D01*
X153752182Y-79760245D01*
X153758554Y-79831459D01*
X153768889Y-79899055D01*
X153782953Y-79963128D01*
X153800514Y-80023776D01*
X153821338Y-80081097D01*
X153845191Y-80135187D01*
X153871842Y-80186145D01*
X153901056Y-80234067D01*
X153932600Y-80279050D01*
X153966241Y-80321192D01*
X154001746Y-80360590D01*
X154038882Y-80397342D01*
X154077415Y-80431544D01*
X154117112Y-80463294D01*
X154157740Y-80492689D01*
X154199065Y-80519826D01*
X154282876Y-80567718D01*
X154366680Y-80607746D01*
X154448609Y-80640690D01*
X154526799Y-80667326D01*
X154599383Y-80688435D01*
X154664496Y-80704792D01*
X154720272Y-80717178D01*
X154744075Y-80722124D01*
X154795601Y-80733896D01*
X154847277Y-80746177D01*
X154898624Y-80759444D01*
X154949163Y-80774179D01*
X154998413Y-80790859D01*
X155045896Y-80809966D01*
X155091133Y-80831978D01*
X155133642Y-80857374D01*
X155172947Y-80886634D01*
X155208566Y-80920238D01*
X155240020Y-80958664D01*
X155266831Y-81002393D01*
X155288518Y-81051904D01*
X155304603Y-81107675D01*
X155314605Y-81170187D01*
X155318046Y-81239919D01*
X155314626Y-81315459D01*
X155304767Y-81382157D01*
X155289074Y-81440563D01*
X155268148Y-81491222D01*
X155242592Y-81534683D01*
X155196897Y-81587575D01*
X155144175Y-81627349D01*
X155086463Y-81655854D01*
X155025795Y-81674936D01*
X154964205Y-81686442D01*
X154903727Y-81692222D01*
X154846398Y-81694121D01*
X154828339Y-81694211D01*
X154766072Y-81692598D01*
X154697926Y-81687103D01*
X154624657Y-81676741D01*
X154573337Y-81666644D01*
X154520298Y-81653656D01*
X154465765Y-81637484D01*
X154409961Y-81617837D01*
X154353110Y-81594423D01*
X154295435Y-81566952D01*
X154237160Y-81535130D01*
X154178508Y-81498668D01*
X154119703Y-81457272D01*
X154060969Y-81410653D01*
X154002529Y-81358517D01*
X153973489Y-81330289D01*
X153935131Y-81293872D01*
X153894084Y-81265347D01*
X153862358Y-81260680D01*
X153813132Y-81278876D01*
X153788513Y-81323019D01*
X153785422Y-81344944D01*
X153770118Y-81402011D01*
X153757890Y-81460005D01*
X153748043Y-81509961D01*
X153738220Y-81561995D01*
X153728965Y-81612991D01*
X153718446Y-81673985D01*
X153710037Y-81728593D01*
X153708485Y-81744281D01*
X153723398Y-81793354D01*
X153763669Y-81841024D01*
X153806486Y-81875288D01*
X153856974Y-81907833D01*
X153912308Y-81938262D01*
X153969663Y-81966174D01*
X154026213Y-81991173D01*
X154079132Y-82012859D01*
X154125596Y-82030834D01*
X154162777Y-82044699D01*
X154223747Y-82065551D01*
X154282914Y-82083800D01*
X154340135Y-82099619D01*
X154395266Y-82113183D01*
X154448164Y-82124664D01*
X154498687Y-82134237D01*
X154569704Y-82145396D01*
X154634571Y-82153238D01*
X154692805Y-82158346D01*
X154743922Y-82161306D01*
X154800175Y-82162926D01*
X154841772Y-82163157D01*
X154908366Y-82162092D01*
X154972821Y-82158903D01*
X155035140Y-82153597D01*
X155095324Y-82146182D01*
X155153375Y-82136666D01*
X155209295Y-82125057D01*
X155263084Y-82111362D01*
X155314745Y-82095590D01*
X155364278Y-82077748D01*
X155411687Y-82057844D01*
X155456971Y-82035886D01*
X155500133Y-82011882D01*
X155580097Y-81957766D01*
X155651590Y-81895559D01*
X155714625Y-81825323D01*
X155769215Y-81747121D01*
X155815372Y-81661017D01*
X155835293Y-81615020D01*
X155853109Y-81567071D01*
X155868824Y-81517178D01*
X155882438Y-81465347D01*
X155893954Y-81411588D01*
X155903372Y-81355908D01*
X155910695Y-81298315D01*
X155915923Y-81238816D01*
X155919059Y-81177420D01*
X155920104Y-81114134D01*
X155920104Y-81088489D01*
G37*
G36*
X116792834Y-139395011D02*
G01*
X116914448Y-139406641D01*
X117028655Y-139425637D01*
X117135687Y-139451683D01*
X117235775Y-139484461D01*
X117329151Y-139523655D01*
X117416048Y-139568948D01*
X117496696Y-139620022D01*
X117571329Y-139676562D01*
X117640177Y-139738250D01*
X117703473Y-139804769D01*
X117761449Y-139875802D01*
X117814336Y-139951033D01*
X117862367Y-140030145D01*
X117905773Y-140112821D01*
X117944786Y-140198744D01*
X117979639Y-140287597D01*
X118010562Y-140379064D01*
X118037788Y-140472827D01*
X118061548Y-140568569D01*
X118082075Y-140665975D01*
X118099601Y-140764726D01*
X118114357Y-140864506D01*
X118126576Y-140964999D01*
X118136488Y-141065887D01*
X118144326Y-141166853D01*
X118150323Y-141267581D01*
X118154709Y-141367754D01*
X118157717Y-141467055D01*
X118159578Y-141565166D01*
X118160525Y-141661772D01*
X118160789Y-141756556D01*
X118160724Y-141828478D01*
X118160269Y-141900881D01*
X118159034Y-141973731D01*
X118156629Y-142046995D01*
X118152664Y-142120638D01*
X118146749Y-142194626D01*
X118138495Y-142268925D01*
X118127511Y-142343502D01*
X118113406Y-142418322D01*
X118095792Y-142493351D01*
X118074279Y-142568556D01*
X118048475Y-142643901D01*
X118017992Y-142719355D01*
X117982439Y-142794881D01*
X117941426Y-142870447D01*
X117894564Y-142946018D01*
X117859780Y-142996616D01*
X117820943Y-143046089D01*
X117778091Y-143094141D01*
X117731265Y-143140478D01*
X117680503Y-143184804D01*
X117625844Y-143226824D01*
X117567329Y-143266243D01*
X117504997Y-143302766D01*
X117438886Y-143336097D01*
X117369036Y-143365942D01*
X117295487Y-143392005D01*
X117218278Y-143413991D01*
X117137449Y-143431606D01*
X117053038Y-143444553D01*
X116965085Y-143452538D01*
X116873629Y-143455265D01*
X116840596Y-143454919D01*
X116777403Y-143452146D01*
X116727279Y-143447900D01*
X116671640Y-143441019D01*
X116611241Y-143430891D01*
X116546837Y-143416901D01*
X116479182Y-143398437D01*
X116409032Y-143374884D01*
X116337141Y-143345629D01*
X116264265Y-143310058D01*
X116191158Y-143267558D01*
X116118575Y-143217515D01*
X116047271Y-143159316D01*
X115978000Y-143092346D01*
X115944364Y-143055381D01*
X115911519Y-143015993D01*
X115879560Y-142974106D01*
X115829044Y-142899447D01*
X115784833Y-142822480D01*
X115746507Y-142743903D01*
X115713647Y-142664414D01*
X115685831Y-142584710D01*
X115662640Y-142505489D01*
X115643652Y-142427449D01*
X115628448Y-142351287D01*
X115616607Y-142277701D01*
X115607709Y-142207389D01*
X115601333Y-142141048D01*
X115597059Y-142079376D01*
X115594467Y-142023071D01*
X115592812Y-141950202D01*
X115592575Y-141893332D01*
X116298437Y-141893332D01*
X116299733Y-141986957D01*
X116303880Y-142082541D01*
X116311269Y-142178980D01*
X116322289Y-142275171D01*
X116337330Y-142370009D01*
X116356783Y-142462391D01*
X116381038Y-142551213D01*
X116410483Y-142635372D01*
X116445510Y-142713763D01*
X116486509Y-142785283D01*
X116533868Y-142848828D01*
X116587979Y-142903295D01*
X116649231Y-142947579D01*
X116718015Y-142980577D01*
X116794719Y-143001186D01*
X116879735Y-143008300D01*
X116918182Y-143006885D01*
X116971703Y-142999172D01*
X117036181Y-142979954D01*
X117083219Y-142958182D01*
X117132076Y-142927442D01*
X117181533Y-142886192D01*
X117230368Y-142832890D01*
X117277364Y-142765995D01*
X117321298Y-142683964D01*
X117341736Y-142636791D01*
X117360952Y-142585255D01*
X117378792Y-142529164D01*
X117395104Y-142468326D01*
X117409736Y-142402548D01*
X117422536Y-142331636D01*
X117433350Y-142255398D01*
X117442027Y-142173641D01*
X117448413Y-142086173D01*
X117452357Y-141992801D01*
X117453706Y-141893332D01*
X117452410Y-141799491D01*
X117448265Y-141703719D01*
X117440882Y-141607117D01*
X117429873Y-141510786D01*
X117414849Y-141415830D01*
X117395424Y-141323349D01*
X117371207Y-141234446D01*
X117341812Y-141150223D01*
X117306849Y-141071781D01*
X117265932Y-141000223D01*
X117218671Y-140936651D01*
X117164679Y-140882166D01*
X117103566Y-140837871D01*
X117034946Y-140804867D01*
X116958430Y-140784257D01*
X116873629Y-140777142D01*
X116835151Y-140778558D01*
X116781548Y-140786279D01*
X116716948Y-140805515D01*
X116669811Y-140827310D01*
X116620847Y-140858082D01*
X116571278Y-140899376D01*
X116522327Y-140952735D01*
X116475220Y-141019703D01*
X116431178Y-141101823D01*
X116410690Y-141149048D01*
X116391426Y-141200641D01*
X116373542Y-141256793D01*
X116357188Y-141317698D01*
X116342519Y-141383550D01*
X116329687Y-141454540D01*
X116318845Y-141530862D01*
X116310146Y-141612710D01*
X116303743Y-141700275D01*
X116299789Y-141793751D01*
X116298437Y-141893332D01*
X115592575Y-141893332D01*
X115592614Y-141868967D01*
X115593636Y-141802476D01*
X115597485Y-141715295D01*
X115601060Y-141665069D01*
X115606048Y-141611016D01*
X115612687Y-141553586D01*
X115621211Y-141493228D01*
X115631856Y-141430390D01*
X115644858Y-141365521D01*
X115660453Y-141299070D01*
X115678875Y-141231486D01*
X115700362Y-141163218D01*
X115725148Y-141094713D01*
X115753470Y-141026422D01*
X115785563Y-140958793D01*
X115821662Y-140892274D01*
X115862003Y-140827315D01*
X115906823Y-140764364D01*
X115956356Y-140703871D01*
X116010839Y-140646283D01*
X116070507Y-140592049D01*
X116135596Y-140541619D01*
X116206341Y-140495441D01*
X116282978Y-140453965D01*
X116365743Y-140417638D01*
X116454872Y-140386909D01*
X116550599Y-140362228D01*
X116653162Y-140344043D01*
X116762795Y-140332803D01*
X116879735Y-140328956D01*
X116917605Y-140329522D01*
X116972790Y-140332293D01*
X117025575Y-140336990D01*
X117075445Y-140343184D01*
X117136518Y-140353031D01*
X117190282Y-140363762D01*
X117245355Y-140376870D01*
X117299833Y-140392459D01*
X117282330Y-140334324D01*
X117261474Y-140278228D01*
X117237349Y-140224408D01*
X117210035Y-140173099D01*
X117179616Y-140124538D01*
X117146174Y-140078960D01*
X117109791Y-140036603D01*
X117070550Y-139997702D01*
X117028532Y-139962493D01*
X116983820Y-139931212D01*
X116936496Y-139904097D01*
X116886642Y-139881381D01*
X116834342Y-139863303D01*
X116779676Y-139850097D01*
X116722728Y-139842001D01*
X116663580Y-139839249D01*
X116616545Y-139839968D01*
X116524001Y-139845703D01*
X116433570Y-139857144D01*
X116345341Y-139874257D01*
X116259407Y-139897010D01*
X116175858Y-139925372D01*
X116094786Y-139959309D01*
X116016281Y-139998790D01*
X115940436Y-140043783D01*
X115867342Y-140094255D01*
X115797089Y-140150174D01*
X115729769Y-140211509D01*
X115665473Y-140278226D01*
X115604292Y-140350293D01*
X115546318Y-140427679D01*
X115518562Y-140468357D01*
X115491642Y-140510351D01*
X115465569Y-140553660D01*
X115425517Y-140624317D01*
X115389074Y-140698228D01*
X115356097Y-140775069D01*
X115326446Y-140854517D01*
X115299979Y-140936248D01*
X115276555Y-141019937D01*
X115256032Y-141105261D01*
X115238270Y-141191897D01*
X115223127Y-141279520D01*
X115210461Y-141367806D01*
X115200132Y-141456433D01*
X115191998Y-141545076D01*
X115185917Y-141633411D01*
X115181749Y-141721114D01*
X115179351Y-141807862D01*
X115178583Y-141893332D01*
X115178953Y-141970321D01*
X115179829Y-142019676D01*
X115181536Y-142075507D01*
X115184351Y-142137244D01*
X115188549Y-142204314D01*
X115194409Y-142276145D01*
X115202206Y-142352165D01*
X115212218Y-142431802D01*
X115224722Y-142514484D01*
X115239994Y-142599640D01*
X115258311Y-142686696D01*
X115279950Y-142775082D01*
X115305187Y-142864225D01*
X115334301Y-142953553D01*
X115367566Y-143042494D01*
X115405261Y-143130477D01*
X115447663Y-143216928D01*
X115495047Y-143301277D01*
X115547691Y-143382951D01*
X115605871Y-143461378D01*
X115669865Y-143535986D01*
X115739949Y-143606203D01*
X115816401Y-143671458D01*
X115899496Y-143731177D01*
X115989512Y-143784790D01*
X116086726Y-143831724D01*
X116191414Y-143871408D01*
X116303853Y-143903268D01*
X116424320Y-143926734D01*
X116553093Y-143941233D01*
X116690447Y-143946193D01*
X116742567Y-143945194D01*
X116807308Y-143941419D01*
X116856780Y-143936786D01*
X116910809Y-143930056D01*
X116968977Y-143920884D01*
X117030861Y-143908925D01*
X117096042Y-143893833D01*
X117164100Y-143875264D01*
X117234614Y-143852872D01*
X117307164Y-143826313D01*
X117381330Y-143795239D01*
X117456690Y-143759307D01*
X117532825Y-143718172D01*
X117609313Y-143671487D01*
X117685736Y-143618907D01*
X117986155Y-143618907D01*
X118043428Y-143619447D01*
X118095270Y-143624393D01*
X118141352Y-143649288D01*
X118154683Y-143700729D01*
X118148162Y-143721989D01*
X118114378Y-143773465D01*
X118076273Y-143818407D01*
X118026039Y-143869900D01*
X117963963Y-143926277D01*
X117890333Y-143985866D01*
X117849276Y-144016345D01*
X117805438Y-144047001D01*
X117758856Y-144077626D01*
X117709566Y-144108011D01*
X117657603Y-144137948D01*
X117603004Y-144167228D01*
X117545805Y-144195643D01*
X117486041Y-144222983D01*
X117423749Y-144249040D01*
X117358964Y-144273606D01*
X117291723Y-144296471D01*
X117222062Y-144317428D01*
X117150016Y-144336268D01*
X117075622Y-144352781D01*
X116998915Y-144366760D01*
X116919933Y-144377996D01*
X116838709Y-144386280D01*
X116755282Y-144391403D01*
X116669686Y-144393157D01*
X116604192Y-144392380D01*
X116538945Y-144390042D01*
X116473991Y-144386139D01*
X116409377Y-144380661D01*
X116345149Y-144373603D01*
X116281354Y-144364958D01*
X116218039Y-144354718D01*
X116155250Y-144342878D01*
X116093033Y-144329428D01*
X116031435Y-144314364D01*
X115970502Y-144297678D01*
X115910282Y-144279362D01*
X115850820Y-144259411D01*
X115792163Y-144237817D01*
X115734357Y-144214573D01*
X115677449Y-144189672D01*
X115621486Y-144163108D01*
X115566515Y-144134873D01*
X115512580Y-144104961D01*
X115459730Y-144073364D01*
X115408010Y-144040075D01*
X115357467Y-144005089D01*
X115308148Y-143968397D01*
X115260100Y-143929993D01*
X115213367Y-143889869D01*
X115167998Y-143848020D01*
X115124038Y-143804438D01*
X115081535Y-143759116D01*
X115040534Y-143712047D01*
X115001083Y-143663224D01*
X114963227Y-143612640D01*
X114927013Y-143560289D01*
X114891217Y-143507711D01*
X114857296Y-143454870D01*
X114825204Y-143401794D01*
X114794891Y-143348513D01*
X114766308Y-143295057D01*
X114739408Y-143241456D01*
X114714142Y-143187738D01*
X114690460Y-143133933D01*
X114668316Y-143080071D01*
X114647659Y-143026181D01*
X114628442Y-142972293D01*
X114610616Y-142918436D01*
X114594133Y-142864640D01*
X114578944Y-142810935D01*
X114565000Y-142757349D01*
X114552253Y-142703913D01*
X114540655Y-142650655D01*
X114530157Y-142597606D01*
X114520710Y-142544795D01*
X114512266Y-142492251D01*
X114504776Y-142440005D01*
X114498192Y-142388084D01*
X114492466Y-142336520D01*
X114487548Y-142285341D01*
X114483391Y-142234578D01*
X114479945Y-142184259D01*
X114477162Y-142134413D01*
X114474995Y-142085072D01*
X114472309Y-141988018D01*
X114471500Y-141893332D01*
X114471675Y-141851420D01*
X114473252Y-141762970D01*
X114476868Y-141668869D01*
X114479591Y-141619892D01*
X114483003Y-141569735D01*
X114487166Y-141518476D01*
X114492140Y-141466192D01*
X114497983Y-141412960D01*
X114504758Y-141358858D01*
X114512523Y-141303965D01*
X114521339Y-141248356D01*
X114531267Y-141192111D01*
X114542366Y-141135305D01*
X114554696Y-141078019D01*
X114568317Y-141020327D01*
X114583291Y-140962309D01*
X114599676Y-140904042D01*
X114617533Y-140845604D01*
X114636923Y-140787071D01*
X114657905Y-140728523D01*
X114680539Y-140670035D01*
X114704886Y-140611686D01*
X114731006Y-140553554D01*
X114758958Y-140495716D01*
X114788804Y-140438250D01*
X114820603Y-140381232D01*
X114854416Y-140324742D01*
X114890301Y-140268856D01*
X114928321Y-140213652D01*
X114968535Y-140159207D01*
X115009939Y-140106720D01*
X115052601Y-140056396D01*
X115096471Y-140008204D01*
X115141496Y-139962110D01*
X115187626Y-139918083D01*
X115234810Y-139876089D01*
X115282995Y-139836096D01*
X115332132Y-139798072D01*
X115382169Y-139761982D01*
X115433054Y-139727796D01*
X115484736Y-139695480D01*
X115537165Y-139665002D01*
X115590289Y-139636329D01*
X115644056Y-139609428D01*
X115698416Y-139584267D01*
X115753317Y-139560812D01*
X115808709Y-139539033D01*
X115864539Y-139518895D01*
X115920758Y-139500366D01*
X115977312Y-139483413D01*
X116034153Y-139468005D01*
X116091227Y-139454107D01*
X116148484Y-139441688D01*
X116205873Y-139430715D01*
X116263342Y-139421155D01*
X116320841Y-139412976D01*
X116378317Y-139406144D01*
X116435721Y-139400628D01*
X116493000Y-139396395D01*
X116550104Y-139393411D01*
X116606981Y-139391645D01*
X116663580Y-139391064D01*
X116792834Y-139395011D01*
G37*
G36*
X120996173Y-139469903D02*
G01*
X121053249Y-139471953D01*
X121110232Y-139475383D01*
X121167077Y-139480200D01*
X121223736Y-139486416D01*
X121280164Y-139494040D01*
X121336314Y-139503080D01*
X121392141Y-139513548D01*
X121447596Y-139525452D01*
X121502636Y-139538802D01*
X121557212Y-139553607D01*
X121611279Y-139569879D01*
X121664791Y-139587625D01*
X121717701Y-139606855D01*
X121769963Y-139627580D01*
X121821531Y-139649808D01*
X121872358Y-139673550D01*
X121922398Y-139698815D01*
X121971605Y-139725613D01*
X122019933Y-139753953D01*
X122067335Y-139783844D01*
X122113765Y-139815298D01*
X122159176Y-139848322D01*
X122203523Y-139882927D01*
X122246759Y-139919122D01*
X122288838Y-139956917D01*
X122329713Y-139996322D01*
X122369339Y-140037346D01*
X122407668Y-140079999D01*
X122444655Y-140124290D01*
X122480254Y-140170229D01*
X122514417Y-140217826D01*
X122542779Y-140259352D01*
X122570166Y-140301507D01*
X122596582Y-140344305D01*
X122622032Y-140387761D01*
X122646522Y-140431887D01*
X122670056Y-140476698D01*
X122692639Y-140522207D01*
X122714277Y-140568429D01*
X122734973Y-140615377D01*
X122754734Y-140663065D01*
X122773563Y-140711507D01*
X122791466Y-140760717D01*
X122808448Y-140810709D01*
X122824513Y-140861497D01*
X122839667Y-140913094D01*
X122853915Y-140965514D01*
X122867261Y-141018772D01*
X122879710Y-141072880D01*
X122891268Y-141127854D01*
X122901938Y-141183706D01*
X122911727Y-141240451D01*
X122920639Y-141298102D01*
X122928678Y-141356674D01*
X122935851Y-141416180D01*
X122942161Y-141476635D01*
X122947614Y-141538051D01*
X122952214Y-141600443D01*
X122955967Y-141663824D01*
X122958878Y-141728210D01*
X122960951Y-141793612D01*
X122962191Y-141860047D01*
X122962603Y-141927526D01*
X122962250Y-141988980D01*
X122961167Y-142050364D01*
X122959317Y-142111648D01*
X122956664Y-142172806D01*
X122953172Y-142233809D01*
X122948805Y-142294630D01*
X122943527Y-142355239D01*
X122937301Y-142415611D01*
X122930091Y-142475715D01*
X122921861Y-142535525D01*
X122912575Y-142595013D01*
X122902196Y-142654151D01*
X122890688Y-142712909D01*
X122878015Y-142771262D01*
X122864141Y-142829181D01*
X122849030Y-142886637D01*
X122832645Y-142943603D01*
X122814950Y-143000051D01*
X122795909Y-143055953D01*
X122775485Y-143111281D01*
X122753643Y-143166007D01*
X122730346Y-143220103D01*
X122705558Y-143273541D01*
X122679243Y-143326293D01*
X122651364Y-143378332D01*
X122621886Y-143429628D01*
X122590772Y-143480156D01*
X122557985Y-143529885D01*
X122523490Y-143578789D01*
X122487251Y-143626840D01*
X122449230Y-143674009D01*
X122409393Y-143720268D01*
X122372741Y-143761407D01*
X122334949Y-143800806D01*
X122296073Y-143838495D01*
X122256169Y-143874501D01*
X122215291Y-143908854D01*
X122173496Y-143941581D01*
X122130838Y-143972712D01*
X122087374Y-144002273D01*
X122043158Y-144030295D01*
X121998247Y-144056804D01*
X121952695Y-144081830D01*
X121906558Y-144105401D01*
X121859892Y-144127546D01*
X121812751Y-144148292D01*
X121765192Y-144167669D01*
X121717270Y-144185703D01*
X121669040Y-144202425D01*
X121620558Y-144217863D01*
X121571879Y-144232044D01*
X121523059Y-144244997D01*
X121474152Y-144256750D01*
X121425216Y-144267333D01*
X121376304Y-144276773D01*
X121327473Y-144285099D01*
X121278778Y-144292339D01*
X121230275Y-144298521D01*
X121134064Y-144307827D01*
X121039284Y-144313244D01*
X120946378Y-144315000D01*
X119413754Y-144315000D01*
X119347574Y-144313078D01*
X119290807Y-144306966D01*
X119228663Y-144291401D01*
X119180622Y-144266234D01*
X119145182Y-144230233D01*
X119120841Y-144182168D01*
X119106095Y-144120808D01*
X119100429Y-144065323D01*
X119098681Y-144001147D01*
X119098681Y-139994344D01*
X119931549Y-139994344D01*
X119931549Y-143791099D01*
X120715569Y-143791099D01*
X120844047Y-143787337D01*
X120964498Y-143776301D01*
X121077181Y-143758368D01*
X121182354Y-143733914D01*
X121280277Y-143703314D01*
X121371209Y-143666944D01*
X121455408Y-143625179D01*
X121533134Y-143578397D01*
X121604645Y-143526973D01*
X121670200Y-143471283D01*
X121730059Y-143411702D01*
X121784479Y-143348606D01*
X121833722Y-143282372D01*
X121878044Y-143213376D01*
X121917705Y-143141992D01*
X121952964Y-143068598D01*
X121984080Y-142993568D01*
X122011312Y-142917280D01*
X122034919Y-142840108D01*
X122055160Y-142762428D01*
X122072293Y-142684618D01*
X122086578Y-142607051D01*
X122098273Y-142530105D01*
X122107639Y-142454155D01*
X122114932Y-142379577D01*
X122120413Y-142306748D01*
X122124340Y-142236042D01*
X122126973Y-142167835D01*
X122128570Y-142102505D01*
X122129390Y-142040426D01*
X122129692Y-141981974D01*
X122129735Y-141927526D01*
X122129692Y-141872233D01*
X122129388Y-141812636D01*
X122128564Y-141749133D01*
X122126959Y-141682121D01*
X122124312Y-141611997D01*
X122120365Y-141539159D01*
X122114855Y-141464004D01*
X122107524Y-141386928D01*
X122098110Y-141308331D01*
X122086354Y-141228609D01*
X122071995Y-141148159D01*
X122054773Y-141067378D01*
X122034428Y-140986665D01*
X122010699Y-140906416D01*
X121983326Y-140827029D01*
X121952048Y-140748901D01*
X121916606Y-140672430D01*
X121876740Y-140598012D01*
X121832188Y-140526046D01*
X121782691Y-140456929D01*
X121727988Y-140391057D01*
X121667819Y-140328828D01*
X121601924Y-140270641D01*
X121530042Y-140216891D01*
X121451914Y-140167976D01*
X121367279Y-140124295D01*
X121275876Y-140086243D01*
X121177445Y-140054219D01*
X121071727Y-140028619D01*
X120958460Y-140009842D01*
X120837385Y-139998284D01*
X120708242Y-139994344D01*
X119931549Y-139994344D01*
X119098681Y-139994344D01*
X119098681Y-139784295D01*
X119100604Y-139718397D01*
X119106723Y-139661801D01*
X119122317Y-139599744D01*
X119147549Y-139551669D01*
X119183665Y-139516117D01*
X119231909Y-139491627D01*
X119293528Y-139476740D01*
X119349267Y-139470998D01*
X119413754Y-139469221D01*
X120939051Y-139469221D01*
X120996173Y-139469903D01*
G37*
G36*
X126225687Y-144177002D02*
G01*
X126216250Y-144126235D01*
X126190114Y-144080023D01*
X126169512Y-144051217D01*
X125132701Y-142618733D01*
X126057160Y-141303485D01*
X126085882Y-141261853D01*
X126107440Y-141216618D01*
X126113336Y-141178921D01*
X126104229Y-141120402D01*
X126072994Y-141073793D01*
X126025900Y-141047469D01*
X125969613Y-141035636D01*
X125920494Y-141032662D01*
X125882526Y-141032376D01*
X125713999Y-141032376D01*
X125664676Y-141032999D01*
X125609819Y-141036315D01*
X125555274Y-141045964D01*
X125503974Y-141068383D01*
X125460177Y-141106049D01*
X125423347Y-141151698D01*
X125398925Y-141186249D01*
X124832282Y-142048426D01*
X124237551Y-141178921D01*
X124204154Y-141132221D01*
X124167029Y-141089522D01*
X124123682Y-141059871D01*
X124075593Y-141043981D01*
X124025123Y-141036376D01*
X123960778Y-141032800D01*
X123922477Y-141032376D01*
X123753950Y-141032376D01*
X123696371Y-141033293D01*
X123647491Y-141038031D01*
X123593527Y-141053249D01*
X123550979Y-141084068D01*
X123526511Y-141135995D01*
X123523140Y-141171594D01*
X123532183Y-141219830D01*
X123555308Y-141266338D01*
X123579316Y-141303485D01*
X124530642Y-142618733D01*
X123536574Y-144037784D01*
X123507185Y-144082854D01*
X123487420Y-144128001D01*
X123480398Y-144177002D01*
X123489132Y-144232108D01*
X123519369Y-144275998D01*
X123565593Y-144300786D01*
X123621912Y-144311929D01*
X123672305Y-144314730D01*
X123712429Y-144315000D01*
X123879735Y-144315000D01*
X123933745Y-144314689D01*
X123992141Y-144311468D01*
X124042599Y-144301705D01*
X124087466Y-144281768D01*
X124129092Y-144248024D01*
X124161635Y-144208644D01*
X124194808Y-144156242D01*
X124832282Y-143077909D01*
X125503950Y-144162348D01*
X125533667Y-144205021D01*
X125568101Y-144246608D01*
X125611754Y-144281449D01*
X125665752Y-144302549D01*
X125724610Y-144311691D01*
X125784210Y-144314667D01*
X125819023Y-144315000D01*
X125987551Y-144315000D01*
X126045806Y-144314090D01*
X126096012Y-144309394D01*
X126151980Y-144294309D01*
X126196436Y-144263760D01*
X126222135Y-144212289D01*
X126225687Y-144177002D01*
G37*
G36*
X128694283Y-139471167D02*
G01*
X128749355Y-139477320D01*
X128809863Y-139492879D01*
X128856860Y-139517870D01*
X128891722Y-139553408D01*
X128915822Y-139600610D01*
X128930534Y-139660591D01*
X128936233Y-139714636D01*
X128938004Y-139776967D01*
X128938004Y-142595530D01*
X129189574Y-142595530D01*
X129245276Y-142596093D01*
X129300190Y-142600033D01*
X129352270Y-142610728D01*
X129399471Y-142631556D01*
X129439744Y-142665893D01*
X129471045Y-142717117D01*
X129487401Y-142768649D01*
X129496695Y-142833005D01*
X129498542Y-142883736D01*
X129496615Y-142932963D01*
X129486948Y-142995410D01*
X129470015Y-143045414D01*
X129437812Y-143095119D01*
X129396723Y-143128437D01*
X129349050Y-143148647D01*
X129297098Y-143159025D01*
X129243172Y-143162848D01*
X129189574Y-143163394D01*
X128938004Y-143163394D01*
X128938004Y-144009696D01*
X128936233Y-144071967D01*
X128930534Y-144125847D01*
X128915822Y-144185487D01*
X128891722Y-144232262D01*
X128856860Y-144267344D01*
X128809863Y-144291908D01*
X128749355Y-144307127D01*
X128694283Y-144313114D01*
X128630258Y-144315000D01*
X128510579Y-144315000D01*
X128441760Y-144312618D01*
X128383773Y-144305348D01*
X128321776Y-144287726D01*
X128275356Y-144260638D01*
X128242410Y-144223640D01*
X128220834Y-144176288D01*
X128208525Y-144118137D01*
X128204108Y-144067172D01*
X128202833Y-144009696D01*
X128202833Y-143163394D01*
X126852170Y-143163394D01*
X126783068Y-143160952D01*
X126724911Y-143153517D01*
X126662825Y-143135555D01*
X126616440Y-143108040D01*
X126583606Y-143070586D01*
X126562179Y-143022807D01*
X126550011Y-142964315D01*
X126545670Y-142913185D01*
X126544424Y-142855648D01*
X126544424Y-142728642D01*
X126544436Y-142707602D01*
X126545511Y-142649170D01*
X126552910Y-142595530D01*
X127159916Y-142595530D01*
X128245576Y-142595530D01*
X128245576Y-140099368D01*
X128242920Y-140117508D01*
X128230538Y-140167806D01*
X128215883Y-140215957D01*
X128197405Y-140271294D01*
X128175802Y-140332243D01*
X128151777Y-140397226D01*
X128126029Y-140464668D01*
X128108253Y-140510218D01*
X128081190Y-140578258D01*
X128054272Y-140644555D01*
X128028200Y-140707533D01*
X127997662Y-140781235D01*
X127966553Y-140855255D01*
X127934951Y-140929465D01*
X127902935Y-141003739D01*
X127870584Y-141077951D01*
X127837978Y-141151973D01*
X127805196Y-141225680D01*
X127772317Y-141298944D01*
X127739420Y-141371639D01*
X127706584Y-141443639D01*
X127673889Y-141514817D01*
X127641413Y-141585047D01*
X127609236Y-141654201D01*
X127577437Y-141722154D01*
X127546095Y-141788778D01*
X127515290Y-141853948D01*
X127485099Y-141917536D01*
X127455603Y-141979416D01*
X127426881Y-142039462D01*
X127399012Y-142097546D01*
X127372075Y-142153543D01*
X127346149Y-142207326D01*
X127321313Y-142258768D01*
X127297646Y-142307743D01*
X127254139Y-142397784D01*
X127216259Y-142476438D01*
X127184641Y-142542690D01*
X127159916Y-142595530D01*
X126552910Y-142595530D01*
X126553118Y-142594022D01*
X126570626Y-142545261D01*
X126593273Y-142497833D01*
X127972024Y-139637749D01*
X127993043Y-139596348D01*
X128020028Y-139552517D01*
X128054520Y-139513586D01*
X128101492Y-139485701D01*
X128149254Y-139474220D01*
X128208460Y-139469851D01*
X128266336Y-139469221D01*
X128630258Y-139469221D01*
X128694283Y-139471167D01*
G37*
G36*
X133660440Y-143974281D02*
G01*
X133660440Y-142027665D01*
X133642456Y-141979129D01*
X133597912Y-141952332D01*
X133582282Y-141950729D01*
X132336643Y-141950729D01*
X132288107Y-141968610D01*
X132261310Y-142012438D01*
X132259707Y-142027665D01*
X132259707Y-142440436D01*
X132277589Y-142489479D01*
X132321416Y-142515819D01*
X132336643Y-142517372D01*
X132882526Y-142517372D01*
X132882526Y-143714162D01*
X132825324Y-143727660D01*
X132767771Y-143739968D01*
X132709904Y-143751056D01*
X132651760Y-143760895D01*
X132593374Y-143769454D01*
X132534782Y-143776703D01*
X132476022Y-143782611D01*
X132417129Y-143787149D01*
X132358139Y-143790286D01*
X132299089Y-143791992D01*
X132259707Y-143792320D01*
X132186478Y-143790350D01*
X132113910Y-143784463D01*
X132042180Y-143774690D01*
X131971462Y-143761064D01*
X131901932Y-143743617D01*
X131833766Y-143722381D01*
X131767137Y-143697389D01*
X131702223Y-143668672D01*
X131639197Y-143636263D01*
X131578236Y-143600193D01*
X131519515Y-143560496D01*
X131463208Y-143517203D01*
X131409492Y-143470347D01*
X131358542Y-143419959D01*
X131310532Y-143366073D01*
X131265639Y-143308719D01*
X131213133Y-143231483D01*
X131165816Y-143151934D01*
X131123441Y-143070249D01*
X131085758Y-142986605D01*
X131052518Y-142901179D01*
X131023473Y-142814149D01*
X130998375Y-142725691D01*
X130976974Y-142635983D01*
X130959022Y-142545201D01*
X130944271Y-142453523D01*
X130932471Y-142361126D01*
X130923374Y-142268187D01*
X130916732Y-142174883D01*
X130912295Y-142081392D01*
X130909815Y-141987889D01*
X130909044Y-141894553D01*
X130909815Y-141799915D01*
X130912295Y-141705255D01*
X130916732Y-141610753D01*
X130923374Y-141516587D01*
X130932471Y-141422936D01*
X130944271Y-141329980D01*
X130959022Y-141237896D01*
X130976974Y-141146864D01*
X130998375Y-141057063D01*
X131023473Y-140968672D01*
X131052518Y-140881869D01*
X131085758Y-140796834D01*
X131123441Y-140713745D01*
X131165816Y-140632781D01*
X131213133Y-140554121D01*
X131265639Y-140477944D01*
X131310532Y-140420376D01*
X131358542Y-140366301D01*
X131409492Y-140315750D01*
X131463208Y-140268754D01*
X131519515Y-140225343D01*
X131578236Y-140185547D01*
X131639197Y-140149397D01*
X131702223Y-140116923D01*
X131767137Y-140088156D01*
X131833766Y-140063125D01*
X131901932Y-140041862D01*
X131971462Y-140024397D01*
X132042180Y-140010760D01*
X132113910Y-140000982D01*
X132186478Y-139995092D01*
X132259707Y-139993122D01*
X132318585Y-139993904D01*
X132377046Y-139996286D01*
X132435061Y-140000322D01*
X132492599Y-140006067D01*
X132549629Y-140013574D01*
X132606122Y-140022899D01*
X132662048Y-140034096D01*
X132717376Y-140047218D01*
X132772076Y-140062321D01*
X132826118Y-140079459D01*
X132861766Y-140092041D01*
X132916304Y-140114788D01*
X132969375Y-140139681D01*
X133021058Y-140166610D01*
X133071430Y-140195467D01*
X133120571Y-140226144D01*
X133168559Y-140258531D01*
X133215472Y-140292520D01*
X133261389Y-140328002D01*
X133306388Y-140364869D01*
X133350548Y-140403012D01*
X133379560Y-140429096D01*
X133424600Y-140449690D01*
X133428409Y-140449856D01*
X133475480Y-140434853D01*
X133503055Y-140390650D01*
X133505345Y-140379026D01*
X133604264Y-139825816D01*
X133596565Y-139775990D01*
X133568849Y-139741552D01*
X133511815Y-139710357D01*
X133454673Y-139680037D01*
X133397313Y-139650695D01*
X133339628Y-139622434D01*
X133281507Y-139595356D01*
X133222844Y-139569564D01*
X133163528Y-139545161D01*
X133103452Y-139522249D01*
X133042506Y-139500931D01*
X132980582Y-139481309D01*
X132938702Y-139469221D01*
X132877222Y-139454313D01*
X132815100Y-139441148D01*
X132752402Y-139429666D01*
X132689195Y-139419805D01*
X132625545Y-139411506D01*
X132561520Y-139404709D01*
X132497184Y-139399352D01*
X132432604Y-139395376D01*
X132367848Y-139392720D01*
X132302980Y-139391324D01*
X132259707Y-139391064D01*
X132202028Y-139391642D01*
X132144422Y-139393385D01*
X132086923Y-139396305D01*
X132029568Y-139400416D01*
X131972392Y-139405730D01*
X131915433Y-139412259D01*
X131858725Y-139420017D01*
X131802305Y-139429017D01*
X131746209Y-139439270D01*
X131690472Y-139450790D01*
X131635132Y-139463590D01*
X131580223Y-139477682D01*
X131525782Y-139493079D01*
X131471845Y-139509793D01*
X131418447Y-139527838D01*
X131365626Y-139547226D01*
X131313416Y-139567971D01*
X131261854Y-139590084D01*
X131210975Y-139613578D01*
X131160817Y-139638467D01*
X131111414Y-139664763D01*
X131062803Y-139692478D01*
X131015020Y-139721626D01*
X130968101Y-139752219D01*
X130922082Y-139784270D01*
X130876998Y-139817791D01*
X130832886Y-139852796D01*
X130789782Y-139889298D01*
X130747722Y-139927308D01*
X130706742Y-139966840D01*
X130666877Y-140007906D01*
X130628165Y-140050519D01*
X130587731Y-140097650D01*
X130549068Y-140145825D01*
X130512144Y-140195007D01*
X130476927Y-140245160D01*
X130443386Y-140296246D01*
X130411488Y-140348230D01*
X130381202Y-140401074D01*
X130352495Y-140454741D01*
X130325335Y-140509196D01*
X130299691Y-140564401D01*
X130275530Y-140620320D01*
X130252820Y-140676916D01*
X130231530Y-140734153D01*
X130211628Y-140791993D01*
X130193081Y-140850401D01*
X130175858Y-140909338D01*
X130159926Y-140968770D01*
X130145254Y-141028658D01*
X130131809Y-141088967D01*
X130119560Y-141149660D01*
X130108475Y-141210700D01*
X130098521Y-141272050D01*
X130089667Y-141333673D01*
X130081881Y-141395534D01*
X130075131Y-141457595D01*
X130069384Y-141519820D01*
X130064610Y-141582172D01*
X130060775Y-141644614D01*
X130057848Y-141707110D01*
X130055797Y-141769623D01*
X130054589Y-141832116D01*
X130054194Y-141894553D01*
X130054589Y-141956983D01*
X130055797Y-142019455D01*
X130057848Y-142081935D01*
X130060775Y-142144387D01*
X130064610Y-142206773D01*
X130069384Y-142269060D01*
X130075131Y-142331211D01*
X130081881Y-142393190D01*
X130089667Y-142454961D01*
X130098521Y-142516490D01*
X130108475Y-142577739D01*
X130119560Y-142638673D01*
X130131809Y-142699257D01*
X130145254Y-142759454D01*
X130159926Y-142819229D01*
X130175858Y-142878546D01*
X130193081Y-142937370D01*
X130211628Y-142995664D01*
X130231530Y-143053392D01*
X130252820Y-143110520D01*
X130275530Y-143167010D01*
X130299691Y-143222828D01*
X130325335Y-143277938D01*
X130352495Y-143332304D01*
X130381202Y-143385889D01*
X130411488Y-143438659D01*
X130443386Y-143490577D01*
X130476927Y-143541608D01*
X130512144Y-143591716D01*
X130549068Y-143640865D01*
X130587731Y-143689020D01*
X130628165Y-143736144D01*
X130666877Y-143778643D01*
X130706742Y-143819595D01*
X130747722Y-143859013D01*
X130789782Y-143896910D01*
X130832886Y-143933299D01*
X130876998Y-143968193D01*
X130922082Y-144001605D01*
X130968101Y-144033548D01*
X131015020Y-144064034D01*
X131062803Y-144093078D01*
X131111414Y-144120691D01*
X131160817Y-144146887D01*
X131210975Y-144171679D01*
X131261854Y-144195079D01*
X131313416Y-144217101D01*
X131365626Y-144237758D01*
X131418447Y-144257062D01*
X131471845Y-144275027D01*
X131525782Y-144291665D01*
X131580223Y-144306990D01*
X131635132Y-144321014D01*
X131690472Y-144333751D01*
X131746209Y-144345213D01*
X131802305Y-144355414D01*
X131858725Y-144364366D01*
X131915433Y-144372082D01*
X131972392Y-144378576D01*
X132029568Y-144383860D01*
X132086923Y-144387947D01*
X132144422Y-144390850D01*
X132202028Y-144392583D01*
X132259707Y-144393157D01*
X132348910Y-144391771D01*
X132437871Y-144387616D01*
X132526516Y-144380704D01*
X132614775Y-144371042D01*
X132702576Y-144358639D01*
X132789848Y-144343505D01*
X132876518Y-144325648D01*
X132962516Y-144305077D01*
X133047769Y-144281802D01*
X133132207Y-144255830D01*
X133215758Y-144227172D01*
X133298350Y-144195836D01*
X133379911Y-144161830D01*
X133460370Y-144125165D01*
X133539656Y-144085849D01*
X133617697Y-144043890D01*
X133652127Y-144009017D01*
X133660440Y-143974281D01*
G37*
G36*
X136262847Y-141313255D02*
G01*
X136262847Y-141109312D01*
X136262630Y-141059068D01*
X136260375Y-141009819D01*
X136246185Y-140958067D01*
X136203239Y-140931481D01*
X136151717Y-140927351D01*
X136092728Y-140929854D01*
X136031916Y-140937531D01*
X135969720Y-140950632D01*
X135906577Y-140969407D01*
X135842926Y-140994107D01*
X135779206Y-141024982D01*
X135715854Y-141062282D01*
X135653309Y-141106259D01*
X135592009Y-141157163D01*
X135532392Y-141215243D01*
X135474897Y-141280751D01*
X135419961Y-141353937D01*
X135368024Y-141435051D01*
X135343317Y-141478659D01*
X135319524Y-141524344D01*
X135296699Y-141572135D01*
X135274898Y-141622066D01*
X135254175Y-141674166D01*
X135234585Y-141728468D01*
X135227258Y-141728468D01*
X135227258Y-141264406D01*
X135226012Y-141206245D01*
X135221671Y-141154607D01*
X135209503Y-141095599D01*
X135188076Y-141047461D01*
X135155242Y-141009777D01*
X135108856Y-140982132D01*
X135046771Y-140964111D01*
X134988613Y-140956662D01*
X134919512Y-140954218D01*
X134820593Y-140954218D01*
X134756418Y-140955996D01*
X134700933Y-140961745D01*
X134639573Y-140976661D01*
X134591508Y-141001216D01*
X134555507Y-141036883D01*
X134530340Y-141085137D01*
X134514775Y-141147452D01*
X134508663Y-141204302D01*
X134506741Y-141270512D01*
X134506741Y-143998705D01*
X134508488Y-144063505D01*
X134514147Y-144119498D01*
X134528864Y-144181374D01*
X134553140Y-144229798D01*
X134588465Y-144266029D01*
X134636326Y-144291327D01*
X134698212Y-144306950D01*
X134754725Y-144313076D01*
X134820593Y-144315000D01*
X134953706Y-144315000D01*
X135018042Y-144313082D01*
X135073369Y-144306998D01*
X135134134Y-144291550D01*
X135181311Y-144266643D01*
X135216288Y-144231102D01*
X135240453Y-144183755D01*
X135255194Y-144123428D01*
X135260901Y-144068958D01*
X135262673Y-144006032D01*
X135262673Y-142585760D01*
X135263812Y-142525807D01*
X135267193Y-142467320D01*
X135272760Y-142410320D01*
X135280459Y-142354827D01*
X135290234Y-142300861D01*
X135302029Y-142248444D01*
X135315790Y-142197595D01*
X135331461Y-142148336D01*
X135348988Y-142100687D01*
X135368314Y-142054669D01*
X135389385Y-142010302D01*
X135436539Y-141926603D01*
X135490010Y-141849756D01*
X135549354Y-141779924D01*
X135614130Y-141717274D01*
X135683896Y-141661968D01*
X135758210Y-141614172D01*
X135836631Y-141574051D01*
X135918716Y-141541768D01*
X136004024Y-141517489D01*
X136092113Y-141501378D01*
X136137062Y-141496437D01*
X136193112Y-141491253D01*
X136241565Y-141469530D01*
X136259007Y-141420783D01*
X136262351Y-141369211D01*
X136262847Y-141313255D01*
G37*
G36*
X138053720Y-140877600D02*
G01*
X138126638Y-140882209D01*
X138197393Y-140889873D01*
X138265970Y-140900578D01*
X138332353Y-140914308D01*
X138396526Y-140931050D01*
X138458474Y-140950788D01*
X138518182Y-140973509D01*
X138575634Y-140999198D01*
X138630815Y-141027840D01*
X138683709Y-141059421D01*
X138734301Y-141093925D01*
X138782576Y-141131340D01*
X138828517Y-141171649D01*
X138872111Y-141214839D01*
X138913340Y-141260895D01*
X138952190Y-141309803D01*
X138988646Y-141361547D01*
X139022692Y-141416114D01*
X139054312Y-141473489D01*
X139083491Y-141533657D01*
X139110213Y-141596604D01*
X139134464Y-141662316D01*
X139156228Y-141730777D01*
X139175489Y-141801973D01*
X139192232Y-141875890D01*
X139206442Y-141952513D01*
X139218102Y-142031827D01*
X139227198Y-142113819D01*
X139233715Y-142198473D01*
X139237636Y-142285776D01*
X139238920Y-142373992D01*
X139236678Y-142438805D01*
X139229689Y-142494411D01*
X139212545Y-142554421D01*
X139185856Y-142599934D01*
X139148963Y-142632752D01*
X139101209Y-142654681D01*
X139041933Y-142667521D01*
X138989520Y-142672273D01*
X138929979Y-142673688D01*
X137264243Y-142673688D01*
X137264444Y-142723344D01*
X137265855Y-142789865D01*
X137269685Y-142870483D01*
X137277142Y-142962428D01*
X137282609Y-143011783D01*
X137289436Y-143062932D01*
X137297775Y-143115527D01*
X137307777Y-143169224D01*
X137319593Y-143223675D01*
X137333374Y-143278536D01*
X137349271Y-143333459D01*
X137367436Y-143388098D01*
X137388019Y-143442108D01*
X137411171Y-143495141D01*
X137437045Y-143546853D01*
X137465791Y-143596897D01*
X137497560Y-143644926D01*
X137532503Y-143690595D01*
X137570772Y-143733558D01*
X137612518Y-143773467D01*
X137657891Y-143809978D01*
X137707044Y-143842744D01*
X137760127Y-143871418D01*
X137817291Y-143895656D01*
X137878687Y-143915109D01*
X137944468Y-143929433D01*
X138014783Y-143938282D01*
X138089784Y-143941308D01*
X138120661Y-143940745D01*
X138178013Y-143937079D01*
X138246958Y-143928657D01*
X138298447Y-143919640D01*
X138353716Y-143907369D01*
X138412216Y-143891388D01*
X138473398Y-143871241D01*
X138536711Y-143846471D01*
X138601608Y-143816622D01*
X138667539Y-143781239D01*
X138733955Y-143739865D01*
X138800307Y-143692043D01*
X138866044Y-143637319D01*
X138930619Y-143575234D01*
X138993482Y-143505334D01*
X138999958Y-143497363D01*
X139036518Y-143458554D01*
X139083852Y-143440610D01*
X139090288Y-143440716D01*
X139138485Y-143458964D01*
X139157673Y-143504659D01*
X139166883Y-143555126D01*
X139175443Y-143611580D01*
X139180080Y-143653700D01*
X139185232Y-143704853D01*
X139190126Y-143759386D01*
X139193990Y-143811649D01*
X139196204Y-143868035D01*
X139188487Y-143906471D01*
X139157075Y-143959890D01*
X139120765Y-144000580D01*
X139076176Y-144040948D01*
X139025692Y-144080221D01*
X138971698Y-144117627D01*
X138916579Y-144152392D01*
X138862721Y-144183744D01*
X138812506Y-144210910D01*
X138755345Y-144239284D01*
X138714591Y-144257314D01*
X138653368Y-144282390D01*
X138591836Y-144305058D01*
X138529774Y-144325263D01*
X138466957Y-144342949D01*
X138403162Y-144358064D01*
X138338165Y-144370553D01*
X138271743Y-144380361D01*
X138203674Y-144387434D01*
X138133732Y-144391717D01*
X138061696Y-144393157D01*
X137997065Y-144392032D01*
X137931747Y-144388582D01*
X137865923Y-144382689D01*
X137799772Y-144374240D01*
X137733473Y-144363120D01*
X137667206Y-144349212D01*
X137601150Y-144332403D01*
X137535486Y-144312576D01*
X137470392Y-144289617D01*
X137406049Y-144263411D01*
X137342635Y-144233841D01*
X137280331Y-144200795D01*
X137219316Y-144164155D01*
X137159769Y-144123806D01*
X137101870Y-144079635D01*
X137045798Y-144031525D01*
X136991734Y-143979362D01*
X136939856Y-143923029D01*
X136890345Y-143862413D01*
X136843380Y-143797398D01*
X136799139Y-143727868D01*
X136757804Y-143653709D01*
X136719554Y-143574806D01*
X136684567Y-143491042D01*
X136653024Y-143402304D01*
X136625104Y-143308476D01*
X136600987Y-143209443D01*
X136580852Y-143105089D01*
X136564879Y-142995299D01*
X136553247Y-142879959D01*
X136546137Y-142758953D01*
X136543727Y-142632166D01*
X136546093Y-142503459D01*
X136553066Y-142380806D01*
X136556543Y-142345181D01*
X137271570Y-142345181D01*
X138636888Y-142345181D01*
X138635457Y-142310448D01*
X138631944Y-142236447D01*
X138626868Y-142157565D01*
X138619398Y-142075206D01*
X138608702Y-141990772D01*
X138593947Y-141905665D01*
X138574303Y-141821288D01*
X138548936Y-141739043D01*
X138517017Y-141660333D01*
X138477711Y-141586561D01*
X138430189Y-141519128D01*
X138373617Y-141459437D01*
X138307165Y-141408892D01*
X138230000Y-141368894D01*
X138141290Y-141340845D01*
X138092346Y-141331740D01*
X138040204Y-141326149D01*
X137984759Y-141324246D01*
X137897565Y-141330103D01*
X137816771Y-141347177D01*
X137742224Y-141374719D01*
X137673769Y-141411982D01*
X137611254Y-141458219D01*
X137554525Y-141512680D01*
X137503426Y-141574619D01*
X137457805Y-141643288D01*
X137417508Y-141717939D01*
X137382381Y-141797824D01*
X137352270Y-141882196D01*
X137327021Y-141970306D01*
X137306480Y-142061408D01*
X137290494Y-142154753D01*
X137278909Y-142249593D01*
X137271570Y-142345181D01*
X136556543Y-142345181D01*
X136564460Y-142264077D01*
X136580089Y-142153143D01*
X136599764Y-142047875D01*
X136623301Y-141948145D01*
X136650511Y-141853823D01*
X136681209Y-141764780D01*
X136715207Y-141680887D01*
X136752318Y-141602016D01*
X136792357Y-141528036D01*
X136835136Y-141458820D01*
X136880469Y-141394238D01*
X136928169Y-141334161D01*
X136978049Y-141278460D01*
X137029922Y-141227007D01*
X137083603Y-141179671D01*
X137138903Y-141136324D01*
X137195637Y-141096837D01*
X137253617Y-141061081D01*
X137312657Y-141028927D01*
X137372571Y-141000246D01*
X137433170Y-140974909D01*
X137494270Y-140952787D01*
X137555683Y-140933750D01*
X137617222Y-140917671D01*
X137678701Y-140904419D01*
X137739932Y-140893866D01*
X137800730Y-140885882D01*
X137860907Y-140880340D01*
X137920277Y-140877109D01*
X137978653Y-140876060D01*
X138053720Y-140877600D01*
G37*
G36*
X139238946Y-142375711D02*
G01*
X139238920Y-142373992D01*
X139238946Y-142373269D01*
X139238946Y-142375711D01*
G37*
G36*
X142279770Y-141207009D02*
G01*
X142272886Y-141149367D01*
X142247004Y-141097218D01*
X142205526Y-141063457D01*
X142152307Y-141044084D01*
X142103872Y-141036261D01*
X142052367Y-141033042D01*
X141999768Y-141032381D01*
X141986678Y-141032376D01*
X141931175Y-141032605D01*
X141879334Y-141034211D01*
X141815786Y-141040873D01*
X141758448Y-141055692D01*
X141707150Y-141081931D01*
X141661720Y-141122854D01*
X141631394Y-141165145D01*
X141604200Y-141218907D01*
X141580065Y-141285516D01*
X141572687Y-141310812D01*
X141313789Y-142205963D01*
X141293990Y-142274500D01*
X141275106Y-142340912D01*
X141257116Y-142405229D01*
X141239999Y-142467479D01*
X141223732Y-142527691D01*
X141208294Y-142585896D01*
X141193663Y-142642120D01*
X141179818Y-142696395D01*
X141166737Y-142748748D01*
X141154398Y-142799208D01*
X141142779Y-142847806D01*
X141121617Y-142939529D01*
X141103076Y-143024147D01*
X141086983Y-143101895D01*
X141073164Y-143173004D01*
X141061447Y-143237707D01*
X141051657Y-143296237D01*
X141043622Y-143348825D01*
X141034477Y-143417078D01*
X141028303Y-143473272D01*
X141026804Y-143489459D01*
X141023014Y-143422788D01*
X141016278Y-143355855D01*
X141008387Y-143300380D01*
X140996813Y-143234487D01*
X140980732Y-143156687D01*
X140959320Y-143065492D01*
X140946356Y-143014406D01*
X140931751Y-142959414D01*
X140915400Y-142900328D01*
X140897201Y-142836963D01*
X140877050Y-142769133D01*
X140854845Y-142696652D01*
X140830482Y-142619334D01*
X140803859Y-142536993D01*
X140774871Y-142449442D01*
X140743417Y-142356496D01*
X140709393Y-142257969D01*
X140672696Y-142153675D01*
X140633222Y-142043427D01*
X140590870Y-141927039D01*
X140545535Y-141804326D01*
X140497115Y-141675102D01*
X140445506Y-141539180D01*
X140416951Y-141462648D01*
X140390864Y-141393984D01*
X140366619Y-141332783D01*
X140343592Y-141278641D01*
X140321159Y-141231154D01*
X140287257Y-141171516D01*
X140251180Y-141124577D01*
X140210821Y-141088973D01*
X140164071Y-141063338D01*
X140108825Y-141046309D01*
X140042975Y-141036521D01*
X139992144Y-141033345D01*
X139935038Y-141032376D01*
X139850775Y-141032376D01*
X139798740Y-141033014D01*
X139744190Y-141037481D01*
X139691764Y-141049608D01*
X139646102Y-141073222D01*
X139611844Y-141112154D01*
X139593631Y-141170232D01*
X139591877Y-141199682D01*
X139601886Y-141250073D01*
X139618237Y-141300292D01*
X139627292Y-141324246D01*
X140739819Y-144211196D01*
X140756057Y-144262449D01*
X140767468Y-144310458D01*
X140767907Y-144315000D01*
X140759948Y-144366498D01*
X140743980Y-144428611D01*
X140727850Y-144483169D01*
X140709192Y-144541543D01*
X140688936Y-144601016D01*
X140668012Y-144658871D01*
X140647350Y-144712390D01*
X140627879Y-144758858D01*
X140605378Y-144805150D01*
X140600600Y-144813255D01*
X140568554Y-144865049D01*
X140534483Y-144908245D01*
X140492651Y-144950525D01*
X140442817Y-144989599D01*
X140400042Y-145015423D01*
X140352526Y-145037190D01*
X140300166Y-145053934D01*
X140242859Y-145064689D01*
X140180503Y-145068489D01*
X140123487Y-145065817D01*
X140069975Y-145059293D01*
X140018632Y-145049834D01*
X139960634Y-145035552D01*
X139913286Y-145021090D01*
X139863039Y-145002958D01*
X139810256Y-144980744D01*
X139773838Y-144963464D01*
X139729186Y-144942691D01*
X139724990Y-144940261D01*
X139676861Y-144953914D01*
X139647023Y-144997964D01*
X139640726Y-145046507D01*
X139643551Y-145106887D01*
X139648321Y-145170516D01*
X139653241Y-145225157D01*
X139659197Y-145282201D01*
X139666086Y-145338473D01*
X139673807Y-145390796D01*
X139685218Y-145448929D01*
X139704229Y-145495914D01*
X139756331Y-145518209D01*
X139809599Y-145530998D01*
X139872935Y-145541977D01*
X139924590Y-145548945D01*
X139977893Y-145554768D01*
X140031124Y-145559392D01*
X140082562Y-145562762D01*
X140145382Y-145565211D01*
X140173175Y-145565523D01*
X140223860Y-145564366D01*
X140273552Y-145560929D01*
X140322240Y-145555268D01*
X140416557Y-145537487D01*
X140506716Y-145511452D01*
X140592621Y-145477596D01*
X140674179Y-145436349D01*
X140751294Y-145388142D01*
X140823872Y-145333406D01*
X140891817Y-145272573D01*
X140955035Y-145206074D01*
X141013431Y-145134340D01*
X141066910Y-145057802D01*
X141115378Y-144976890D01*
X141158739Y-144892037D01*
X141196899Y-144803673D01*
X141229764Y-144712230D01*
X141244180Y-144665488D01*
X142245576Y-141338900D01*
X142261429Y-141287729D01*
X142274643Y-141237447D01*
X142279770Y-141207009D01*
G37*
D11*
X139406666Y-66497419D02*
X139406666Y-65497419D01*
X139406666Y-65497419D02*
X139644761Y-65497419D01*
X139644761Y-65497419D02*
X139787618Y-65545038D01*
X139787618Y-65545038D02*
X139882856Y-65640276D01*
X139882856Y-65640276D02*
X139930475Y-65735514D01*
X139930475Y-65735514D02*
X139978094Y-65925990D01*
X139978094Y-65925990D02*
X139978094Y-66068847D01*
X139978094Y-66068847D02*
X139930475Y-66259323D01*
X139930475Y-66259323D02*
X139882856Y-66354561D01*
X139882856Y-66354561D02*
X139787618Y-66449800D01*
X139787618Y-66449800D02*
X139644761Y-66497419D01*
X139644761Y-66497419D02*
X139406666Y-66497419D01*
X140406666Y-66497419D02*
X140406666Y-65830752D01*
X140406666Y-65497419D02*
X140359047Y-65545038D01*
X140359047Y-65545038D02*
X140406666Y-65592657D01*
X140406666Y-65592657D02*
X140454285Y-65545038D01*
X140454285Y-65545038D02*
X140406666Y-65497419D01*
X140406666Y-65497419D02*
X140406666Y-65592657D01*
X140835237Y-66449800D02*
X140930475Y-66497419D01*
X140930475Y-66497419D02*
X141120951Y-66497419D01*
X141120951Y-66497419D02*
X141216189Y-66449800D01*
X141216189Y-66449800D02*
X141263808Y-66354561D01*
X141263808Y-66354561D02*
X141263808Y-66306942D01*
X141263808Y-66306942D02*
X141216189Y-66211704D01*
X141216189Y-66211704D02*
X141120951Y-66164085D01*
X141120951Y-66164085D02*
X140978094Y-66164085D01*
X140978094Y-66164085D02*
X140882856Y-66116466D01*
X140882856Y-66116466D02*
X140835237Y-66021228D01*
X140835237Y-66021228D02*
X140835237Y-65973609D01*
X140835237Y-65973609D02*
X140882856Y-65878371D01*
X140882856Y-65878371D02*
X140978094Y-65830752D01*
X140978094Y-65830752D02*
X141120951Y-65830752D01*
X141120951Y-65830752D02*
X141216189Y-65878371D01*
X141692380Y-65830752D02*
X141692380Y-66830752D01*
X141692380Y-65878371D02*
X141787618Y-65830752D01*
X141787618Y-65830752D02*
X141978094Y-65830752D01*
X141978094Y-65830752D02*
X142073332Y-65878371D01*
X142073332Y-65878371D02*
X142120951Y-65925990D01*
X142120951Y-65925990D02*
X142168570Y-66021228D01*
X142168570Y-66021228D02*
X142168570Y-66306942D01*
X142168570Y-66306942D02*
X142120951Y-66402180D01*
X142120951Y-66402180D02*
X142073332Y-66449800D01*
X142073332Y-66449800D02*
X141978094Y-66497419D01*
X141978094Y-66497419D02*
X141787618Y-66497419D01*
X141787618Y-66497419D02*
X141692380Y-66449800D01*
X142739999Y-66497419D02*
X142644761Y-66449800D01*
X142644761Y-66449800D02*
X142597142Y-66354561D01*
X142597142Y-66354561D02*
X142597142Y-65497419D01*
X143549523Y-66497419D02*
X143549523Y-65973609D01*
X143549523Y-65973609D02*
X143501904Y-65878371D01*
X143501904Y-65878371D02*
X143406666Y-65830752D01*
X143406666Y-65830752D02*
X143216190Y-65830752D01*
X143216190Y-65830752D02*
X143120952Y-65878371D01*
X143549523Y-66449800D02*
X143454285Y-66497419D01*
X143454285Y-66497419D02*
X143216190Y-66497419D01*
X143216190Y-66497419D02*
X143120952Y-66449800D01*
X143120952Y-66449800D02*
X143073333Y-66354561D01*
X143073333Y-66354561D02*
X143073333Y-66259323D01*
X143073333Y-66259323D02*
X143120952Y-66164085D01*
X143120952Y-66164085D02*
X143216190Y-66116466D01*
X143216190Y-66116466D02*
X143454285Y-66116466D01*
X143454285Y-66116466D02*
X143549523Y-66068847D01*
X143930476Y-65830752D02*
X144168571Y-66497419D01*
X144406666Y-65830752D02*
X144168571Y-66497419D01*
X144168571Y-66497419D02*
X144073333Y-66735514D01*
X144073333Y-66735514D02*
X144025714Y-66783133D01*
X144025714Y-66783133D02*
X143930476Y-66830752D01*
X141644762Y-61162300D02*
X141716190Y-61186109D01*
X141716190Y-61186109D02*
X141835238Y-61186109D01*
X141835238Y-61186109D02*
X141882857Y-61162300D01*
X141882857Y-61162300D02*
X141906666Y-61138490D01*
X141906666Y-61138490D02*
X141930476Y-61090871D01*
X141930476Y-61090871D02*
X141930476Y-61043252D01*
X141930476Y-61043252D02*
X141906666Y-60995633D01*
X141906666Y-60995633D02*
X141882857Y-60971823D01*
X141882857Y-60971823D02*
X141835238Y-60948014D01*
X141835238Y-60948014D02*
X141740000Y-60924204D01*
X141740000Y-60924204D02*
X141692381Y-60900395D01*
X141692381Y-60900395D02*
X141668571Y-60876585D01*
X141668571Y-60876585D02*
X141644762Y-60828966D01*
X141644762Y-60828966D02*
X141644762Y-60781347D01*
X141644762Y-60781347D02*
X141668571Y-60733728D01*
X141668571Y-60733728D02*
X141692381Y-60709919D01*
X141692381Y-60709919D02*
X141740000Y-60686109D01*
X141740000Y-60686109D02*
X141859047Y-60686109D01*
X141859047Y-60686109D02*
X141930476Y-60709919D01*
X142430475Y-61138490D02*
X142406666Y-61162300D01*
X142406666Y-61162300D02*
X142335237Y-61186109D01*
X142335237Y-61186109D02*
X142287618Y-61186109D01*
X142287618Y-61186109D02*
X142216190Y-61162300D01*
X142216190Y-61162300D02*
X142168571Y-61114680D01*
X142168571Y-61114680D02*
X142144761Y-61067061D01*
X142144761Y-61067061D02*
X142120952Y-60971823D01*
X142120952Y-60971823D02*
X142120952Y-60900395D01*
X142120952Y-60900395D02*
X142144761Y-60805157D01*
X142144761Y-60805157D02*
X142168571Y-60757538D01*
X142168571Y-60757538D02*
X142216190Y-60709919D01*
X142216190Y-60709919D02*
X142287618Y-60686109D01*
X142287618Y-60686109D02*
X142335237Y-60686109D01*
X142335237Y-60686109D02*
X142406666Y-60709919D01*
X142406666Y-60709919D02*
X142430475Y-60733728D01*
X142882856Y-61186109D02*
X142644761Y-61186109D01*
X142644761Y-61186109D02*
X142644761Y-60686109D01*
X136493334Y-60686109D02*
X136660000Y-61186109D01*
X136660000Y-61186109D02*
X136826667Y-60686109D01*
X137279047Y-61138490D02*
X137255238Y-61162300D01*
X137255238Y-61162300D02*
X137183809Y-61186109D01*
X137183809Y-61186109D02*
X137136190Y-61186109D01*
X137136190Y-61186109D02*
X137064762Y-61162300D01*
X137064762Y-61162300D02*
X137017143Y-61114680D01*
X137017143Y-61114680D02*
X136993333Y-61067061D01*
X136993333Y-61067061D02*
X136969524Y-60971823D01*
X136969524Y-60971823D02*
X136969524Y-60900395D01*
X136969524Y-60900395D02*
X136993333Y-60805157D01*
X136993333Y-60805157D02*
X137017143Y-60757538D01*
X137017143Y-60757538D02*
X137064762Y-60709919D01*
X137064762Y-60709919D02*
X137136190Y-60686109D01*
X137136190Y-60686109D02*
X137183809Y-60686109D01*
X137183809Y-60686109D02*
X137255238Y-60709919D01*
X137255238Y-60709919D02*
X137279047Y-60733728D01*
X137779047Y-61138490D02*
X137755238Y-61162300D01*
X137755238Y-61162300D02*
X137683809Y-61186109D01*
X137683809Y-61186109D02*
X137636190Y-61186109D01*
X137636190Y-61186109D02*
X137564762Y-61162300D01*
X137564762Y-61162300D02*
X137517143Y-61114680D01*
X137517143Y-61114680D02*
X137493333Y-61067061D01*
X137493333Y-61067061D02*
X137469524Y-60971823D01*
X137469524Y-60971823D02*
X137469524Y-60900395D01*
X137469524Y-60900395D02*
X137493333Y-60805157D01*
X137493333Y-60805157D02*
X137517143Y-60757538D01*
X137517143Y-60757538D02*
X137564762Y-60709919D01*
X137564762Y-60709919D02*
X137636190Y-60686109D01*
X137636190Y-60686109D02*
X137683809Y-60686109D01*
X137683809Y-60686109D02*
X137755238Y-60709919D01*
X137755238Y-60709919D02*
X137779047Y-60733728D01*
X144172858Y-61162300D02*
X144244286Y-61186109D01*
X144244286Y-61186109D02*
X144363334Y-61186109D01*
X144363334Y-61186109D02*
X144410953Y-61162300D01*
X144410953Y-61162300D02*
X144434762Y-61138490D01*
X144434762Y-61138490D02*
X144458572Y-61090871D01*
X144458572Y-61090871D02*
X144458572Y-61043252D01*
X144458572Y-61043252D02*
X144434762Y-60995633D01*
X144434762Y-60995633D02*
X144410953Y-60971823D01*
X144410953Y-60971823D02*
X144363334Y-60948014D01*
X144363334Y-60948014D02*
X144268096Y-60924204D01*
X144268096Y-60924204D02*
X144220477Y-60900395D01*
X144220477Y-60900395D02*
X144196667Y-60876585D01*
X144196667Y-60876585D02*
X144172858Y-60828966D01*
X144172858Y-60828966D02*
X144172858Y-60781347D01*
X144172858Y-60781347D02*
X144196667Y-60733728D01*
X144196667Y-60733728D02*
X144220477Y-60709919D01*
X144220477Y-60709919D02*
X144268096Y-60686109D01*
X144268096Y-60686109D02*
X144387143Y-60686109D01*
X144387143Y-60686109D02*
X144458572Y-60709919D01*
X144672857Y-61186109D02*
X144672857Y-60686109D01*
X144672857Y-60686109D02*
X144791905Y-60686109D01*
X144791905Y-60686109D02*
X144863333Y-60709919D01*
X144863333Y-60709919D02*
X144910952Y-60757538D01*
X144910952Y-60757538D02*
X144934762Y-60805157D01*
X144934762Y-60805157D02*
X144958571Y-60900395D01*
X144958571Y-60900395D02*
X144958571Y-60971823D01*
X144958571Y-60971823D02*
X144934762Y-61067061D01*
X144934762Y-61067061D02*
X144910952Y-61114680D01*
X144910952Y-61114680D02*
X144863333Y-61162300D01*
X144863333Y-61162300D02*
X144791905Y-61186109D01*
X144791905Y-61186109D02*
X144672857Y-61186109D01*
X145149048Y-61043252D02*
X145387143Y-61043252D01*
X145101429Y-61186109D02*
X145268095Y-60686109D01*
X145268095Y-60686109D02*
X145434762Y-61186109D01*
X139319047Y-60709919D02*
X139271428Y-60686109D01*
X139271428Y-60686109D02*
X139199999Y-60686109D01*
X139199999Y-60686109D02*
X139128571Y-60709919D01*
X139128571Y-60709919D02*
X139080952Y-60757538D01*
X139080952Y-60757538D02*
X139057142Y-60805157D01*
X139057142Y-60805157D02*
X139033333Y-60900395D01*
X139033333Y-60900395D02*
X139033333Y-60971823D01*
X139033333Y-60971823D02*
X139057142Y-61067061D01*
X139057142Y-61067061D02*
X139080952Y-61114680D01*
X139080952Y-61114680D02*
X139128571Y-61162300D01*
X139128571Y-61162300D02*
X139199999Y-61186109D01*
X139199999Y-61186109D02*
X139247618Y-61186109D01*
X139247618Y-61186109D02*
X139319047Y-61162300D01*
X139319047Y-61162300D02*
X139342856Y-61138490D01*
X139342856Y-61138490D02*
X139342856Y-60971823D01*
X139342856Y-60971823D02*
X139247618Y-60971823D01*
X139557142Y-61186109D02*
X139557142Y-60686109D01*
X139557142Y-60686109D02*
X139842856Y-61186109D01*
X139842856Y-61186109D02*
X139842856Y-60686109D01*
X140080952Y-61186109D02*
X140080952Y-60686109D01*
X140080952Y-60686109D02*
X140200000Y-60686109D01*
X140200000Y-60686109D02*
X140271428Y-60709919D01*
X140271428Y-60709919D02*
X140319047Y-60757538D01*
X140319047Y-60757538D02*
X140342857Y-60805157D01*
X140342857Y-60805157D02*
X140366666Y-60900395D01*
X140366666Y-60900395D02*
X140366666Y-60971823D01*
X140366666Y-60971823D02*
X140342857Y-61067061D01*
X140342857Y-61067061D02*
X140319047Y-61114680D01*
X140319047Y-61114680D02*
X140271428Y-61162300D01*
X140271428Y-61162300D02*
X140200000Y-61186109D01*
X140200000Y-61186109D02*
X140080952Y-61186109D01*
X159781905Y-87801704D02*
X160258095Y-87801704D01*
X159686667Y-88087419D02*
X160020000Y-87087419D01*
X160020000Y-87087419D02*
X160353333Y-88087419D01*
D10*
X166719523Y-60097200D02*
X166862380Y-60144819D01*
X166862380Y-60144819D02*
X167100475Y-60144819D01*
X167100475Y-60144819D02*
X167195713Y-60097200D01*
X167195713Y-60097200D02*
X167243332Y-60049580D01*
X167243332Y-60049580D02*
X167290951Y-59954342D01*
X167290951Y-59954342D02*
X167290951Y-59859104D01*
X167290951Y-59859104D02*
X167243332Y-59763866D01*
X167243332Y-59763866D02*
X167195713Y-59716247D01*
X167195713Y-59716247D02*
X167100475Y-59668628D01*
X167100475Y-59668628D02*
X166909999Y-59621009D01*
X166909999Y-59621009D02*
X166814761Y-59573390D01*
X166814761Y-59573390D02*
X166767142Y-59525771D01*
X166767142Y-59525771D02*
X166719523Y-59430533D01*
X166719523Y-59430533D02*
X166719523Y-59335295D01*
X166719523Y-59335295D02*
X166767142Y-59240057D01*
X166767142Y-59240057D02*
X166814761Y-59192438D01*
X166814761Y-59192438D02*
X166909999Y-59144819D01*
X166909999Y-59144819D02*
X167148094Y-59144819D01*
X167148094Y-59144819D02*
X167290951Y-59192438D01*
X168100475Y-60097200D02*
X168005237Y-60144819D01*
X168005237Y-60144819D02*
X167814761Y-60144819D01*
X167814761Y-60144819D02*
X167719523Y-60097200D01*
X167719523Y-60097200D02*
X167671904Y-60001961D01*
X167671904Y-60001961D02*
X167671904Y-59621009D01*
X167671904Y-59621009D02*
X167719523Y-59525771D01*
X167719523Y-59525771D02*
X167814761Y-59478152D01*
X167814761Y-59478152D02*
X168005237Y-59478152D01*
X168005237Y-59478152D02*
X168100475Y-59525771D01*
X168100475Y-59525771D02*
X168148094Y-59621009D01*
X168148094Y-59621009D02*
X168148094Y-59716247D01*
X168148094Y-59716247D02*
X167671904Y-59811485D01*
X168576666Y-59478152D02*
X168576666Y-60144819D01*
X168576666Y-59573390D02*
X168624285Y-59525771D01*
X168624285Y-59525771D02*
X168719523Y-59478152D01*
X168719523Y-59478152D02*
X168862380Y-59478152D01*
X168862380Y-59478152D02*
X168957618Y-59525771D01*
X168957618Y-59525771D02*
X169005237Y-59621009D01*
X169005237Y-59621009D02*
X169005237Y-60144819D01*
X169338571Y-59478152D02*
X169719523Y-59478152D01*
X169481428Y-59144819D02*
X169481428Y-60001961D01*
X169481428Y-60001961D02*
X169529047Y-60097200D01*
X169529047Y-60097200D02*
X169624285Y-60144819D01*
X169624285Y-60144819D02*
X169719523Y-60144819D01*
X170433809Y-60097200D02*
X170338571Y-60144819D01*
X170338571Y-60144819D02*
X170148095Y-60144819D01*
X170148095Y-60144819D02*
X170052857Y-60097200D01*
X170052857Y-60097200D02*
X170005238Y-60001961D01*
X170005238Y-60001961D02*
X170005238Y-59621009D01*
X170005238Y-59621009D02*
X170052857Y-59525771D01*
X170052857Y-59525771D02*
X170148095Y-59478152D01*
X170148095Y-59478152D02*
X170338571Y-59478152D01*
X170338571Y-59478152D02*
X170433809Y-59525771D01*
X170433809Y-59525771D02*
X170481428Y-59621009D01*
X170481428Y-59621009D02*
X170481428Y-59716247D01*
X170481428Y-59716247D02*
X170005238Y-59811485D01*
X170910000Y-60144819D02*
X170910000Y-59478152D01*
X170910000Y-59668628D02*
X170957619Y-59573390D01*
X170957619Y-59573390D02*
X171005238Y-59525771D01*
X171005238Y-59525771D02*
X171100476Y-59478152D01*
X171100476Y-59478152D02*
X171195714Y-59478152D01*
D11*
X135826666Y-93167419D02*
X135493333Y-92691228D01*
X135255238Y-93167419D02*
X135255238Y-92167419D01*
X135255238Y-92167419D02*
X135636190Y-92167419D01*
X135636190Y-92167419D02*
X135731428Y-92215038D01*
X135731428Y-92215038D02*
X135779047Y-92262657D01*
X135779047Y-92262657D02*
X135826666Y-92357895D01*
X135826666Y-92357895D02*
X135826666Y-92500752D01*
X135826666Y-92500752D02*
X135779047Y-92595990D01*
X135779047Y-92595990D02*
X135731428Y-92643609D01*
X135731428Y-92643609D02*
X135636190Y-92691228D01*
X135636190Y-92691228D02*
X135255238Y-92691228D01*
X136255238Y-93167419D02*
X136255238Y-92167419D01*
X137255237Y-92215038D02*
X137159999Y-92167419D01*
X137159999Y-92167419D02*
X137017142Y-92167419D01*
X137017142Y-92167419D02*
X136874285Y-92215038D01*
X136874285Y-92215038D02*
X136779047Y-92310276D01*
X136779047Y-92310276D02*
X136731428Y-92405514D01*
X136731428Y-92405514D02*
X136683809Y-92595990D01*
X136683809Y-92595990D02*
X136683809Y-92738847D01*
X136683809Y-92738847D02*
X136731428Y-92929323D01*
X136731428Y-92929323D02*
X136779047Y-93024561D01*
X136779047Y-93024561D02*
X136874285Y-93119800D01*
X136874285Y-93119800D02*
X137017142Y-93167419D01*
X137017142Y-93167419D02*
X137112380Y-93167419D01*
X137112380Y-93167419D02*
X137255237Y-93119800D01*
X137255237Y-93119800D02*
X137302856Y-93072180D01*
X137302856Y-93072180D02*
X137302856Y-92738847D01*
X137302856Y-92738847D02*
X137112380Y-92738847D01*
X137731428Y-93167419D02*
X137731428Y-92167419D01*
X137731428Y-92643609D02*
X138302856Y-92643609D01*
X138302856Y-93167419D02*
X138302856Y-92167419D01*
X138636190Y-92167419D02*
X139207618Y-92167419D01*
X138921904Y-93167419D02*
X138921904Y-92167419D01*
X120967618Y-93167419D02*
X120491428Y-93167419D01*
X120491428Y-93167419D02*
X120491428Y-92167419D01*
X121300952Y-92643609D02*
X121634285Y-92643609D01*
X121777142Y-93167419D02*
X121300952Y-93167419D01*
X121300952Y-93167419D02*
X121300952Y-92167419D01*
X121300952Y-92167419D02*
X121777142Y-92167419D01*
X122539047Y-92643609D02*
X122205714Y-92643609D01*
X122205714Y-93167419D02*
X122205714Y-92167419D01*
X122205714Y-92167419D02*
X122681904Y-92167419D01*
X122920000Y-92167419D02*
X123491428Y-92167419D01*
X123205714Y-93167419D02*
X123205714Y-92167419D01*
X127659048Y-98247419D02*
X127659048Y-97247419D01*
X127659048Y-97247419D02*
X127897143Y-97247419D01*
X127897143Y-97247419D02*
X128040000Y-97295038D01*
X128040000Y-97295038D02*
X128135238Y-97390276D01*
X128135238Y-97390276D02*
X128182857Y-97485514D01*
X128182857Y-97485514D02*
X128230476Y-97675990D01*
X128230476Y-97675990D02*
X128230476Y-97818847D01*
X128230476Y-97818847D02*
X128182857Y-98009323D01*
X128182857Y-98009323D02*
X128135238Y-98104561D01*
X128135238Y-98104561D02*
X128040000Y-98199800D01*
X128040000Y-98199800D02*
X127897143Y-98247419D01*
X127897143Y-98247419D02*
X127659048Y-98247419D01*
X128849524Y-97247419D02*
X129040000Y-97247419D01*
X129040000Y-97247419D02*
X129135238Y-97295038D01*
X129135238Y-97295038D02*
X129230476Y-97390276D01*
X129230476Y-97390276D02*
X129278095Y-97580752D01*
X129278095Y-97580752D02*
X129278095Y-97914085D01*
X129278095Y-97914085D02*
X129230476Y-98104561D01*
X129230476Y-98104561D02*
X129135238Y-98199800D01*
X129135238Y-98199800D02*
X129040000Y-98247419D01*
X129040000Y-98247419D02*
X128849524Y-98247419D01*
X128849524Y-98247419D02*
X128754286Y-98199800D01*
X128754286Y-98199800D02*
X128659048Y-98104561D01*
X128659048Y-98104561D02*
X128611429Y-97914085D01*
X128611429Y-97914085D02*
X128611429Y-97580752D01*
X128611429Y-97580752D02*
X128659048Y-97390276D01*
X128659048Y-97390276D02*
X128754286Y-97295038D01*
X128754286Y-97295038D02*
X128849524Y-97247419D01*
X129611429Y-97247419D02*
X129849524Y-98247419D01*
X129849524Y-98247419D02*
X130040000Y-97533133D01*
X130040000Y-97533133D02*
X130230476Y-98247419D01*
X130230476Y-98247419D02*
X130468572Y-97247419D01*
X130849524Y-98247419D02*
X130849524Y-97247419D01*
X130849524Y-97247419D02*
X131420952Y-98247419D01*
X131420952Y-98247419D02*
X131420952Y-97247419D01*
X128754286Y-87087419D02*
X128754286Y-87896942D01*
X128754286Y-87896942D02*
X128801905Y-87992180D01*
X128801905Y-87992180D02*
X128849524Y-88039800D01*
X128849524Y-88039800D02*
X128944762Y-88087419D01*
X128944762Y-88087419D02*
X129135238Y-88087419D01*
X129135238Y-88087419D02*
X129230476Y-88039800D01*
X129230476Y-88039800D02*
X129278095Y-87992180D01*
X129278095Y-87992180D02*
X129325714Y-87896942D01*
X129325714Y-87896942D02*
X129325714Y-87087419D01*
X129801905Y-88087419D02*
X129801905Y-87087419D01*
X129801905Y-87087419D02*
X130182857Y-87087419D01*
X130182857Y-87087419D02*
X130278095Y-87135038D01*
X130278095Y-87135038D02*
X130325714Y-87182657D01*
X130325714Y-87182657D02*
X130373333Y-87277895D01*
X130373333Y-87277895D02*
X130373333Y-87420752D01*
X130373333Y-87420752D02*
X130325714Y-87515990D01*
X130325714Y-87515990D02*
X130278095Y-87563609D01*
X130278095Y-87563609D02*
X130182857Y-87611228D01*
X130182857Y-87611228D02*
X129801905Y-87611228D01*
X152471428Y-97723609D02*
X152614285Y-97771228D01*
X152614285Y-97771228D02*
X152661904Y-97818847D01*
X152661904Y-97818847D02*
X152709523Y-97914085D01*
X152709523Y-97914085D02*
X152709523Y-98056942D01*
X152709523Y-98056942D02*
X152661904Y-98152180D01*
X152661904Y-98152180D02*
X152614285Y-98199800D01*
X152614285Y-98199800D02*
X152519047Y-98247419D01*
X152519047Y-98247419D02*
X152138095Y-98247419D01*
X152138095Y-98247419D02*
X152138095Y-97247419D01*
X152138095Y-97247419D02*
X152471428Y-97247419D01*
X152471428Y-97247419D02*
X152566666Y-97295038D01*
X152566666Y-97295038D02*
X152614285Y-97342657D01*
X152614285Y-97342657D02*
X152661904Y-97437895D01*
X152661904Y-97437895D02*
X152661904Y-97533133D01*
X152661904Y-97533133D02*
X152614285Y-97628371D01*
X152614285Y-97628371D02*
X152566666Y-97675990D01*
X152566666Y-97675990D02*
X152471428Y-97723609D01*
X152471428Y-97723609D02*
X152138095Y-97723609D01*
%TO.C,Display *%
X124460000Y-55880000D02*
X157480000Y-55880000D01*
X157480000Y-55880000D02*
X157480000Y-76200000D01*
X157480000Y-76200000D02*
X124460000Y-76200000D01*
X124460000Y-76200000D02*
X124460000Y-55880000D01*
%TO.C,A*%
X157480000Y-83820000D02*
X162560000Y-83820000D01*
X162560000Y-83820000D02*
X162560000Y-91440000D01*
X162560000Y-91440000D02*
X157480000Y-91440000D01*
X157480000Y-91440000D02*
X157480000Y-83820000D01*
D12*
%TO.C,Senter*%
X167350000Y-54644000D02*
X167350000Y-54800000D01*
X167350000Y-56960000D02*
X167350000Y-57116000D01*
X170582334Y-54801392D02*
G75*
G03*
X167350001Y-54644485I-1672334J-1078608D01*
G01*
X169951129Y-54800164D02*
G75*
G03*
X167869040Y-54800001I-1041129J-1079836D01*
G01*
X167869040Y-56959999D02*
G75*
G03*
X169951129Y-56959836I1040960J1079999D01*
G01*
X167350001Y-57115515D02*
G75*
G03*
X170582334Y-56958608I1559999J1235515D01*
G01*
D11*
%TO.C,RIGHT*%
X134620000Y-88900000D02*
X139700000Y-88900000D01*
X139700000Y-88900000D02*
X139700000Y-96520000D01*
X139700000Y-96520000D02*
X134620000Y-96520000D01*
X134620000Y-96520000D02*
X134620000Y-88900000D01*
%TO.C,LEFT*%
X119380000Y-88900000D02*
X124460000Y-88900000D01*
X124460000Y-88900000D02*
X124460000Y-96520000D01*
X124460000Y-96520000D02*
X119380000Y-96520000D01*
X119380000Y-96520000D02*
X119380000Y-88900000D01*
%TO.C,DOWN*%
X127000000Y-93980000D02*
X132080000Y-93980000D01*
X132080000Y-93980000D02*
X132080000Y-101600000D01*
X132080000Y-101600000D02*
X127000000Y-101600000D01*
X127000000Y-101600000D02*
X127000000Y-93980000D01*
%TO.C,UP*%
X127000000Y-83820000D02*
X132080000Y-83820000D01*
X132080000Y-83820000D02*
X132080000Y-91440000D01*
X132080000Y-91440000D02*
X127000000Y-91440000D01*
X127000000Y-91440000D02*
X127000000Y-83820000D01*
%TO.C,B*%
X149860000Y-93980000D02*
X154940000Y-93980000D01*
X154940000Y-93980000D02*
X154940000Y-101600000D01*
X154940000Y-101600000D02*
X149860000Y-101600000D01*
X149860000Y-101600000D02*
X149860000Y-93980000D01*
%TD*%
M02*
