%TF.GenerationSoftware,KiCad,Pcbnew,7.0.9+dfsg-1*%
%TF.CreationDate,2023-11-29T17:00:19+07:00*%
%TF.ProjectId,wifitools,77696669-746f-46f6-9c73-2e6b69636164,rev?*%
%TF.SameCoordinates,Original*%
%TF.FileFunction,Copper,L1,Top*%
%TF.FilePolarity,Positive*%
%FSLAX46Y46*%
G04 Gerber Fmt 4.6, Leading zero omitted, Abs format (unit mm)*
G04 Created by KiCad (PCBNEW 7.0.9+dfsg-1) date 2023-11-29 17:00:19*
%MOMM*%
%LPD*%
G01*
G04 APERTURE LIST*
%TA.AperFunction,NonConductor*%
%ADD10C,0.150000*%
%TD*%
%TA.AperFunction,ComponentPad*%
%ADD11C,1.524000*%
%TD*%
%TA.AperFunction,ComponentPad*%
%ADD12R,1.800000X1.800000*%
%TD*%
%TA.AperFunction,ComponentPad*%
%ADD13C,1.800000*%
%TD*%
%TA.AperFunction,Conductor*%
%ADD14C,0.250000*%
%TD*%
G04 APERTURE END LIST*
D10*
X111760000Y-53340000D02*
X113410000Y-53340000D01*
X114010000Y-53340000D02*
X114010000Y-53340000D01*
X114610000Y-53340000D02*
X114610000Y-53340000D01*
X115210000Y-53340000D02*
X116860000Y-53340000D01*
X117460000Y-53340000D02*
X117460000Y-53340000D01*
X118060000Y-53340000D02*
X118060000Y-53340000D01*
X118660000Y-53340000D02*
X120310000Y-53340000D01*
X120910000Y-53340000D02*
X120910000Y-53340000D01*
X121510000Y-53340000D02*
X121510000Y-53340000D01*
X122110000Y-53340000D02*
X123760000Y-53340000D01*
X124360000Y-53340000D02*
X124360000Y-53340000D01*
X124960000Y-53340000D02*
X124960000Y-53340000D01*
X125560000Y-53340000D02*
X127210000Y-53340000D01*
X127810000Y-53340000D02*
X127810000Y-53340000D01*
X128410000Y-53340000D02*
X128410000Y-53340000D01*
X129010000Y-53340000D02*
X130660000Y-53340000D01*
X131260000Y-53340000D02*
X131260000Y-53340000D01*
X131860000Y-53340000D02*
X131860000Y-53340000D01*
X132460000Y-53340000D02*
X134110000Y-53340000D01*
X134710000Y-53340000D02*
X134710000Y-53340000D01*
X135310000Y-53340000D02*
X135310000Y-53340000D01*
X135910000Y-53340000D02*
X137560000Y-53340000D01*
X138160000Y-53340000D02*
X138160000Y-53340000D01*
X138760000Y-53340000D02*
X138760000Y-53340000D01*
X139360000Y-53340000D02*
X141010000Y-53340000D01*
X141610000Y-53340000D02*
X141610000Y-53340000D01*
X142210000Y-53340000D02*
X142210000Y-53340000D01*
X142810000Y-53340000D02*
X144460000Y-53340000D01*
X145060000Y-53340000D02*
X145060000Y-53340000D01*
X145660000Y-53340000D02*
X145660000Y-53340000D01*
X146260000Y-53340000D02*
X147910000Y-53340000D01*
X148510000Y-53340000D02*
X148510000Y-53340000D01*
X149110000Y-53340000D02*
X149110000Y-53340000D01*
X149710000Y-53340000D02*
X151360000Y-53340000D01*
X151960000Y-53340000D02*
X151960000Y-53340000D01*
X152560000Y-53340000D02*
X152560000Y-53340000D01*
X153160000Y-53340000D02*
X154810000Y-53340000D01*
X155410000Y-53340000D02*
X155410000Y-53340000D01*
X156010000Y-53340000D02*
X156010000Y-53340000D01*
X156610000Y-53340000D02*
X158260000Y-53340000D01*
X158860000Y-53340000D02*
X158860000Y-53340000D01*
X159460000Y-53340000D02*
X159460000Y-53340000D01*
X160060000Y-53340000D02*
X161710000Y-53340000D01*
X162310000Y-53340000D02*
X162310000Y-53340000D01*
X162910000Y-53340000D02*
X162910000Y-53340000D01*
X163510000Y-53340000D02*
X165160000Y-53340000D01*
X165760000Y-53340000D02*
X165760000Y-53340000D01*
X166360000Y-53340000D02*
X166360000Y-53340000D01*
X166960000Y-53340000D02*
X168610000Y-53340000D01*
X169210000Y-53340000D02*
X169210000Y-53340000D01*
X169810000Y-53340000D02*
X169810000Y-53340000D01*
X170410000Y-53340000D02*
X172060000Y-53340000D01*
X172660000Y-53340000D02*
X172660000Y-53340000D01*
X172720000Y-53340000D02*
X172720000Y-54990000D01*
X172720000Y-55590000D02*
X172720000Y-55590000D01*
X172720000Y-56190000D02*
X172720000Y-56190000D01*
X172720000Y-56790000D02*
X172720000Y-58440000D01*
X172720000Y-59040000D02*
X172720000Y-59040000D01*
X172720000Y-59640000D02*
X172720000Y-59640000D01*
X172720000Y-60240000D02*
X172720000Y-61890000D01*
X172720000Y-62490000D02*
X172720000Y-62490000D01*
X172720000Y-63090000D02*
X172720000Y-63090000D01*
X172720000Y-63690000D02*
X172720000Y-65340000D01*
X172720000Y-65940000D02*
X172720000Y-65940000D01*
X172720000Y-66540000D02*
X172720000Y-66540000D01*
X172720000Y-67140000D02*
X172720000Y-68790000D01*
X172720000Y-69390000D02*
X172720000Y-69390000D01*
X172720000Y-69990000D02*
X172720000Y-69990000D01*
X172720000Y-70590000D02*
X172720000Y-72240000D01*
X172720000Y-72840000D02*
X172720000Y-72840000D01*
X172720000Y-73440000D02*
X172720000Y-73440000D01*
X172720000Y-74040000D02*
X172720000Y-75690000D01*
X172720000Y-76290000D02*
X172720000Y-76290000D01*
X172720000Y-76890000D02*
X172720000Y-76890000D01*
X172720000Y-77490000D02*
X172720000Y-79140000D01*
X172720000Y-79740000D02*
X172720000Y-79740000D01*
X172720000Y-80340000D02*
X172720000Y-80340000D01*
X172720000Y-80940000D02*
X172720000Y-82590000D01*
X172720000Y-83190000D02*
X172720000Y-83190000D01*
X172720000Y-83790000D02*
X172720000Y-83790000D01*
X172720000Y-84390000D02*
X172720000Y-86040000D01*
X172720000Y-86640000D02*
X172720000Y-86640000D01*
X172720000Y-87240000D02*
X172720000Y-87240000D01*
X172720000Y-87840000D02*
X172720000Y-89490000D01*
X172720000Y-90090000D02*
X172720000Y-90090000D01*
X172720000Y-90690000D02*
X172720000Y-90690000D01*
X172720000Y-91290000D02*
X172720000Y-92940000D01*
X172720000Y-93540000D02*
X172720000Y-93540000D01*
X172720000Y-94140000D02*
X172720000Y-94140000D01*
X172720000Y-94740000D02*
X172720000Y-96390000D01*
X172720000Y-96990000D02*
X172720000Y-96990000D01*
X172720000Y-97590000D02*
X172720000Y-97590000D01*
X172720000Y-98190000D02*
X172720000Y-99840000D01*
X172720000Y-100440000D02*
X172720000Y-100440000D01*
X172720000Y-101040000D02*
X172720000Y-101040000D01*
X172720000Y-101640000D02*
X172720000Y-103290000D01*
X172720000Y-103890000D02*
X172720000Y-103890000D01*
X172720000Y-104490000D02*
X172720000Y-104490000D01*
X172720000Y-105090000D02*
X172720000Y-106740000D01*
X172720000Y-107340000D02*
X172720000Y-107340000D01*
X172720000Y-107940000D02*
X172720000Y-107940000D01*
X172720000Y-108540000D02*
X172720000Y-110190000D01*
X172720000Y-110790000D02*
X172720000Y-110790000D01*
X172720000Y-111390000D02*
X172720000Y-111390000D01*
X172720000Y-111990000D02*
X172720000Y-113640000D01*
X172720000Y-114240000D02*
X172720000Y-114240000D01*
X172720000Y-114840000D02*
X172720000Y-114840000D01*
X172720000Y-115440000D02*
X172720000Y-117090000D01*
X172720000Y-117690000D02*
X172720000Y-117690000D01*
X172720000Y-118290000D02*
X172720000Y-118290000D01*
X172720000Y-118890000D02*
X172720000Y-120540000D01*
X172720000Y-121140000D02*
X172720000Y-121140000D01*
X172720000Y-121740000D02*
X172720000Y-121740000D01*
X172720000Y-122340000D02*
X172720000Y-123990000D01*
X172720000Y-124590000D02*
X172720000Y-124590000D01*
X172720000Y-125190000D02*
X172720000Y-125190000D01*
X172720000Y-125790000D02*
X172720000Y-127440000D01*
X172720000Y-128040000D02*
X172720000Y-128040000D01*
X172720000Y-128640000D02*
X172720000Y-128640000D01*
X172720000Y-129240000D02*
X172720000Y-130890000D01*
X172720000Y-131490000D02*
X172720000Y-131490000D01*
X172720000Y-132090000D02*
X172720000Y-132090000D01*
X172720000Y-132690000D02*
X172720000Y-134340000D01*
X172720000Y-134940000D02*
X172720000Y-134940000D01*
X172720000Y-135540000D02*
X172720000Y-135540000D01*
X172720000Y-136140000D02*
X172720000Y-137790000D01*
X172720000Y-138390000D02*
X172720000Y-138390000D01*
X172720000Y-138990000D02*
X172720000Y-138990000D01*
X172720000Y-139590000D02*
X172720000Y-141240000D01*
X172720000Y-141840000D02*
X172720000Y-141840000D01*
X172720000Y-142440000D02*
X172720000Y-142440000D01*
X172720000Y-143040000D02*
X172720000Y-144690000D01*
X172720000Y-145290000D02*
X172720000Y-145290000D01*
X172720000Y-145890000D02*
X172720000Y-145890000D01*
X172720000Y-146490000D02*
X172720000Y-147320000D01*
X172720000Y-147320000D02*
X171070000Y-147320000D01*
X170470000Y-147320000D02*
X170470000Y-147320000D01*
X169870000Y-147320000D02*
X169870000Y-147320000D01*
X169270000Y-147320000D02*
X167620000Y-147320000D01*
X167020000Y-147320000D02*
X167020000Y-147320000D01*
X166420000Y-147320000D02*
X166420000Y-147320000D01*
X165820000Y-147320000D02*
X164170000Y-147320000D01*
X163570000Y-147320000D02*
X163570000Y-147320000D01*
X162970000Y-147320000D02*
X162970000Y-147320000D01*
X162370000Y-147320000D02*
X160720000Y-147320000D01*
X160120000Y-147320000D02*
X160120000Y-147320000D01*
X159520000Y-147320000D02*
X159520000Y-147320000D01*
X158920000Y-147320000D02*
X157270000Y-147320000D01*
X156670000Y-147320000D02*
X156670000Y-147320000D01*
X156070000Y-147320000D02*
X156070000Y-147320000D01*
X155470000Y-147320000D02*
X153820000Y-147320000D01*
X153220000Y-147320000D02*
X153220000Y-147320000D01*
X152620000Y-147320000D02*
X152620000Y-147320000D01*
X152020000Y-147320000D02*
X150370000Y-147320000D01*
X149770000Y-147320000D02*
X149770000Y-147320000D01*
X149170000Y-147320000D02*
X149170000Y-147320000D01*
X148570000Y-147320000D02*
X146920000Y-147320000D01*
X146320000Y-147320000D02*
X146320000Y-147320000D01*
X145720000Y-147320000D02*
X145720000Y-147320000D01*
X145120000Y-147320000D02*
X143470000Y-147320000D01*
X142870000Y-147320000D02*
X142870000Y-147320000D01*
X142270000Y-147320000D02*
X142270000Y-147320000D01*
X141670000Y-147320000D02*
X140020000Y-147320000D01*
X139420000Y-147320000D02*
X139420000Y-147320000D01*
X138820000Y-147320000D02*
X138820000Y-147320000D01*
X138220000Y-147320000D02*
X136570000Y-147320000D01*
X135970000Y-147320000D02*
X135970000Y-147320000D01*
X135370000Y-147320000D02*
X135370000Y-147320000D01*
X134770000Y-147320000D02*
X133120000Y-147320000D01*
X132520000Y-147320000D02*
X132520000Y-147320000D01*
X131920000Y-147320000D02*
X131920000Y-147320000D01*
X131320000Y-147320000D02*
X129670000Y-147320000D01*
X129070000Y-147320000D02*
X129070000Y-147320000D01*
X128470000Y-147320000D02*
X128470000Y-147320000D01*
X127870000Y-147320000D02*
X126220000Y-147320000D01*
X125620000Y-147320000D02*
X125620000Y-147320000D01*
X125020000Y-147320000D02*
X125020000Y-147320000D01*
X124420000Y-147320000D02*
X122770000Y-147320000D01*
X122170000Y-147320000D02*
X122170000Y-147320000D01*
X121570000Y-147320000D02*
X121570000Y-147320000D01*
X120970000Y-147320000D02*
X119320000Y-147320000D01*
X118720000Y-147320000D02*
X118720000Y-147320000D01*
X118120000Y-147320000D02*
X118120000Y-147320000D01*
X117520000Y-147320000D02*
X115870000Y-147320000D01*
X115270000Y-147320000D02*
X115270000Y-147320000D01*
X114670000Y-147320000D02*
X114670000Y-147320000D01*
X114070000Y-147320000D02*
X112420000Y-147320000D01*
X111820000Y-147320000D02*
X111820000Y-147320000D01*
X111760000Y-147320000D02*
X111760000Y-145670000D01*
X111760000Y-145070000D02*
X111760000Y-145070000D01*
X111760000Y-144470000D02*
X111760000Y-144470000D01*
X111760000Y-143870000D02*
X111760000Y-142220000D01*
X111760000Y-141620000D02*
X111760000Y-141620000D01*
X111760000Y-141020000D02*
X111760000Y-141020000D01*
X111760000Y-140420000D02*
X111760000Y-138770000D01*
X111760000Y-138170000D02*
X111760000Y-138170000D01*
X111760000Y-137570000D02*
X111760000Y-137570000D01*
X111760000Y-136970000D02*
X111760000Y-135320000D01*
X111760000Y-134720000D02*
X111760000Y-134720000D01*
X111760000Y-134120000D02*
X111760000Y-134120000D01*
X111760000Y-133520000D02*
X111760000Y-131870000D01*
X111760000Y-131270000D02*
X111760000Y-131270000D01*
X111760000Y-130670000D02*
X111760000Y-130670000D01*
X111760000Y-130070000D02*
X111760000Y-128420000D01*
X111760000Y-127820000D02*
X111760000Y-127820000D01*
X111760000Y-127220000D02*
X111760000Y-127220000D01*
X111760000Y-126620000D02*
X111760000Y-124970000D01*
X111760000Y-124370000D02*
X111760000Y-124370000D01*
X111760000Y-123770000D02*
X111760000Y-123770000D01*
X111760000Y-123170000D02*
X111760000Y-121520000D01*
X111760000Y-120920000D02*
X111760000Y-120920000D01*
X111760000Y-120320000D02*
X111760000Y-120320000D01*
X111760000Y-119720000D02*
X111760000Y-118070000D01*
X111760000Y-117470000D02*
X111760000Y-117470000D01*
X111760000Y-116870000D02*
X111760000Y-116870000D01*
X111760000Y-116270000D02*
X111760000Y-114620000D01*
X111760000Y-114020000D02*
X111760000Y-114020000D01*
X111760000Y-113420000D02*
X111760000Y-113420000D01*
X111760000Y-112820000D02*
X111760000Y-111170000D01*
X111760000Y-110570000D02*
X111760000Y-110570000D01*
X111760000Y-109970000D02*
X111760000Y-109970000D01*
X111760000Y-109370000D02*
X111760000Y-107720000D01*
X111760000Y-107120000D02*
X111760000Y-107120000D01*
X111760000Y-106520000D02*
X111760000Y-106520000D01*
X111760000Y-105920000D02*
X111760000Y-104270000D01*
X111760000Y-103670000D02*
X111760000Y-103670000D01*
X111760000Y-103070000D02*
X111760000Y-103070000D01*
X111760000Y-102470000D02*
X111760000Y-100820000D01*
X111760000Y-100220000D02*
X111760000Y-100220000D01*
X111760000Y-99620000D02*
X111760000Y-99620000D01*
X111760000Y-99020000D02*
X111760000Y-97370000D01*
X111760000Y-96770000D02*
X111760000Y-96770000D01*
X111760000Y-96170000D02*
X111760000Y-96170000D01*
X111760000Y-95570000D02*
X111760000Y-93920000D01*
X111760000Y-93320000D02*
X111760000Y-93320000D01*
X111760000Y-92720000D02*
X111760000Y-92720000D01*
X111760000Y-92120000D02*
X111760000Y-90470000D01*
X111760000Y-89870000D02*
X111760000Y-89870000D01*
X111760000Y-89270000D02*
X111760000Y-89270000D01*
X111760000Y-88670000D02*
X111760000Y-87020000D01*
X111760000Y-86420000D02*
X111760000Y-86420000D01*
X111760000Y-85820000D02*
X111760000Y-85820000D01*
X111760000Y-85220000D02*
X111760000Y-83570000D01*
X111760000Y-82970000D02*
X111760000Y-82970000D01*
X111760000Y-82370000D02*
X111760000Y-82370000D01*
X111760000Y-81770000D02*
X111760000Y-80120000D01*
X111760000Y-79520000D02*
X111760000Y-79520000D01*
X111760000Y-78920000D02*
X111760000Y-78920000D01*
X111760000Y-78320000D02*
X111760000Y-76670000D01*
X111760000Y-76070000D02*
X111760000Y-76070000D01*
X111760000Y-75470000D02*
X111760000Y-75470000D01*
X111760000Y-74870000D02*
X111760000Y-73220000D01*
X111760000Y-72620000D02*
X111760000Y-72620000D01*
X111760000Y-72020000D02*
X111760000Y-72020000D01*
X111760000Y-71420000D02*
X111760000Y-69770000D01*
X111760000Y-69170000D02*
X111760000Y-69170000D01*
X111760000Y-68570000D02*
X111760000Y-68570000D01*
X111760000Y-67970000D02*
X111760000Y-66320000D01*
X111760000Y-65720000D02*
X111760000Y-65720000D01*
X111760000Y-65120000D02*
X111760000Y-65120000D01*
X111760000Y-64520000D02*
X111760000Y-62870000D01*
X111760000Y-62270000D02*
X111760000Y-62270000D01*
X111760000Y-61670000D02*
X111760000Y-61670000D01*
X111760000Y-61070000D02*
X111760000Y-59420000D01*
X111760000Y-58820000D02*
X111760000Y-58820000D01*
X111760000Y-58220000D02*
X111760000Y-58220000D01*
X111760000Y-57620000D02*
X111760000Y-55970000D01*
X111760000Y-55370000D02*
X111760000Y-55370000D01*
X111760000Y-54770000D02*
X111760000Y-54770000D01*
X111760000Y-54170000D02*
X111760000Y-53340000D01*
D11*
%TO.P,Display ,1*%
%TO.N,N/C*%
X137160000Y-58420000D03*
%TO.P,Display ,2*%
X139700000Y-58420000D03*
%TO.P,Display ,3*%
X142240000Y-58420000D03*
%TO.P,Display ,4*%
X144780000Y-58420000D03*
%TD*%
%TO.P,A,1*%
%TO.N,N/C*%
X160020000Y-86360000D03*
%TO.P,A,2*%
X160020000Y-88900000D03*
%TD*%
D12*
%TO.P,Senter,1*%
%TO.N,N/C*%
X167640000Y-55880000D03*
D13*
%TO.P,Senter,2*%
X170180000Y-55880000D03*
%TD*%
D11*
%TO.P,RIGHT,1*%
%TO.N,N/C*%
X137160000Y-91440000D03*
%TO.P,RIGHT,2*%
X137160000Y-93980000D03*
%TD*%
%TO.P,LEFT,1*%
%TO.N,N/C*%
X121920000Y-91440000D03*
%TO.P,LEFT,2*%
X121920000Y-93980000D03*
%TD*%
%TO.P,DOWN,1*%
%TO.N,N/C*%
X129540000Y-96520000D03*
%TO.P,DOWN,2*%
X129540000Y-99060000D03*
%TD*%
%TO.P,UP,1*%
%TO.N,N/C*%
X129540000Y-86360000D03*
%TO.P,UP,2*%
X129540000Y-88900000D03*
%TD*%
%TO.P,B,1*%
%TO.N,N/C*%
X152400000Y-96520000D03*
%TO.P,B,2*%
X152400000Y-99060000D03*
%TD*%
%TO.P,,1*%
%TO.N,N/C*%
X168910000Y-86360000D03*
%TO.P,,2*%
X168910000Y-88900000D03*
%TO.P,,3*%
X168910000Y-91440000D03*
%TO.P,,4*%
X168910000Y-93980000D03*
%TO.P,,5*%
X168910000Y-96520000D03*
%TO.P,,6*%
X168910000Y-99060000D03*
%TO.P,,7*%
X168910000Y-101600000D03*
%TO.P,,8*%
X168910000Y-104140000D03*
%TO.P,,9*%
X168910000Y-106680000D03*
%TO.P,,10*%
X168910000Y-109220000D03*
%TO.P,,11*%
X168910000Y-111760000D03*
%TO.P,,12*%
X168910000Y-114300000D03*
%TO.P,,13*%
X168910000Y-116840000D03*
%TO.P,,14*%
X168910000Y-119380000D03*
%TO.P,,15*%
X168910000Y-121920000D03*
%TO.P,,16*%
X140970000Y-121920000D03*
%TO.P,,17*%
X140970000Y-119380000D03*
%TO.P,,18*%
X140970000Y-116840000D03*
%TO.P,,19*%
X140970000Y-114300000D03*
%TO.P,,20*%
X140970000Y-111760000D03*
%TO.P,,21*%
X140970000Y-109220000D03*
%TO.P,,22*%
X140970000Y-106680000D03*
%TO.P,,23*%
X140970000Y-104140000D03*
%TO.P,,24*%
X140970000Y-101600000D03*
%TO.P,,25*%
X140970000Y-99060000D03*
%TO.P,,26*%
X140970000Y-96520000D03*
%TO.P,,27*%
X140970000Y-93980000D03*
%TO.P,,28*%
X140970000Y-91440000D03*
%TO.P,,29*%
X140970000Y-88900000D03*
%TO.P,,30*%
X140970000Y-86360000D03*
%TD*%
D14*
%TO.N,*%
X140970000Y-101600000D02*
X147320000Y-101600000D01*
X124460000Y-93980000D02*
X121920000Y-93980000D01*
X147320000Y-109220000D02*
X149860000Y-106680000D01*
X149860000Y-104140000D02*
X152400000Y-101600000D01*
X132080000Y-99060000D02*
X129540000Y-99060000D01*
X149860000Y-99060000D02*
X152400000Y-99060000D01*
X149860000Y-86360000D02*
X144780000Y-91440000D01*
X140970000Y-119380000D02*
X139700000Y-119380000D01*
X139700000Y-78740000D02*
X137160000Y-81280000D01*
X140970000Y-121920000D02*
X139700000Y-121920000D01*
X144780000Y-91440000D02*
X140970000Y-91440000D01*
X149860000Y-81280000D02*
X149860000Y-86360000D01*
X132080000Y-99060000D02*
X132080000Y-91440000D01*
X139700000Y-96520000D02*
X137160000Y-93980000D01*
X144780000Y-58420000D02*
X144780000Y-63500000D01*
X154940000Y-88900000D02*
X157480000Y-86360000D01*
X132080000Y-101600000D02*
X127000000Y-101600000D01*
X140970000Y-109220000D02*
X147320000Y-109220000D01*
X147320000Y-101600000D02*
X149860000Y-99060000D01*
X142240000Y-119380000D02*
X144780000Y-121920000D01*
X127000000Y-96520000D02*
X124460000Y-93980000D01*
X139700000Y-101600000D02*
X140970000Y-101600000D01*
X144780000Y-124460000D02*
X139700000Y-124460000D01*
X139700000Y-121920000D02*
X137160000Y-119380000D01*
X144780000Y-66040000D02*
X144780000Y-78740000D01*
X132080000Y-91440000D02*
X129540000Y-88900000D01*
X132080000Y-99060000D02*
X132080000Y-101600000D01*
X134620000Y-96520000D02*
X134620000Y-78740000D01*
X147320000Y-66040000D02*
X147320000Y-78740000D01*
X144780000Y-88900000D02*
X140970000Y-88900000D01*
X168910000Y-88900000D02*
X160020000Y-88900000D01*
X157480000Y-86360000D02*
X160020000Y-86360000D01*
X137160000Y-99060000D02*
X134620000Y-96520000D01*
X144780000Y-63500000D02*
X147320000Y-66040000D01*
X144780000Y-78740000D02*
X147320000Y-81280000D01*
X152400000Y-101600000D02*
X154940000Y-101600000D01*
X147320000Y-81280000D02*
X147320000Y-86360000D01*
X147320000Y-86360000D02*
X144780000Y-88900000D01*
X134620000Y-78740000D02*
X137160000Y-76200000D01*
X134620000Y-119380000D02*
X134620000Y-101600000D01*
X137160000Y-88900000D02*
X139700000Y-88900000D01*
X142240000Y-58420000D02*
X142240000Y-63500000D01*
X142240000Y-63500000D02*
X144780000Y-66040000D01*
X147320000Y-78740000D02*
X149860000Y-81280000D01*
X140970000Y-96520000D02*
X152400000Y-96520000D01*
X149860000Y-106680000D02*
X149860000Y-104140000D01*
X137160000Y-81280000D02*
X137160000Y-88900000D01*
X144780000Y-121920000D02*
X144780000Y-124460000D01*
X154940000Y-101600000D02*
X154940000Y-88900000D01*
X137160000Y-76200000D02*
X137160000Y-58420000D01*
X139700000Y-96520000D02*
X139700000Y-101600000D01*
X139700000Y-58420000D02*
X139700000Y-78740000D01*
X140970000Y-119380000D02*
X142240000Y-119380000D01*
X139700000Y-124460000D02*
X134620000Y-119380000D01*
X134620000Y-101600000D02*
X132080000Y-99060000D01*
X139700000Y-88900000D02*
X139700000Y-96520000D01*
X127000000Y-101600000D02*
X127000000Y-96520000D01*
X137160000Y-119380000D02*
X137160000Y-99060000D01*
%TD*%
M02*
