%TF.GenerationSoftware,KiCad,Pcbnew,7.0.9+dfsg-1*%
%TF.CreationDate,2023-12-14T21:32:30+07:00*%
%TF.ProjectId,wifi,77696669-2e6b-4696-9361-645f70636258,rev?*%
%TF.SameCoordinates,Original*%
%TF.FileFunction,Copper,L1,Top*%
%TF.FilePolarity,Positive*%
%FSLAX46Y46*%
G04 Gerber Fmt 4.6, Leading zero omitted, Abs format (unit mm)*
G04 Created by KiCad (PCBNEW 7.0.9+dfsg-1) date 2023-12-14 21:32:30*
%MOMM*%
%LPD*%
G01*
G04 APERTURE LIST*
%TA.AperFunction,NonConductor*%
%ADD10C,0.200000*%
%TD*%
%TA.AperFunction,ComponentPad*%
%ADD11C,1.800000*%
%TD*%
%TA.AperFunction,ComponentPad*%
%ADD12R,2.000000X2.000000*%
%TD*%
%TA.AperFunction,ComponentPad*%
%ADD13O,1.600000X2.000000*%
%TD*%
%TA.AperFunction,Conductor*%
%ADD14C,0.250000*%
%TD*%
G04 APERTURE END LIST*
D10*
X179070000Y-137160000D02*
X179070000Y-76200000D01*
X179070000Y-76200000D02*
X134620000Y-76200000D01*
X134620000Y-137160000D02*
X179070000Y-137160000D01*
X134620000Y-76200000D02*
X134620000Y-137160000D01*
D11*
%TO.P,UP,1*%
%TO.N,N/C*%
X143510000Y-114300000D03*
%TO.P,UP,2*%
X146050000Y-114300000D03*
%TD*%
%TO.P,LEFT,1*%
%TO.N,N/C*%
X137190000Y-120650000D03*
%TO.P,LEFT,2*%
X139730000Y-120650000D03*
%TD*%
%TO.P,DOWN,1*%
%TO.N,N/C*%
X143540000Y-127000000D03*
%TO.P,DOWN,2*%
X146080000Y-127000000D03*
%TD*%
%TO.P,RIGHT,1*%
%TO.N,N/C*%
X149890000Y-120650000D03*
%TO.P,RIGHT,2*%
X152430000Y-120650000D03*
%TD*%
%TO.P,A,1*%
%TO.N,N/C*%
X171480000Y-115570000D03*
%TO.P,A,2*%
X174020000Y-115570000D03*
%TD*%
%TO.P,B,1*%
%TO.N,N/C*%
X163860000Y-125730000D03*
%TO.P,B,2*%
X166400000Y-125730000D03*
%TD*%
%TO.P,Display,1*%
%TO.N,N/C*%
X153670000Y-81280000D03*
%TO.P,Display,2*%
X156210000Y-81280000D03*
%TO.P,Display,3*%
X158750000Y-81280000D03*
%TO.P,Display,4*%
X161290000Y-81280000D03*
%TD*%
D12*
%TO.P,REF\u002A\u002A,1*%
%TO.N,N/C*%
X166370000Y-108735000D03*
D13*
%TO.P,REF\u002A\u002A,2*%
X163830000Y-108735000D03*
%TO.P,REF\u002A\u002A,3*%
X161290000Y-108735000D03*
%TO.P,REF\u002A\u002A,4*%
X158750000Y-108735000D03*
%TO.P,REF\u002A\u002A,5*%
X156210000Y-108735000D03*
%TO.P,REF\u002A\u002A,6*%
X153670000Y-108735000D03*
%TO.P,REF\u002A\u002A,7*%
X151130000Y-108735000D03*
%TO.P,REF\u002A\u002A,8*%
X148590000Y-108735000D03*
%TO.P,REF\u002A\u002A,9*%
X148590000Y-85875000D03*
%TO.P,REF\u002A\u002A,10*%
X151130000Y-85875000D03*
%TO.P,REF\u002A\u002A,11*%
X153670000Y-85875000D03*
%TO.P,REF\u002A\u002A,12*%
X156210000Y-85875000D03*
%TO.P,REF\u002A\u002A,13*%
X158750000Y-85875000D03*
%TO.P,REF\u002A\u002A,14*%
X161290000Y-85875000D03*
%TO.P,REF\u002A\u002A,15*%
X163830000Y-85875000D03*
%TO.P,REF\u002A\u002A,16*%
X166370000Y-85875000D03*
%TD*%
D14*
%TO.N,*%
X168910000Y-113000000D02*
X171480000Y-115570000D01*
X153670000Y-85875000D02*
X153670000Y-88900000D01*
X167640000Y-106680000D02*
X168910000Y-107950000D01*
X148590000Y-128270000D02*
X148590000Y-127000000D01*
X148590000Y-106680000D02*
X146050000Y-104140000D01*
X158750000Y-111760000D02*
X158750000Y-108735000D01*
X161290000Y-83820000D02*
X163830000Y-81280000D01*
X149860000Y-115570000D02*
X142240000Y-123190000D01*
X153670000Y-108735000D02*
X153670000Y-107950000D01*
X152400000Y-83820000D02*
X151130000Y-85090000D01*
X156210000Y-114300000D02*
X158750000Y-111760000D01*
X140970000Y-127000000D02*
X143510000Y-129540000D01*
X153670000Y-113030000D02*
X149860000Y-113030000D01*
X154940000Y-90170000D02*
X162560000Y-90170000D01*
X161290000Y-81280000D02*
X158750000Y-83820000D01*
X149860000Y-81280000D02*
X153670000Y-81280000D01*
X165100000Y-92710000D02*
X165100000Y-99060000D01*
X176530000Y-110490000D02*
X176530000Y-119380000D01*
X163830000Y-80010000D02*
X158750000Y-80010000D01*
X148590000Y-127000000D02*
X144780000Y-123190000D01*
X147320000Y-129540000D02*
X148590000Y-128270000D01*
X143510000Y-114300000D02*
X140970000Y-116840000D01*
X175230000Y-120680000D02*
X168910000Y-120680000D01*
X153670000Y-88900000D02*
X154940000Y-90170000D01*
X176530000Y-119380000D02*
X175230000Y-120680000D01*
X142240000Y-123190000D02*
X142240000Y-125700000D01*
X158750000Y-83820000D02*
X158750000Y-85875000D01*
X148590000Y-108735000D02*
X148590000Y-106680000D01*
X146050000Y-85090000D02*
X149860000Y-81280000D01*
X144780000Y-123190000D02*
X151130000Y-116840000D01*
X153670000Y-83820000D02*
X152400000Y-83820000D01*
X156210000Y-110490000D02*
X153670000Y-113030000D01*
X158750000Y-80010000D02*
X158750000Y-81280000D01*
X143510000Y-129540000D02*
X147320000Y-129540000D01*
X153670000Y-107950000D02*
X154940000Y-106680000D01*
X149860000Y-113030000D02*
X149860000Y-115570000D01*
X142240000Y-125700000D02*
X143540000Y-127000000D01*
X168910000Y-107950000D02*
X168910000Y-113000000D01*
X151130000Y-116840000D02*
X151130000Y-114300000D01*
X156210000Y-108735000D02*
X156210000Y-110490000D01*
X146050000Y-104140000D02*
X146050000Y-85090000D01*
X168910000Y-120680000D02*
X163860000Y-125730000D01*
X154940000Y-106680000D02*
X167640000Y-106680000D01*
X161290000Y-85875000D02*
X161290000Y-83820000D01*
X156210000Y-81280000D02*
X153670000Y-83820000D01*
X165100000Y-99060000D02*
X176530000Y-110490000D01*
X151130000Y-85090000D02*
X151130000Y-85875000D01*
X140970000Y-116840000D02*
X140970000Y-127000000D01*
X151130000Y-114300000D02*
X156210000Y-114300000D01*
X162560000Y-90170000D02*
X165100000Y-92710000D01*
X163830000Y-81280000D02*
X163830000Y-80010000D01*
%TD*%
M02*
