%TF.GenerationSoftware,KiCad,Pcbnew,7.0.9+dfsg-1*%
%TF.CreationDate,2023-12-14T21:32:30+07:00*%
%TF.ProjectId,wifi,77696669-2e6b-4696-9361-645f70636258,rev?*%
%TF.SameCoordinates,Original*%
%TF.FileFunction,Legend,Top*%
%TF.FilePolarity,Positive*%
%FSLAX46Y46*%
G04 Gerber Fmt 4.6, Leading zero omitted, Abs format (unit mm)*
G04 Created by KiCad (PCBNEW 7.0.9+dfsg-1) date 2023-12-14 21:32:30*
%MOMM*%
%LPD*%
G01*
G04 APERTURE LIST*
%ADD10C,0.150000*%
%ADD11C,0.300000*%
%ADD12C,0.250000*%
%ADD13C,0.100000*%
G04 APERTURE END LIST*
D10*
X153670000Y-127000000D02*
X158750000Y-127000000D01*
X153670000Y-130810000D02*
X156210000Y-125730000D01*
X175260000Y-121920000D02*
X177800000Y-121920000D01*
X157480000Y-114300000D02*
X161290000Y-119380000D01*
X161290000Y-119380000D02*
X153670000Y-125730000D01*
X171450000Y-129540000D02*
X170180000Y-127000000D01*
X158750000Y-130810000D02*
X153670000Y-127000000D01*
X153670000Y-125730000D02*
X157480000Y-114300000D01*
X158750000Y-114300000D02*
G75*
G03*
X158750000Y-114300000I-1270000J0D01*
G01*
X170180000Y-127000000D02*
X175260000Y-121920000D01*
X177800000Y-121920000D02*
X171450000Y-129540000D01*
X158750000Y-127000000D02*
X153670000Y-130810000D01*
X156210000Y-125730000D02*
X158750000Y-130810000D01*
X173246051Y-129540000D02*
G75*
G03*
X173246051Y-129540000I-1796051J0D01*
G01*
D11*
X151531428Y-134028328D02*
X151531428Y-132528328D01*
X151531428Y-132528328D02*
X151888571Y-132528328D01*
X151888571Y-132528328D02*
X152102857Y-132599757D01*
X152102857Y-132599757D02*
X152245714Y-132742614D01*
X152245714Y-132742614D02*
X152317143Y-132885471D01*
X152317143Y-132885471D02*
X152388571Y-133171185D01*
X152388571Y-133171185D02*
X152388571Y-133385471D01*
X152388571Y-133385471D02*
X152317143Y-133671185D01*
X152317143Y-133671185D02*
X152245714Y-133814042D01*
X152245714Y-133814042D02*
X152102857Y-133956900D01*
X152102857Y-133956900D02*
X151888571Y-134028328D01*
X151888571Y-134028328D02*
X151531428Y-134028328D01*
X152888571Y-134028328D02*
X153674286Y-133028328D01*
X152888571Y-133028328D02*
X153674286Y-134028328D01*
X154888572Y-133028328D02*
X154888572Y-134028328D01*
X154531429Y-132456900D02*
X154174286Y-133528328D01*
X154174286Y-133528328D02*
X155102857Y-133528328D01*
X155531428Y-132528328D02*
X155888571Y-134028328D01*
X155888571Y-134028328D02*
X156174285Y-132956900D01*
X156174285Y-132956900D02*
X156460000Y-134028328D01*
X156460000Y-134028328D02*
X156817143Y-132528328D01*
X157388571Y-134028328D02*
X157388571Y-132528328D01*
X158031429Y-134028328D02*
X158031429Y-133242614D01*
X158031429Y-133242614D02*
X157960000Y-133099757D01*
X157960000Y-133099757D02*
X157817143Y-133028328D01*
X157817143Y-133028328D02*
X157602857Y-133028328D01*
X157602857Y-133028328D02*
X157460000Y-133099757D01*
X157460000Y-133099757D02*
X157388571Y-133171185D01*
X158745714Y-134028328D02*
X158745714Y-133028328D01*
X158745714Y-132528328D02*
X158674286Y-132599757D01*
X158674286Y-132599757D02*
X158745714Y-132671185D01*
X158745714Y-132671185D02*
X158817143Y-132599757D01*
X158817143Y-132599757D02*
X158745714Y-132528328D01*
X158745714Y-132528328D02*
X158745714Y-132671185D01*
X159245715Y-133028328D02*
X159817143Y-133028328D01*
X159460000Y-132528328D02*
X159460000Y-133814042D01*
X159460000Y-133814042D02*
X159531429Y-133956900D01*
X159531429Y-133956900D02*
X159674286Y-134028328D01*
X159674286Y-134028328D02*
X159817143Y-134028328D01*
X160888572Y-133956900D02*
X160745715Y-134028328D01*
X160745715Y-134028328D02*
X160460001Y-134028328D01*
X160460001Y-134028328D02*
X160317143Y-133956900D01*
X160317143Y-133956900D02*
X160245715Y-133814042D01*
X160245715Y-133814042D02*
X160245715Y-133242614D01*
X160245715Y-133242614D02*
X160317143Y-133099757D01*
X160317143Y-133099757D02*
X160460001Y-133028328D01*
X160460001Y-133028328D02*
X160745715Y-133028328D01*
X160745715Y-133028328D02*
X160888572Y-133099757D01*
X160888572Y-133099757D02*
X160960001Y-133242614D01*
X160960001Y-133242614D02*
X160960001Y-133385471D01*
X160960001Y-133385471D02*
X160245715Y-133528328D01*
D12*
X151579619Y-105706003D02*
X151103428Y-106039336D01*
X151579619Y-106277431D02*
X150579619Y-106277431D01*
X150579619Y-106277431D02*
X150579619Y-105896479D01*
X150579619Y-105896479D02*
X150627238Y-105801241D01*
X150627238Y-105801241D02*
X150674857Y-105753622D01*
X150674857Y-105753622D02*
X150770095Y-105706003D01*
X150770095Y-105706003D02*
X150912952Y-105706003D01*
X150912952Y-105706003D02*
X151008190Y-105753622D01*
X151008190Y-105753622D02*
X151055809Y-105801241D01*
X151055809Y-105801241D02*
X151103428Y-105896479D01*
X151103428Y-105896479D02*
X151103428Y-106277431D01*
X151579619Y-105277431D02*
X150579619Y-105277431D01*
X150627238Y-104277432D02*
X150579619Y-104372670D01*
X150579619Y-104372670D02*
X150579619Y-104515527D01*
X150579619Y-104515527D02*
X150627238Y-104658384D01*
X150627238Y-104658384D02*
X150722476Y-104753622D01*
X150722476Y-104753622D02*
X150817714Y-104801241D01*
X150817714Y-104801241D02*
X151008190Y-104848860D01*
X151008190Y-104848860D02*
X151151047Y-104848860D01*
X151151047Y-104848860D02*
X151341523Y-104801241D01*
X151341523Y-104801241D02*
X151436761Y-104753622D01*
X151436761Y-104753622D02*
X151532000Y-104658384D01*
X151532000Y-104658384D02*
X151579619Y-104515527D01*
X151579619Y-104515527D02*
X151579619Y-104420289D01*
X151579619Y-104420289D02*
X151532000Y-104277432D01*
X151532000Y-104277432D02*
X151484380Y-104229813D01*
X151484380Y-104229813D02*
X151151047Y-104229813D01*
X151151047Y-104229813D02*
X151151047Y-104420289D01*
X151579619Y-103801241D02*
X150579619Y-103801241D01*
X151055809Y-103801241D02*
X151055809Y-103229813D01*
X151579619Y-103229813D02*
X150579619Y-103229813D01*
X150579619Y-102896479D02*
X150579619Y-102325051D01*
X151579619Y-102610765D02*
X150579619Y-102610765D01*
X150532000Y-100515527D02*
X151817714Y-101372669D01*
X151579619Y-98944098D02*
X151579619Y-99420288D01*
X151579619Y-99420288D02*
X150579619Y-99420288D01*
X151579619Y-98610764D02*
X150579619Y-98610764D01*
X150627238Y-97610765D02*
X150579619Y-97706003D01*
X150579619Y-97706003D02*
X150579619Y-97848860D01*
X150579619Y-97848860D02*
X150627238Y-97991717D01*
X150627238Y-97991717D02*
X150722476Y-98086955D01*
X150722476Y-98086955D02*
X150817714Y-98134574D01*
X150817714Y-98134574D02*
X151008190Y-98182193D01*
X151008190Y-98182193D02*
X151151047Y-98182193D01*
X151151047Y-98182193D02*
X151341523Y-98134574D01*
X151341523Y-98134574D02*
X151436761Y-98086955D01*
X151436761Y-98086955D02*
X151532000Y-97991717D01*
X151532000Y-97991717D02*
X151579619Y-97848860D01*
X151579619Y-97848860D02*
X151579619Y-97753622D01*
X151579619Y-97753622D02*
X151532000Y-97610765D01*
X151532000Y-97610765D02*
X151484380Y-97563146D01*
X151484380Y-97563146D02*
X151151047Y-97563146D01*
X151151047Y-97563146D02*
X151151047Y-97753622D01*
X151579619Y-97134574D02*
X150579619Y-97134574D01*
X151055809Y-97134574D02*
X151055809Y-96563146D01*
X151579619Y-96563146D02*
X150579619Y-96563146D01*
X150579619Y-96229812D02*
X150579619Y-95658384D01*
X151579619Y-95944098D02*
X150579619Y-95944098D01*
X153595809Y-87558571D02*
X153643428Y-87415714D01*
X153643428Y-87415714D02*
X153691047Y-87368095D01*
X153691047Y-87368095D02*
X153786285Y-87320476D01*
X153786285Y-87320476D02*
X153929142Y-87320476D01*
X153929142Y-87320476D02*
X154024380Y-87368095D01*
X154024380Y-87368095D02*
X154072000Y-87415714D01*
X154072000Y-87415714D02*
X154119619Y-87510952D01*
X154119619Y-87510952D02*
X154119619Y-87891904D01*
X154119619Y-87891904D02*
X153119619Y-87891904D01*
X153119619Y-87891904D02*
X153119619Y-87558571D01*
X153119619Y-87558571D02*
X153167238Y-87463333D01*
X153167238Y-87463333D02*
X153214857Y-87415714D01*
X153214857Y-87415714D02*
X153310095Y-87368095D01*
X153310095Y-87368095D02*
X153405333Y-87368095D01*
X153405333Y-87368095D02*
X153500571Y-87415714D01*
X153500571Y-87415714D02*
X153548190Y-87463333D01*
X153548190Y-87463333D02*
X153595809Y-87558571D01*
X153595809Y-87558571D02*
X153595809Y-87891904D01*
X156659619Y-106277431D02*
X155659619Y-106277431D01*
X155659619Y-106277431D02*
X155659619Y-106039336D01*
X155659619Y-106039336D02*
X155707238Y-105896479D01*
X155707238Y-105896479D02*
X155802476Y-105801241D01*
X155802476Y-105801241D02*
X155897714Y-105753622D01*
X155897714Y-105753622D02*
X156088190Y-105706003D01*
X156088190Y-105706003D02*
X156231047Y-105706003D01*
X156231047Y-105706003D02*
X156421523Y-105753622D01*
X156421523Y-105753622D02*
X156516761Y-105801241D01*
X156516761Y-105801241D02*
X156612000Y-105896479D01*
X156612000Y-105896479D02*
X156659619Y-106039336D01*
X156659619Y-106039336D02*
X156659619Y-106277431D01*
X155659619Y-105086955D02*
X155659619Y-104896479D01*
X155659619Y-104896479D02*
X155707238Y-104801241D01*
X155707238Y-104801241D02*
X155802476Y-104706003D01*
X155802476Y-104706003D02*
X155992952Y-104658384D01*
X155992952Y-104658384D02*
X156326285Y-104658384D01*
X156326285Y-104658384D02*
X156516761Y-104706003D01*
X156516761Y-104706003D02*
X156612000Y-104801241D01*
X156612000Y-104801241D02*
X156659619Y-104896479D01*
X156659619Y-104896479D02*
X156659619Y-105086955D01*
X156659619Y-105086955D02*
X156612000Y-105182193D01*
X156612000Y-105182193D02*
X156516761Y-105277431D01*
X156516761Y-105277431D02*
X156326285Y-105325050D01*
X156326285Y-105325050D02*
X155992952Y-105325050D01*
X155992952Y-105325050D02*
X155802476Y-105277431D01*
X155802476Y-105277431D02*
X155707238Y-105182193D01*
X155707238Y-105182193D02*
X155659619Y-105086955D01*
X155659619Y-104325050D02*
X156659619Y-104086955D01*
X156659619Y-104086955D02*
X155945333Y-103896479D01*
X155945333Y-103896479D02*
X156659619Y-103706003D01*
X156659619Y-103706003D02*
X155659619Y-103467908D01*
X156659619Y-103086955D02*
X155659619Y-103086955D01*
X155659619Y-103086955D02*
X156659619Y-102515527D01*
X156659619Y-102515527D02*
X155659619Y-102515527D01*
X158199619Y-106277431D02*
X159009142Y-106277431D01*
X159009142Y-106277431D02*
X159104380Y-106229812D01*
X159104380Y-106229812D02*
X159152000Y-106182193D01*
X159152000Y-106182193D02*
X159199619Y-106086955D01*
X159199619Y-106086955D02*
X159199619Y-105896479D01*
X159199619Y-105896479D02*
X159152000Y-105801241D01*
X159152000Y-105801241D02*
X159104380Y-105753622D01*
X159104380Y-105753622D02*
X159009142Y-105706003D01*
X159009142Y-105706003D02*
X158199619Y-105706003D01*
X159199619Y-105229812D02*
X158199619Y-105229812D01*
X158199619Y-105229812D02*
X158199619Y-104848860D01*
X158199619Y-104848860D02*
X158247238Y-104753622D01*
X158247238Y-104753622D02*
X158294857Y-104706003D01*
X158294857Y-104706003D02*
X158390095Y-104658384D01*
X158390095Y-104658384D02*
X158532952Y-104658384D01*
X158532952Y-104658384D02*
X158628190Y-104706003D01*
X158628190Y-104706003D02*
X158675809Y-104753622D01*
X158675809Y-104753622D02*
X158723428Y-104848860D01*
X158723428Y-104848860D02*
X158723428Y-105229812D01*
X161739619Y-105801241D02*
X161739619Y-106277431D01*
X161739619Y-106277431D02*
X160739619Y-106277431D01*
X161215809Y-105467907D02*
X161215809Y-105134574D01*
X161739619Y-104991717D02*
X161739619Y-105467907D01*
X161739619Y-105467907D02*
X160739619Y-105467907D01*
X160739619Y-105467907D02*
X160739619Y-104991717D01*
X161215809Y-104229812D02*
X161215809Y-104563145D01*
X161739619Y-104563145D02*
X160739619Y-104563145D01*
X160739619Y-104563145D02*
X160739619Y-104086955D01*
X160739619Y-103848859D02*
X160739619Y-103277431D01*
X161739619Y-103563145D02*
X160739619Y-103563145D01*
D11*
X136960828Y-106125489D02*
X135460828Y-106125489D01*
X136175114Y-106125489D02*
X136175114Y-105268346D01*
X136960828Y-105268346D02*
X135460828Y-105268346D01*
X136960828Y-103911203D02*
X136175114Y-103911203D01*
X136175114Y-103911203D02*
X136032257Y-103982631D01*
X136032257Y-103982631D02*
X135960828Y-104125488D01*
X135960828Y-104125488D02*
X135960828Y-104411203D01*
X135960828Y-104411203D02*
X136032257Y-104554060D01*
X136889400Y-103911203D02*
X136960828Y-104054060D01*
X136960828Y-104054060D02*
X136960828Y-104411203D01*
X136960828Y-104411203D02*
X136889400Y-104554060D01*
X136889400Y-104554060D02*
X136746542Y-104625488D01*
X136746542Y-104625488D02*
X136603685Y-104625488D01*
X136603685Y-104625488D02*
X136460828Y-104554060D01*
X136460828Y-104554060D02*
X136389400Y-104411203D01*
X136389400Y-104411203D02*
X136389400Y-104054060D01*
X136389400Y-104054060D02*
X136317971Y-103911203D01*
X136960828Y-103196917D02*
X135960828Y-103196917D01*
X136246542Y-103196917D02*
X136103685Y-103125488D01*
X136103685Y-103125488D02*
X136032257Y-103054060D01*
X136032257Y-103054060D02*
X135960828Y-102911202D01*
X135960828Y-102911202D02*
X135960828Y-102768345D01*
X136960828Y-101625489D02*
X135460828Y-101625489D01*
X136889400Y-101625489D02*
X136960828Y-101768346D01*
X136960828Y-101768346D02*
X136960828Y-102054060D01*
X136960828Y-102054060D02*
X136889400Y-102196917D01*
X136889400Y-102196917D02*
X136817971Y-102268346D01*
X136817971Y-102268346D02*
X136675114Y-102339774D01*
X136675114Y-102339774D02*
X136246542Y-102339774D01*
X136246542Y-102339774D02*
X136103685Y-102268346D01*
X136103685Y-102268346D02*
X136032257Y-102196917D01*
X136032257Y-102196917D02*
X135960828Y-102054060D01*
X135960828Y-102054060D02*
X135960828Y-101768346D01*
X135960828Y-101768346D02*
X136032257Y-101625489D01*
X135960828Y-101054060D02*
X136960828Y-100768346D01*
X136960828Y-100768346D02*
X136246542Y-100482631D01*
X136246542Y-100482631D02*
X136960828Y-100196917D01*
X136960828Y-100196917D02*
X135960828Y-99911203D01*
X136960828Y-98696917D02*
X136175114Y-98696917D01*
X136175114Y-98696917D02*
X136032257Y-98768345D01*
X136032257Y-98768345D02*
X135960828Y-98911202D01*
X135960828Y-98911202D02*
X135960828Y-99196917D01*
X135960828Y-99196917D02*
X136032257Y-99339774D01*
X136889400Y-98696917D02*
X136960828Y-98839774D01*
X136960828Y-98839774D02*
X136960828Y-99196917D01*
X136960828Y-99196917D02*
X136889400Y-99339774D01*
X136889400Y-99339774D02*
X136746542Y-99411202D01*
X136746542Y-99411202D02*
X136603685Y-99411202D01*
X136603685Y-99411202D02*
X136460828Y-99339774D01*
X136460828Y-99339774D02*
X136389400Y-99196917D01*
X136389400Y-99196917D02*
X136389400Y-98839774D01*
X136389400Y-98839774D02*
X136317971Y-98696917D01*
X136960828Y-97982631D02*
X135960828Y-97982631D01*
X136246542Y-97982631D02*
X136103685Y-97911202D01*
X136103685Y-97911202D02*
X136032257Y-97839774D01*
X136032257Y-97839774D02*
X135960828Y-97696916D01*
X135960828Y-97696916D02*
X135960828Y-97554059D01*
X136889400Y-96482631D02*
X136960828Y-96625488D01*
X136960828Y-96625488D02*
X136960828Y-96911203D01*
X136960828Y-96911203D02*
X136889400Y-97054060D01*
X136889400Y-97054060D02*
X136746542Y-97125488D01*
X136746542Y-97125488D02*
X136175114Y-97125488D01*
X136175114Y-97125488D02*
X136032257Y-97054060D01*
X136032257Y-97054060D02*
X135960828Y-96911203D01*
X135960828Y-96911203D02*
X135960828Y-96625488D01*
X135960828Y-96625488D02*
X136032257Y-96482631D01*
X136032257Y-96482631D02*
X136175114Y-96411203D01*
X136175114Y-96411203D02*
X136317971Y-96411203D01*
X136317971Y-96411203D02*
X136460828Y-97125488D01*
X136175114Y-94125489D02*
X136246542Y-93911203D01*
X136246542Y-93911203D02*
X136317971Y-93839774D01*
X136317971Y-93839774D02*
X136460828Y-93768346D01*
X136460828Y-93768346D02*
X136675114Y-93768346D01*
X136675114Y-93768346D02*
X136817971Y-93839774D01*
X136817971Y-93839774D02*
X136889400Y-93911203D01*
X136889400Y-93911203D02*
X136960828Y-94054060D01*
X136960828Y-94054060D02*
X136960828Y-94625489D01*
X136960828Y-94625489D02*
X135460828Y-94625489D01*
X135460828Y-94625489D02*
X135460828Y-94125489D01*
X135460828Y-94125489D02*
X135532257Y-93982632D01*
X135532257Y-93982632D02*
X135603685Y-93911203D01*
X135603685Y-93911203D02*
X135746542Y-93839774D01*
X135746542Y-93839774D02*
X135889400Y-93839774D01*
X135889400Y-93839774D02*
X136032257Y-93911203D01*
X136032257Y-93911203D02*
X136103685Y-93982632D01*
X136103685Y-93982632D02*
X136175114Y-94125489D01*
X136175114Y-94125489D02*
X136175114Y-94625489D01*
X135960828Y-93268346D02*
X136960828Y-92911203D01*
X135960828Y-92554060D02*
X136960828Y-92911203D01*
X136960828Y-92911203D02*
X137317971Y-93054060D01*
X137317971Y-93054060D02*
X137389400Y-93125489D01*
X137389400Y-93125489D02*
X137460828Y-93268346D01*
X136960828Y-90839775D02*
X135460828Y-90839775D01*
X135460828Y-90839775D02*
X135460828Y-90482632D01*
X135460828Y-90482632D02*
X135532257Y-90268346D01*
X135532257Y-90268346D02*
X135675114Y-90125489D01*
X135675114Y-90125489D02*
X135817971Y-90054060D01*
X135817971Y-90054060D02*
X136103685Y-89982632D01*
X136103685Y-89982632D02*
X136317971Y-89982632D01*
X136317971Y-89982632D02*
X136603685Y-90054060D01*
X136603685Y-90054060D02*
X136746542Y-90125489D01*
X136746542Y-90125489D02*
X136889400Y-90268346D01*
X136889400Y-90268346D02*
X136960828Y-90482632D01*
X136960828Y-90482632D02*
X136960828Y-90839775D01*
X136960828Y-89482632D02*
X135960828Y-88696918D01*
X135960828Y-89482632D02*
X136960828Y-88696918D01*
X135960828Y-87482632D02*
X136960828Y-87482632D01*
X135389400Y-87839774D02*
X136460828Y-88196917D01*
X136460828Y-88196917D02*
X136460828Y-87268346D01*
D12*
X153833904Y-106325050D02*
X153833904Y-105848860D01*
X154119619Y-106420288D02*
X153119619Y-106086955D01*
X153119619Y-106086955D02*
X154119619Y-105753622D01*
D13*
X143964286Y-111957419D02*
X143964286Y-112766942D01*
X143964286Y-112766942D02*
X144011905Y-112862180D01*
X144011905Y-112862180D02*
X144059524Y-112909800D01*
X144059524Y-112909800D02*
X144154762Y-112957419D01*
X144154762Y-112957419D02*
X144345238Y-112957419D01*
X144345238Y-112957419D02*
X144440476Y-112909800D01*
X144440476Y-112909800D02*
X144488095Y-112862180D01*
X144488095Y-112862180D02*
X144535714Y-112766942D01*
X144535714Y-112766942D02*
X144535714Y-111957419D01*
X145011905Y-112957419D02*
X145011905Y-111957419D01*
X145011905Y-111957419D02*
X145392857Y-111957419D01*
X145392857Y-111957419D02*
X145488095Y-112005038D01*
X145488095Y-112005038D02*
X145535714Y-112052657D01*
X145535714Y-112052657D02*
X145583333Y-112147895D01*
X145583333Y-112147895D02*
X145583333Y-112290752D01*
X145583333Y-112290752D02*
X145535714Y-112385990D01*
X145535714Y-112385990D02*
X145488095Y-112433609D01*
X145488095Y-112433609D02*
X145392857Y-112481228D01*
X145392857Y-112481228D02*
X145011905Y-112481228D01*
X137477618Y-119307419D02*
X137001428Y-119307419D01*
X137001428Y-119307419D02*
X137001428Y-118307419D01*
X137810952Y-118783609D02*
X138144285Y-118783609D01*
X138287142Y-119307419D02*
X137810952Y-119307419D01*
X137810952Y-119307419D02*
X137810952Y-118307419D01*
X137810952Y-118307419D02*
X138287142Y-118307419D01*
X139049047Y-118783609D02*
X138715714Y-118783609D01*
X138715714Y-119307419D02*
X138715714Y-118307419D01*
X138715714Y-118307419D02*
X139191904Y-118307419D01*
X139430000Y-118307419D02*
X140001428Y-118307419D01*
X139715714Y-119307419D02*
X139715714Y-118307419D01*
X142899048Y-125657419D02*
X142899048Y-124657419D01*
X142899048Y-124657419D02*
X143137143Y-124657419D01*
X143137143Y-124657419D02*
X143280000Y-124705038D01*
X143280000Y-124705038D02*
X143375238Y-124800276D01*
X143375238Y-124800276D02*
X143422857Y-124895514D01*
X143422857Y-124895514D02*
X143470476Y-125085990D01*
X143470476Y-125085990D02*
X143470476Y-125228847D01*
X143470476Y-125228847D02*
X143422857Y-125419323D01*
X143422857Y-125419323D02*
X143375238Y-125514561D01*
X143375238Y-125514561D02*
X143280000Y-125609800D01*
X143280000Y-125609800D02*
X143137143Y-125657419D01*
X143137143Y-125657419D02*
X142899048Y-125657419D01*
X144089524Y-124657419D02*
X144280000Y-124657419D01*
X144280000Y-124657419D02*
X144375238Y-124705038D01*
X144375238Y-124705038D02*
X144470476Y-124800276D01*
X144470476Y-124800276D02*
X144518095Y-124990752D01*
X144518095Y-124990752D02*
X144518095Y-125324085D01*
X144518095Y-125324085D02*
X144470476Y-125514561D01*
X144470476Y-125514561D02*
X144375238Y-125609800D01*
X144375238Y-125609800D02*
X144280000Y-125657419D01*
X144280000Y-125657419D02*
X144089524Y-125657419D01*
X144089524Y-125657419D02*
X143994286Y-125609800D01*
X143994286Y-125609800D02*
X143899048Y-125514561D01*
X143899048Y-125514561D02*
X143851429Y-125324085D01*
X143851429Y-125324085D02*
X143851429Y-124990752D01*
X143851429Y-124990752D02*
X143899048Y-124800276D01*
X143899048Y-124800276D02*
X143994286Y-124705038D01*
X143994286Y-124705038D02*
X144089524Y-124657419D01*
X144851429Y-124657419D02*
X145089524Y-125657419D01*
X145089524Y-125657419D02*
X145280000Y-124943133D01*
X145280000Y-124943133D02*
X145470476Y-125657419D01*
X145470476Y-125657419D02*
X145708572Y-124657419D01*
X146089524Y-125657419D02*
X146089524Y-124657419D01*
X146089524Y-124657419D02*
X146660952Y-125657419D01*
X146660952Y-125657419D02*
X146660952Y-124657419D01*
X149796666Y-119307419D02*
X149463333Y-118831228D01*
X149225238Y-119307419D02*
X149225238Y-118307419D01*
X149225238Y-118307419D02*
X149606190Y-118307419D01*
X149606190Y-118307419D02*
X149701428Y-118355038D01*
X149701428Y-118355038D02*
X149749047Y-118402657D01*
X149749047Y-118402657D02*
X149796666Y-118497895D01*
X149796666Y-118497895D02*
X149796666Y-118640752D01*
X149796666Y-118640752D02*
X149749047Y-118735990D01*
X149749047Y-118735990D02*
X149701428Y-118783609D01*
X149701428Y-118783609D02*
X149606190Y-118831228D01*
X149606190Y-118831228D02*
X149225238Y-118831228D01*
X150225238Y-119307419D02*
X150225238Y-118307419D01*
X151225237Y-118355038D02*
X151129999Y-118307419D01*
X151129999Y-118307419D02*
X150987142Y-118307419D01*
X150987142Y-118307419D02*
X150844285Y-118355038D01*
X150844285Y-118355038D02*
X150749047Y-118450276D01*
X150749047Y-118450276D02*
X150701428Y-118545514D01*
X150701428Y-118545514D02*
X150653809Y-118735990D01*
X150653809Y-118735990D02*
X150653809Y-118878847D01*
X150653809Y-118878847D02*
X150701428Y-119069323D01*
X150701428Y-119069323D02*
X150749047Y-119164561D01*
X150749047Y-119164561D02*
X150844285Y-119259800D01*
X150844285Y-119259800D02*
X150987142Y-119307419D01*
X150987142Y-119307419D02*
X151082380Y-119307419D01*
X151082380Y-119307419D02*
X151225237Y-119259800D01*
X151225237Y-119259800D02*
X151272856Y-119212180D01*
X151272856Y-119212180D02*
X151272856Y-118878847D01*
X151272856Y-118878847D02*
X151082380Y-118878847D01*
X151701428Y-119307419D02*
X151701428Y-118307419D01*
X151701428Y-118783609D02*
X152272856Y-118783609D01*
X152272856Y-119307419D02*
X152272856Y-118307419D01*
X152606190Y-118307419D02*
X153177618Y-118307419D01*
X152891904Y-119307419D02*
X152891904Y-118307419D01*
X172481905Y-113941704D02*
X172958095Y-113941704D01*
X172386667Y-114227419D02*
X172720000Y-113227419D01*
X172720000Y-113227419D02*
X173053333Y-114227419D01*
X165171428Y-123863609D02*
X165314285Y-123911228D01*
X165314285Y-123911228D02*
X165361904Y-123958847D01*
X165361904Y-123958847D02*
X165409523Y-124054085D01*
X165409523Y-124054085D02*
X165409523Y-124196942D01*
X165409523Y-124196942D02*
X165361904Y-124292180D01*
X165361904Y-124292180D02*
X165314285Y-124339800D01*
X165314285Y-124339800D02*
X165219047Y-124387419D01*
X165219047Y-124387419D02*
X164838095Y-124387419D01*
X164838095Y-124387419D02*
X164838095Y-123387419D01*
X164838095Y-123387419D02*
X165171428Y-123387419D01*
X165171428Y-123387419D02*
X165266666Y-123435038D01*
X165266666Y-123435038D02*
X165314285Y-123482657D01*
X165314285Y-123482657D02*
X165361904Y-123577895D01*
X165361904Y-123577895D02*
X165361904Y-123673133D01*
X165361904Y-123673133D02*
X165314285Y-123768371D01*
X165314285Y-123768371D02*
X165266666Y-123815990D01*
X165266666Y-123815990D02*
X165171428Y-123863609D01*
X165171428Y-123863609D02*
X164838095Y-123863609D01*
X160440000Y-83695800D02*
X160540000Y-83729133D01*
X160540000Y-83729133D02*
X160706667Y-83729133D01*
X160706667Y-83729133D02*
X160773333Y-83695800D01*
X160773333Y-83695800D02*
X160806667Y-83662466D01*
X160806667Y-83662466D02*
X160840000Y-83595800D01*
X160840000Y-83595800D02*
X160840000Y-83529133D01*
X160840000Y-83529133D02*
X160806667Y-83462466D01*
X160806667Y-83462466D02*
X160773333Y-83429133D01*
X160773333Y-83429133D02*
X160706667Y-83395800D01*
X160706667Y-83395800D02*
X160573333Y-83362466D01*
X160573333Y-83362466D02*
X160506667Y-83329133D01*
X160506667Y-83329133D02*
X160473333Y-83295800D01*
X160473333Y-83295800D02*
X160440000Y-83229133D01*
X160440000Y-83229133D02*
X160440000Y-83162466D01*
X160440000Y-83162466D02*
X160473333Y-83095800D01*
X160473333Y-83095800D02*
X160506667Y-83062466D01*
X160506667Y-83062466D02*
X160573333Y-83029133D01*
X160573333Y-83029133D02*
X160740000Y-83029133D01*
X160740000Y-83029133D02*
X160840000Y-83062466D01*
X161140000Y-83729133D02*
X161140000Y-83029133D01*
X161140000Y-83029133D02*
X161306667Y-83029133D01*
X161306667Y-83029133D02*
X161406667Y-83062466D01*
X161406667Y-83062466D02*
X161473334Y-83129133D01*
X161473334Y-83129133D02*
X161506667Y-83195800D01*
X161506667Y-83195800D02*
X161540000Y-83329133D01*
X161540000Y-83329133D02*
X161540000Y-83429133D01*
X161540000Y-83429133D02*
X161506667Y-83562466D01*
X161506667Y-83562466D02*
X161473334Y-83629133D01*
X161473334Y-83629133D02*
X161406667Y-83695800D01*
X161406667Y-83695800D02*
X161306667Y-83729133D01*
X161306667Y-83729133D02*
X161140000Y-83729133D01*
X161806667Y-83529133D02*
X162140000Y-83529133D01*
X161740000Y-83729133D02*
X161973334Y-83029133D01*
X161973334Y-83029133D02*
X162206667Y-83729133D01*
X157916666Y-83695800D02*
X158016666Y-83729133D01*
X158016666Y-83729133D02*
X158183333Y-83729133D01*
X158183333Y-83729133D02*
X158249999Y-83695800D01*
X158249999Y-83695800D02*
X158283333Y-83662466D01*
X158283333Y-83662466D02*
X158316666Y-83595800D01*
X158316666Y-83595800D02*
X158316666Y-83529133D01*
X158316666Y-83529133D02*
X158283333Y-83462466D01*
X158283333Y-83462466D02*
X158249999Y-83429133D01*
X158249999Y-83429133D02*
X158183333Y-83395800D01*
X158183333Y-83395800D02*
X158049999Y-83362466D01*
X158049999Y-83362466D02*
X157983333Y-83329133D01*
X157983333Y-83329133D02*
X157949999Y-83295800D01*
X157949999Y-83295800D02*
X157916666Y-83229133D01*
X157916666Y-83229133D02*
X157916666Y-83162466D01*
X157916666Y-83162466D02*
X157949999Y-83095800D01*
X157949999Y-83095800D02*
X157983333Y-83062466D01*
X157983333Y-83062466D02*
X158049999Y-83029133D01*
X158049999Y-83029133D02*
X158216666Y-83029133D01*
X158216666Y-83029133D02*
X158316666Y-83062466D01*
X159016666Y-83662466D02*
X158983333Y-83695800D01*
X158983333Y-83695800D02*
X158883333Y-83729133D01*
X158883333Y-83729133D02*
X158816666Y-83729133D01*
X158816666Y-83729133D02*
X158716666Y-83695800D01*
X158716666Y-83695800D02*
X158650000Y-83629133D01*
X158650000Y-83629133D02*
X158616666Y-83562466D01*
X158616666Y-83562466D02*
X158583333Y-83429133D01*
X158583333Y-83429133D02*
X158583333Y-83329133D01*
X158583333Y-83329133D02*
X158616666Y-83195800D01*
X158616666Y-83195800D02*
X158650000Y-83129133D01*
X158650000Y-83129133D02*
X158716666Y-83062466D01*
X158716666Y-83062466D02*
X158816666Y-83029133D01*
X158816666Y-83029133D02*
X158883333Y-83029133D01*
X158883333Y-83029133D02*
X158983333Y-83062466D01*
X158983333Y-83062466D02*
X159016666Y-83095800D01*
X159650000Y-83729133D02*
X159316666Y-83729133D01*
X159316666Y-83729133D02*
X159316666Y-83029133D01*
X152736666Y-83029133D02*
X152970000Y-83729133D01*
X152970000Y-83729133D02*
X153203333Y-83029133D01*
X153836666Y-83662466D02*
X153803333Y-83695800D01*
X153803333Y-83695800D02*
X153703333Y-83729133D01*
X153703333Y-83729133D02*
X153636666Y-83729133D01*
X153636666Y-83729133D02*
X153536666Y-83695800D01*
X153536666Y-83695800D02*
X153470000Y-83629133D01*
X153470000Y-83629133D02*
X153436666Y-83562466D01*
X153436666Y-83562466D02*
X153403333Y-83429133D01*
X153403333Y-83429133D02*
X153403333Y-83329133D01*
X153403333Y-83329133D02*
X153436666Y-83195800D01*
X153436666Y-83195800D02*
X153470000Y-83129133D01*
X153470000Y-83129133D02*
X153536666Y-83062466D01*
X153536666Y-83062466D02*
X153636666Y-83029133D01*
X153636666Y-83029133D02*
X153703333Y-83029133D01*
X153703333Y-83029133D02*
X153803333Y-83062466D01*
X153803333Y-83062466D02*
X153836666Y-83095800D01*
X154536666Y-83662466D02*
X154503333Y-83695800D01*
X154503333Y-83695800D02*
X154403333Y-83729133D01*
X154403333Y-83729133D02*
X154336666Y-83729133D01*
X154336666Y-83729133D02*
X154236666Y-83695800D01*
X154236666Y-83695800D02*
X154170000Y-83629133D01*
X154170000Y-83629133D02*
X154136666Y-83562466D01*
X154136666Y-83562466D02*
X154103333Y-83429133D01*
X154103333Y-83429133D02*
X154103333Y-83329133D01*
X154103333Y-83329133D02*
X154136666Y-83195800D01*
X154136666Y-83195800D02*
X154170000Y-83129133D01*
X154170000Y-83129133D02*
X154236666Y-83062466D01*
X154236666Y-83062466D02*
X154336666Y-83029133D01*
X154336666Y-83029133D02*
X154403333Y-83029133D01*
X154403333Y-83029133D02*
X154503333Y-83062466D01*
X154503333Y-83062466D02*
X154536666Y-83095800D01*
X155676667Y-83062466D02*
X155610000Y-83029133D01*
X155610000Y-83029133D02*
X155510000Y-83029133D01*
X155510000Y-83029133D02*
X155410000Y-83062466D01*
X155410000Y-83062466D02*
X155343334Y-83129133D01*
X155343334Y-83129133D02*
X155310000Y-83195800D01*
X155310000Y-83195800D02*
X155276667Y-83329133D01*
X155276667Y-83329133D02*
X155276667Y-83429133D01*
X155276667Y-83429133D02*
X155310000Y-83562466D01*
X155310000Y-83562466D02*
X155343334Y-83629133D01*
X155343334Y-83629133D02*
X155410000Y-83695800D01*
X155410000Y-83695800D02*
X155510000Y-83729133D01*
X155510000Y-83729133D02*
X155576667Y-83729133D01*
X155576667Y-83729133D02*
X155676667Y-83695800D01*
X155676667Y-83695800D02*
X155710000Y-83662466D01*
X155710000Y-83662466D02*
X155710000Y-83429133D01*
X155710000Y-83429133D02*
X155576667Y-83429133D01*
X156010000Y-83729133D02*
X156010000Y-83029133D01*
X156010000Y-83029133D02*
X156410000Y-83729133D01*
X156410000Y-83729133D02*
X156410000Y-83029133D01*
X156743333Y-83729133D02*
X156743333Y-83029133D01*
X156743333Y-83029133D02*
X156910000Y-83029133D01*
X156910000Y-83029133D02*
X157010000Y-83062466D01*
X157010000Y-83062466D02*
X157076667Y-83129133D01*
X157076667Y-83129133D02*
X157110000Y-83195800D01*
X157110000Y-83195800D02*
X157143333Y-83329133D01*
X157143333Y-83329133D02*
X157143333Y-83429133D01*
X157143333Y-83429133D02*
X157110000Y-83562466D01*
X157110000Y-83562466D02*
X157076667Y-83629133D01*
X157076667Y-83629133D02*
X157010000Y-83695800D01*
X157010000Y-83695800D02*
X156910000Y-83729133D01*
X156910000Y-83729133D02*
X156743333Y-83729133D01*
%TO.C,UP*%
X142210000Y-111760000D02*
X147290000Y-111760000D01*
X142210000Y-116840000D02*
X142210000Y-111760000D01*
X147290000Y-111760000D02*
X147290000Y-116840000D01*
X147290000Y-116840000D02*
X142210000Y-116840000D01*
%TO.C,LEFT*%
X135890000Y-118110000D02*
X140970000Y-118110000D01*
X135890000Y-123190000D02*
X135890000Y-118110000D01*
X140970000Y-118110000D02*
X140970000Y-123190000D01*
X140970000Y-123190000D02*
X135890000Y-123190000D01*
%TO.C,DOWN*%
X142240000Y-124460000D02*
X147320000Y-124460000D01*
X142240000Y-129540000D02*
X142240000Y-124460000D01*
X147320000Y-124460000D02*
X147320000Y-129540000D01*
X147320000Y-129540000D02*
X142240000Y-129540000D01*
%TO.C,RIGHT*%
X148590000Y-118110000D02*
X153670000Y-118110000D01*
X148590000Y-123190000D02*
X148590000Y-118110000D01*
X153670000Y-118110000D02*
X153670000Y-123190000D01*
X153670000Y-123190000D02*
X148590000Y-123190000D01*
%TO.C,A*%
X170180000Y-113030000D02*
X175260000Y-113030000D01*
X170180000Y-118110000D02*
X170180000Y-113030000D01*
X175260000Y-113030000D02*
X175260000Y-118110000D01*
X175260000Y-118110000D02*
X170180000Y-118110000D01*
%TO.C,B*%
X162560000Y-123190000D02*
X167640000Y-123190000D01*
X162560000Y-128270000D02*
X162560000Y-123190000D01*
X167640000Y-123190000D02*
X167640000Y-128270000D01*
X167640000Y-128270000D02*
X162560000Y-128270000D01*
%TO.C,Display*%
X152130000Y-79740000D02*
X162830000Y-79740000D01*
X152130000Y-82820000D02*
X152130000Y-79740000D01*
X162830000Y-79740000D02*
X162830000Y-82820000D01*
X162830000Y-82820000D02*
X152130000Y-82820000D01*
%TD*%
M02*
