%TF.GenerationSoftware,KiCad,Pcbnew,7.0.9+dfsg-1*%
%TF.CreationDate,2023-12-14T21:32:31+07:00*%
%TF.ProjectId,wifi,77696669-2e6b-4696-9361-645f70636258,rev?*%
%TF.SameCoordinates,Original*%
%TF.FileFunction,Soldermask,Top*%
%TF.FilePolarity,Negative*%
%FSLAX46Y46*%
G04 Gerber Fmt 4.6, Leading zero omitted, Abs format (unit mm)*
G04 Created by KiCad (PCBNEW 7.0.9+dfsg-1) date 2023-12-14 21:32:31*
%MOMM*%
%LPD*%
G01*
G04 APERTURE LIST*
%ADD10C,1.800000*%
%ADD11R,2.000000X2.000000*%
%ADD12O,1.600000X2.000000*%
G04 APERTURE END LIST*
%TO.C,*%
G36*
X164657949Y-116198845D02*
G01*
X164758766Y-116298655D01*
X164852784Y-116390333D01*
X164936954Y-116471013D01*
X165008224Y-116537826D01*
X165063545Y-116587907D01*
X165099867Y-116618388D01*
X165113142Y-116626727D01*
X165134565Y-116615529D01*
X165178826Y-116579859D01*
X165244951Y-116520616D01*
X165331967Y-116438699D01*
X165438899Y-116335007D01*
X165564772Y-116210436D01*
X165568397Y-116206819D01*
X165993300Y-115782719D01*
X166081616Y-115813112D01*
X166137640Y-115834871D01*
X166200099Y-115862886D01*
X166260847Y-115892979D01*
X166311740Y-115920970D01*
X166344635Y-115942682D01*
X166352603Y-115952145D01*
X166340628Y-115965793D01*
X166306631Y-116000883D01*
X166253502Y-116054571D01*
X166184135Y-116124010D01*
X166101420Y-116206354D01*
X166008249Y-116298758D01*
X165907513Y-116398376D01*
X165802105Y-116502361D01*
X165694915Y-116607869D01*
X165588836Y-116712052D01*
X165486759Y-116812066D01*
X165391575Y-116905065D01*
X165306176Y-116988202D01*
X165233454Y-117058631D01*
X165176300Y-117113507D01*
X165137606Y-117149985D01*
X165120264Y-117165217D01*
X165119783Y-117165474D01*
X165105589Y-117154345D01*
X165069079Y-117121039D01*
X165012654Y-117067866D01*
X164938717Y-116997137D01*
X164849667Y-116911162D01*
X164747908Y-116812253D01*
X164635839Y-116702720D01*
X164515864Y-116584874D01*
X164493331Y-116562679D01*
X164359314Y-116429995D01*
X164238622Y-116309272D01*
X164132983Y-116202300D01*
X164044125Y-116110873D01*
X163973776Y-116036783D01*
X163923664Y-115981822D01*
X163895518Y-115947784D01*
X163889957Y-115936854D01*
X163916910Y-115913582D01*
X163970647Y-115882953D01*
X164044811Y-115848210D01*
X164133046Y-115812596D01*
X164135134Y-115811813D01*
X164233109Y-115775156D01*
X164657949Y-116198845D01*
G37*
G36*
X165112273Y-118974328D02*
G01*
X165149095Y-119008414D01*
X165205998Y-119062475D01*
X165280656Y-119134261D01*
X165370744Y-119221525D01*
X165473935Y-119322016D01*
X165587904Y-119433486D01*
X165710325Y-119553685D01*
X165769254Y-119611700D01*
X165929583Y-119770310D01*
X166068054Y-119908632D01*
X166184134Y-120026112D01*
X166277290Y-120122197D01*
X166346989Y-120196335D01*
X166392697Y-120247971D01*
X166413883Y-120276554D01*
X166415181Y-120281928D01*
X166394730Y-120298404D01*
X166351292Y-120325004D01*
X166293411Y-120357143D01*
X166229631Y-120390232D01*
X166168498Y-120419687D01*
X166120018Y-120440367D01*
X166108048Y-120441633D01*
X166091547Y-120436049D01*
X166068152Y-120421511D01*
X166035501Y-120395916D01*
X165991232Y-120357159D01*
X165932980Y-120303138D01*
X165858384Y-120231747D01*
X165765080Y-120140884D01*
X165650706Y-120028444D01*
X165589188Y-119967731D01*
X165096138Y-119480732D01*
X164764830Y-119808756D01*
X164666492Y-119906150D01*
X164567054Y-120004689D01*
X164472016Y-120098919D01*
X164386876Y-120183386D01*
X164317135Y-120252635D01*
X164280553Y-120289007D01*
X164220218Y-120347296D01*
X164167255Y-120395221D01*
X164127180Y-120428011D01*
X164105507Y-120440895D01*
X164104922Y-120440931D01*
X164077458Y-120433073D01*
X164029918Y-120412776D01*
X163970676Y-120384371D01*
X163908104Y-120352191D01*
X163850577Y-120320566D01*
X163806466Y-120293828D01*
X163784144Y-120276309D01*
X163783076Y-120274437D01*
X163794007Y-120259598D01*
X163827029Y-120223184D01*
X163879372Y-120167962D01*
X163948262Y-120096697D01*
X164030930Y-120012155D01*
X164124602Y-119917102D01*
X164226506Y-119814304D01*
X164333872Y-119706527D01*
X164443927Y-119596536D01*
X164553899Y-119487098D01*
X164661017Y-119380978D01*
X164762509Y-119280943D01*
X164855602Y-119189757D01*
X164937526Y-119110188D01*
X165005508Y-119045000D01*
X165056777Y-118996960D01*
X165088561Y-118968834D01*
X165097858Y-118962466D01*
X165112273Y-118974328D01*
G37*
G36*
X163034824Y-116799588D02*
G01*
X163058223Y-116821942D01*
X163103278Y-116865652D01*
X163166865Y-116927647D01*
X163245857Y-117004859D01*
X163337129Y-117094220D01*
X163437556Y-117192660D01*
X163544013Y-117297111D01*
X163653372Y-117404503D01*
X163762510Y-117511769D01*
X163868301Y-117615838D01*
X163967619Y-117713643D01*
X164057339Y-117802114D01*
X164134336Y-117878183D01*
X164195483Y-117938781D01*
X164226288Y-117969458D01*
X164338105Y-118081175D01*
X164140594Y-118270865D01*
X164082309Y-118327275D01*
X164003618Y-118404087D01*
X163908753Y-118497132D01*
X163801947Y-118602246D01*
X163687435Y-118715261D01*
X163569450Y-118832012D01*
X163454196Y-118946373D01*
X163346408Y-119053039D01*
X163245939Y-119151608D01*
X163155529Y-119239454D01*
X163077919Y-119313952D01*
X163015849Y-119372477D01*
X162972060Y-119412405D01*
X162949292Y-119431111D01*
X162946979Y-119432192D01*
X162928329Y-119418346D01*
X162901338Y-119383092D01*
X162885911Y-119358254D01*
X162782396Y-119151780D01*
X162692528Y-118914454D01*
X162616822Y-118647646D01*
X162613025Y-118631918D01*
X162597723Y-118544063D01*
X162586327Y-118430197D01*
X162578919Y-118298893D01*
X162577054Y-118220463D01*
X162972551Y-118220463D01*
X162988837Y-118394779D01*
X163023925Y-118565875D01*
X163065022Y-118694128D01*
X163081654Y-118723974D01*
X163103738Y-118725208D01*
X163114158Y-118720272D01*
X163135225Y-118703136D01*
X163176463Y-118664632D01*
X163234008Y-118608554D01*
X163303998Y-118538694D01*
X163382570Y-118458846D01*
X163427473Y-118412635D01*
X163507180Y-118329377D01*
X163577957Y-118253788D01*
X163636427Y-118189613D01*
X163679212Y-118140597D01*
X163702933Y-118110484D01*
X163706626Y-118103166D01*
X163694156Y-118086816D01*
X163660568Y-118051092D01*
X163610292Y-118000241D01*
X163547762Y-117938506D01*
X163477407Y-117870136D01*
X163403659Y-117799374D01*
X163330949Y-117730468D01*
X163263710Y-117667662D01*
X163206371Y-117615203D01*
X163163366Y-117577336D01*
X163139124Y-117558307D01*
X163136605Y-117557019D01*
X163120053Y-117567463D01*
X163102511Y-117600032D01*
X163102395Y-117600340D01*
X163086096Y-117641965D01*
X163061923Y-117701730D01*
X163038738Y-117757948D01*
X162997277Y-117894072D01*
X162975289Y-118050902D01*
X162972551Y-118220463D01*
X162577054Y-118220463D01*
X162575585Y-118158723D01*
X162576408Y-118018261D01*
X162581474Y-117886080D01*
X162590866Y-117770753D01*
X162603721Y-117685339D01*
X162671293Y-117418353D01*
X162759217Y-117170385D01*
X162865587Y-116946544D01*
X162904993Y-116877876D01*
X162981681Y-116750477D01*
X163034824Y-116799588D01*
G37*
G36*
X167223328Y-116750084D02*
G01*
X167252841Y-116789156D01*
X167289937Y-116846338D01*
X167330606Y-116915136D01*
X167370839Y-116989054D01*
X167406394Y-117061104D01*
X167469407Y-117212160D01*
X167529187Y-117383411D01*
X167580837Y-117560300D01*
X167599658Y-117635871D01*
X167610933Y-117690720D01*
X167619243Y-117749573D01*
X167624960Y-117818617D01*
X167628457Y-117904038D01*
X167630105Y-118012023D01*
X167630289Y-118144795D01*
X167629265Y-118285150D01*
X167626198Y-118399073D01*
X167619824Y-118494919D01*
X167608879Y-118581041D01*
X167592098Y-118665795D01*
X167568218Y-118757535D01*
X167535975Y-118864614D01*
X167508181Y-118951838D01*
X167484140Y-119019087D01*
X167452977Y-119095865D01*
X167417815Y-119175656D01*
X167381778Y-119251944D01*
X167347990Y-119318214D01*
X167319575Y-119367948D01*
X167299656Y-119394632D01*
X167294577Y-119397398D01*
X167272902Y-119385812D01*
X167251258Y-119365583D01*
X167243553Y-119354059D01*
X167237340Y-119335945D01*
X167232462Y-119307735D01*
X167228764Y-119265924D01*
X167226087Y-119207007D01*
X167224276Y-119127478D01*
X167223173Y-119023833D01*
X167222622Y-118892566D01*
X167222466Y-118730172D01*
X167222466Y-118721884D01*
X167222208Y-118552600D01*
X167221369Y-118415350D01*
X167219851Y-118307376D01*
X167217556Y-118225922D01*
X167214386Y-118168230D01*
X167210242Y-118131543D01*
X167205029Y-118113103D01*
X167200720Y-118109576D01*
X167178762Y-118109501D01*
X167126144Y-118109476D01*
X167046998Y-118109501D01*
X166945458Y-118109571D01*
X166825658Y-118109685D01*
X166691730Y-118109839D01*
X166571903Y-118109996D01*
X166408917Y-118110087D01*
X166277189Y-118109754D01*
X166173186Y-118108841D01*
X166093371Y-118107190D01*
X166034211Y-118104646D01*
X165992171Y-118101051D01*
X165963715Y-118096249D01*
X165945308Y-118090082D01*
X165933417Y-118082393D01*
X165932553Y-118081628D01*
X165907561Y-118050399D01*
X165900274Y-118029073D01*
X165912309Y-118012195D01*
X165946530Y-117973929D01*
X166000110Y-117917079D01*
X166070222Y-117844445D01*
X166116817Y-117796850D01*
X166624450Y-117796850D01*
X166925462Y-117796850D01*
X167226475Y-117796850D01*
X167214341Y-117699728D01*
X167202595Y-117633905D01*
X167183906Y-117559793D01*
X167160924Y-117484981D01*
X167136302Y-117417057D01*
X167112691Y-117363611D01*
X167092743Y-117332230D01*
X167084151Y-117327124D01*
X167069216Y-117338922D01*
X167034992Y-117371134D01*
X166986196Y-117418991D01*
X166927546Y-117477720D01*
X166863758Y-117542550D01*
X166799551Y-117608709D01*
X166739641Y-117671427D01*
X166688746Y-117725932D01*
X166675547Y-117740404D01*
X166624450Y-117796850D01*
X166116817Y-117796850D01*
X166154041Y-117758828D01*
X166248738Y-117663030D01*
X166351489Y-117559852D01*
X166459466Y-117452096D01*
X166569842Y-117342562D01*
X166679791Y-117234052D01*
X166786487Y-117129367D01*
X166887103Y-117031309D01*
X166978812Y-116942678D01*
X167058788Y-116866277D01*
X167124203Y-116804906D01*
X167172233Y-116761367D01*
X167200049Y-116738461D01*
X167205409Y-116735617D01*
X167223328Y-116750084D01*
G37*
G36*
X164122247Y-116565037D02*
G01*
X164241967Y-116684111D01*
X164365217Y-116806443D01*
X164487174Y-116927261D01*
X164603011Y-117041793D01*
X164707904Y-117145267D01*
X164797026Y-117232912D01*
X164855851Y-117290496D01*
X165107523Y-117536056D01*
X165210846Y-117435939D01*
X165243769Y-117403795D01*
X165298558Y-117350013D01*
X165372340Y-117277422D01*
X165462244Y-117188855D01*
X165565397Y-117087141D01*
X165678928Y-116975112D01*
X165799965Y-116855598D01*
X165925636Y-116731429D01*
X165939001Y-116718220D01*
X166061012Y-116597623D01*
X166175426Y-116484540D01*
X166279877Y-116381309D01*
X166371998Y-116290270D01*
X166449422Y-116213761D01*
X166509783Y-116154120D01*
X166550715Y-116113686D01*
X166569851Y-116094798D01*
X166570947Y-116093722D01*
X166589852Y-116098149D01*
X166628614Y-116122936D01*
X166682466Y-116163863D01*
X166746639Y-116216710D01*
X166816365Y-116277256D01*
X166886874Y-116341280D01*
X166953400Y-116404563D01*
X167011173Y-116462883D01*
X167055425Y-116512021D01*
X167078627Y-116543060D01*
X167081534Y-116551807D01*
X167079444Y-116563793D01*
X167070597Y-116580908D01*
X167053227Y-116605042D01*
X167025574Y-116638084D01*
X166985874Y-116681922D01*
X166932365Y-116738447D01*
X166863284Y-116809548D01*
X166776867Y-116897113D01*
X166671354Y-117003032D01*
X166544980Y-117129194D01*
X166395984Y-117277489D01*
X166360211Y-117313055D01*
X165620360Y-118048540D01*
X166398929Y-118817483D01*
X167177497Y-119586427D01*
X167134742Y-119646449D01*
X167047478Y-119757593D01*
X166941274Y-119874870D01*
X166826984Y-119986442D01*
X166804041Y-120007091D01*
X166683285Y-120114150D01*
X165967853Y-119403479D01*
X165835099Y-119271594D01*
X165708103Y-119145400D01*
X165589306Y-119027325D01*
X165481148Y-118919797D01*
X165386071Y-118825242D01*
X165306515Y-118746088D01*
X165244921Y-118684762D01*
X165203731Y-118643692D01*
X165187623Y-118627569D01*
X165148669Y-118590834D01*
X165118835Y-118567172D01*
X165108698Y-118562329D01*
X165093706Y-118574204D01*
X165056779Y-118608112D01*
X165000579Y-118661476D01*
X164927771Y-118731722D01*
X164841017Y-118816272D01*
X164742980Y-118912552D01*
X164636324Y-119017985D01*
X164588416Y-119065553D01*
X164391318Y-119261431D01*
X164217693Y-119433806D01*
X164066415Y-119583784D01*
X163936357Y-119712471D01*
X163826394Y-119820971D01*
X163735399Y-119910390D01*
X163662247Y-119981835D01*
X163605812Y-120036410D01*
X163564968Y-120075221D01*
X163538588Y-120099373D01*
X163525547Y-120109972D01*
X163523947Y-120110685D01*
X163509288Y-120098945D01*
X163474383Y-120066393D01*
X163423380Y-120017032D01*
X163360423Y-119954866D01*
X163302672Y-119897026D01*
X163230913Y-119823409D01*
X163166442Y-119754810D01*
X163113948Y-119696410D01*
X163078120Y-119653390D01*
X163065108Y-119634529D01*
X163039598Y-119585692D01*
X163818917Y-118817230D01*
X164598236Y-118048768D01*
X164087988Y-117542281D01*
X163966741Y-117421953D01*
X163843568Y-117299761D01*
X163722842Y-117180039D01*
X163608938Y-117067124D01*
X163506229Y-116965351D01*
X163419088Y-116879056D01*
X163351890Y-116812574D01*
X163347226Y-116807965D01*
X163274513Y-116735289D01*
X163211222Y-116670486D01*
X163161238Y-116617658D01*
X163128440Y-116580908D01*
X163116713Y-116564360D01*
X163128839Y-116546323D01*
X163161952Y-116509712D01*
X163211152Y-116459204D01*
X163271539Y-116399475D01*
X163338214Y-116335202D01*
X163406276Y-116271061D01*
X163470827Y-116211728D01*
X163526966Y-116161880D01*
X163569795Y-116126194D01*
X163592474Y-116110274D01*
X163640316Y-116085137D01*
X164122247Y-116565037D01*
G37*
G36*
X165219787Y-115126144D02*
G01*
X165396582Y-115134596D01*
X165557221Y-115150273D01*
X165659256Y-115166413D01*
X165981706Y-115245774D01*
X166290508Y-115356196D01*
X166583670Y-115496699D01*
X166859200Y-115666299D01*
X167115107Y-115864017D01*
X167166422Y-115909247D01*
X167304388Y-116046098D01*
X167443813Y-116207131D01*
X167577511Y-116382825D01*
X167698297Y-116563659D01*
X167798984Y-116740112D01*
X167810218Y-116762224D01*
X167942162Y-117063224D01*
X168039791Y-117369759D01*
X168103041Y-117681253D01*
X168131851Y-117997134D01*
X168126160Y-118316827D01*
X168085905Y-118639758D01*
X168037290Y-118866781D01*
X167956086Y-119128411D01*
X167844241Y-119391762D01*
X167704922Y-119650338D01*
X167541298Y-119897639D01*
X167521828Y-119924041D01*
X167444376Y-120019789D01*
X167349431Y-120124346D01*
X167242874Y-120232290D01*
X167130586Y-120338202D01*
X167018445Y-120436659D01*
X166912332Y-120522241D01*
X166818127Y-120589528D01*
X166765846Y-120621003D01*
X166728373Y-120642793D01*
X166676851Y-120674549D01*
X166648357Y-120692691D01*
X166522055Y-120765081D01*
X166370474Y-120837198D01*
X166202959Y-120905374D01*
X166028860Y-120965941D01*
X165857524Y-121015232D01*
X165778910Y-121033831D01*
X165526171Y-121081080D01*
X165292033Y-121107760D01*
X165067434Y-121114403D01*
X164843311Y-121101544D01*
X164769452Y-121093304D01*
X164471839Y-121044384D01*
X164194266Y-120972727D01*
X163929508Y-120875665D01*
X163670339Y-120750528D01*
X163409535Y-120594646D01*
X163396198Y-120585915D01*
X163197634Y-120439170D01*
X163002768Y-120264214D01*
X162817332Y-120067573D01*
X162647057Y-119855771D01*
X162497677Y-119635334D01*
X162386868Y-119437012D01*
X162270807Y-119170226D01*
X162180506Y-118887931D01*
X162117202Y-118596721D01*
X162082130Y-118303189D01*
X162080499Y-118218981D01*
X162424629Y-118218981D01*
X162438052Y-118422693D01*
X162468565Y-118620007D01*
X162517907Y-118822873D01*
X162571699Y-118995990D01*
X162676062Y-119253965D01*
X162811505Y-119501964D01*
X162974916Y-119736482D01*
X163163188Y-119954012D01*
X163373210Y-120151047D01*
X163601874Y-120324082D01*
X163846071Y-120469611D01*
X163904564Y-120499045D01*
X164065555Y-120569884D01*
X164242017Y-120634684D01*
X164424359Y-120690682D01*
X164602988Y-120735113D01*
X164768311Y-120765213D01*
X164865137Y-120775862D01*
X165103666Y-120785334D01*
X165326961Y-120776767D01*
X165374459Y-120772552D01*
X165647600Y-120730403D01*
X165922111Y-120658468D01*
X166187854Y-120559799D01*
X166370000Y-120472899D01*
X166450661Y-120429675D01*
X166524663Y-120388825D01*
X166584077Y-120354801D01*
X166620978Y-120332058D01*
X166622261Y-120331179D01*
X166703735Y-120271313D01*
X166795606Y-120198268D01*
X166889921Y-120118891D01*
X166978728Y-120040031D01*
X167054075Y-119968536D01*
X167102556Y-119917578D01*
X167151882Y-119859708D01*
X167205520Y-119794234D01*
X167258906Y-119727056D01*
X167307478Y-119664073D01*
X167346674Y-119611184D01*
X167371932Y-119574289D01*
X167379041Y-119560087D01*
X167388183Y-119541044D01*
X167410699Y-119506282D01*
X167415912Y-119498865D01*
X167470614Y-119410382D01*
X167529191Y-119295112D01*
X167588560Y-119160361D01*
X167645635Y-119013433D01*
X167697332Y-118861633D01*
X167727124Y-118761910D01*
X167758787Y-118617551D01*
X167781190Y-118448799D01*
X167794122Y-118264858D01*
X167797375Y-118074933D01*
X167790738Y-117888227D01*
X167774002Y-117713944D01*
X167753760Y-117592345D01*
X167679899Y-117316526D01*
X167574161Y-117045403D01*
X167439428Y-116785189D01*
X167278584Y-116542097D01*
X167247171Y-116500754D01*
X167169719Y-116407402D01*
X167078269Y-116307462D01*
X166979909Y-116207868D01*
X166881727Y-116115554D01*
X166790809Y-116037455D01*
X166717946Y-115982959D01*
X166676612Y-115954804D01*
X166624345Y-115918551D01*
X166604863Y-115904888D01*
X166417680Y-115789573D01*
X166204947Y-115687188D01*
X165974253Y-115600055D01*
X165733186Y-115530497D01*
X165489334Y-115480835D01*
X165250286Y-115453391D01*
X165113646Y-115448559D01*
X164991401Y-115453520D01*
X164847878Y-115467847D01*
X164694804Y-115489887D01*
X164543904Y-115517989D01*
X164426042Y-115545425D01*
X164145020Y-115636114D01*
X163874048Y-115758521D01*
X163616852Y-115910146D01*
X163377155Y-116088492D01*
X163158681Y-116291060D01*
X162965155Y-116515354D01*
X162949819Y-116535548D01*
X162784147Y-116784232D01*
X162648407Y-117048477D01*
X162543710Y-117325181D01*
X162471166Y-117611243D01*
X162431887Y-117903560D01*
X162426563Y-117996918D01*
X162424629Y-118218981D01*
X162080499Y-118218981D01*
X162076526Y-118013930D01*
X162088039Y-117843062D01*
X162138297Y-117517146D01*
X162220376Y-117204566D01*
X162333453Y-116906609D01*
X162476707Y-116624562D01*
X162649317Y-116359712D01*
X162850459Y-116113348D01*
X163079312Y-115886757D01*
X163335056Y-115681226D01*
X163565304Y-115528672D01*
X163632649Y-115488792D01*
X163689632Y-115456750D01*
X163729384Y-115436303D01*
X163744122Y-115430822D01*
X163767701Y-115423479D01*
X163811999Y-115404340D01*
X163860942Y-115380752D01*
X163951298Y-115340786D01*
X164066613Y-115298045D01*
X164197524Y-115255456D01*
X164334665Y-115215945D01*
X164468672Y-115182439D01*
X164551746Y-115164864D01*
X164692814Y-115144277D01*
X164857867Y-115130971D01*
X165036870Y-115124931D01*
X165219787Y-115126144D01*
G37*
%TD*%
D10*
%TO.C,UP*%
X143510000Y-114300000D03*
X146050000Y-114300000D03*
%TD*%
%TO.C,LEFT*%
X137190000Y-120650000D03*
X139730000Y-120650000D03*
%TD*%
%TO.C,DOWN*%
X143540000Y-127000000D03*
X146080000Y-127000000D03*
%TD*%
%TO.C,RIGHT*%
X149890000Y-120650000D03*
X152430000Y-120650000D03*
%TD*%
%TO.C,A*%
X171480000Y-115570000D03*
X174020000Y-115570000D03*
%TD*%
%TO.C,B*%
X163860000Y-125730000D03*
X166400000Y-125730000D03*
%TD*%
%TO.C,Display*%
X153670000Y-81280000D03*
X156210000Y-81280000D03*
X158750000Y-81280000D03*
X161290000Y-81280000D03*
%TD*%
D11*
%TO.C,REF\u002A\u002A*%
X166370000Y-108735000D03*
D12*
X163830000Y-108735000D03*
X161290000Y-108735000D03*
X158750000Y-108735000D03*
X156210000Y-108735000D03*
X153670000Y-108735000D03*
X151130000Y-108735000D03*
X148590000Y-108735000D03*
X148590000Y-85875000D03*
X151130000Y-85875000D03*
X153670000Y-85875000D03*
X156210000Y-85875000D03*
X158750000Y-85875000D03*
X161290000Y-85875000D03*
X163830000Y-85875000D03*
X166370000Y-85875000D03*
%TD*%
M02*
