%TF.GenerationSoftware,KiCad,Pcbnew,7.0.9+dfsg-1*%
%TF.CreationDate,2023-12-14T21:32:31+07:00*%
%TF.ProjectId,wifi,77696669-2e6b-4696-9361-645f70636258,rev?*%
%TF.SameCoordinates,Original*%
%TF.FileFunction,Legend,Bot*%
%TF.FilePolarity,Positive*%
%FSLAX46Y46*%
G04 Gerber Fmt 4.6, Leading zero omitted, Abs format (unit mm)*
G04 Created by KiCad (PCBNEW 7.0.9+dfsg-1) date 2023-12-14 21:32:31*
%MOMM*%
%LPD*%
G01*
G04 APERTURE LIST*
%ADD10C,0.150000*%
%ADD11C,0.100000*%
%ADD12C,0.120000*%
G04 APERTURE END LIST*
D10*
X139824819Y-85401666D02*
X139348628Y-85068333D01*
X139824819Y-84830238D02*
X138824819Y-84830238D01*
X138824819Y-84830238D02*
X138824819Y-85211190D01*
X138824819Y-85211190D02*
X138872438Y-85306428D01*
X138872438Y-85306428D02*
X138920057Y-85354047D01*
X138920057Y-85354047D02*
X139015295Y-85401666D01*
X139015295Y-85401666D02*
X139158152Y-85401666D01*
X139158152Y-85401666D02*
X139253390Y-85354047D01*
X139253390Y-85354047D02*
X139301009Y-85306428D01*
X139301009Y-85306428D02*
X139348628Y-85211190D01*
X139348628Y-85211190D02*
X139348628Y-84830238D01*
X139301009Y-85830238D02*
X139301009Y-86163571D01*
X139824819Y-86306428D02*
X139824819Y-85830238D01*
X139824819Y-85830238D02*
X138824819Y-85830238D01*
X138824819Y-85830238D02*
X138824819Y-86306428D01*
X139301009Y-87068333D02*
X139301009Y-86735000D01*
X139824819Y-86735000D02*
X138824819Y-86735000D01*
X138824819Y-86735000D02*
X138824819Y-87211190D01*
X138824819Y-87735000D02*
X139062914Y-87735000D01*
X138967676Y-87496905D02*
X139062914Y-87735000D01*
X139062914Y-87735000D02*
X138967676Y-87973095D01*
X139253390Y-87592143D02*
X139062914Y-87735000D01*
X139062914Y-87735000D02*
X139253390Y-87877857D01*
X138824819Y-88496905D02*
X139062914Y-88496905D01*
X138967676Y-88258810D02*
X139062914Y-88496905D01*
X139062914Y-88496905D02*
X138967676Y-88735000D01*
X139253390Y-88354048D02*
X139062914Y-88496905D01*
X139062914Y-88496905D02*
X139253390Y-88639762D01*
D11*
X176593333Y-132307419D02*
X177069523Y-132307419D01*
X177069523Y-132307419D02*
X177117142Y-132783609D01*
X177117142Y-132783609D02*
X177069523Y-132735990D01*
X177069523Y-132735990D02*
X176974285Y-132688371D01*
X176974285Y-132688371D02*
X176736190Y-132688371D01*
X176736190Y-132688371D02*
X176640952Y-132735990D01*
X176640952Y-132735990D02*
X176593333Y-132783609D01*
X176593333Y-132783609D02*
X176545714Y-132878847D01*
X176545714Y-132878847D02*
X176545714Y-133116942D01*
X176545714Y-133116942D02*
X176593333Y-133212180D01*
X176593333Y-133212180D02*
X176640952Y-133259800D01*
X176640952Y-133259800D02*
X176736190Y-133307419D01*
X176736190Y-133307419D02*
X176974285Y-133307419D01*
X176974285Y-133307419D02*
X177069523Y-133259800D01*
X177069523Y-133259800D02*
X177117142Y-133212180D01*
X176259999Y-132307419D02*
X175926666Y-133307419D01*
X175926666Y-133307419D02*
X175593333Y-132307419D01*
X174498094Y-133307419D02*
X174498094Y-132307419D01*
X174021904Y-133307419D02*
X174021904Y-132307419D01*
X174021904Y-132307419D02*
X173450476Y-133307419D01*
X173450476Y-133307419D02*
X173450476Y-132307419D01*
X176900000Y-135562371D02*
X177185714Y-135562371D01*
X177185714Y-135562371D02*
X177214286Y-135848085D01*
X177214286Y-135848085D02*
X177185714Y-135819514D01*
X177185714Y-135819514D02*
X177128572Y-135790942D01*
X177128572Y-135790942D02*
X176985714Y-135790942D01*
X176985714Y-135790942D02*
X176928572Y-135819514D01*
X176928572Y-135819514D02*
X176900000Y-135848085D01*
X176900000Y-135848085D02*
X176871429Y-135905228D01*
X176871429Y-135905228D02*
X176871429Y-136048085D01*
X176871429Y-136048085D02*
X176900000Y-136105228D01*
X176900000Y-136105228D02*
X176928572Y-136133800D01*
X176928572Y-136133800D02*
X176985714Y-136162371D01*
X176985714Y-136162371D02*
X177128572Y-136162371D01*
X177128572Y-136162371D02*
X177185714Y-136133800D01*
X177185714Y-136133800D02*
X177214286Y-136105228D01*
X176700000Y-135562371D02*
X176500000Y-136162371D01*
X176500000Y-136162371D02*
X176300000Y-135562371D01*
X175814285Y-135562371D02*
X176099999Y-135562371D01*
X176099999Y-135562371D02*
X176128571Y-135848085D01*
X176128571Y-135848085D02*
X176099999Y-135819514D01*
X176099999Y-135819514D02*
X176042857Y-135790942D01*
X176042857Y-135790942D02*
X175899999Y-135790942D01*
X175899999Y-135790942D02*
X175842857Y-135819514D01*
X175842857Y-135819514D02*
X175814285Y-135848085D01*
X175814285Y-135848085D02*
X175785714Y-135905228D01*
X175785714Y-135905228D02*
X175785714Y-136048085D01*
X175785714Y-136048085D02*
X175814285Y-136105228D01*
X175814285Y-136105228D02*
X175842857Y-136133800D01*
X175842857Y-136133800D02*
X175899999Y-136162371D01*
X175899999Y-136162371D02*
X176042857Y-136162371D01*
X176042857Y-136162371D02*
X176099999Y-136133800D01*
X176099999Y-136133800D02*
X176128571Y-136105228D01*
X174417142Y-135590942D02*
X174474285Y-135562371D01*
X174474285Y-135562371D02*
X174559999Y-135562371D01*
X174559999Y-135562371D02*
X174645713Y-135590942D01*
X174645713Y-135590942D02*
X174702856Y-135648085D01*
X174702856Y-135648085D02*
X174731427Y-135705228D01*
X174731427Y-135705228D02*
X174759999Y-135819514D01*
X174759999Y-135819514D02*
X174759999Y-135905228D01*
X174759999Y-135905228D02*
X174731427Y-136019514D01*
X174731427Y-136019514D02*
X174702856Y-136076657D01*
X174702856Y-136076657D02*
X174645713Y-136133800D01*
X174645713Y-136133800D02*
X174559999Y-136162371D01*
X174559999Y-136162371D02*
X174502856Y-136162371D01*
X174502856Y-136162371D02*
X174417142Y-136133800D01*
X174417142Y-136133800D02*
X174388570Y-136105228D01*
X174388570Y-136105228D02*
X174388570Y-135905228D01*
X174388570Y-135905228D02*
X174502856Y-135905228D01*
X174131427Y-136162371D02*
X174131427Y-135562371D01*
X174131427Y-135562371D02*
X173788570Y-136162371D01*
X173788570Y-136162371D02*
X173788570Y-135562371D01*
X173502856Y-136162371D02*
X173502856Y-135562371D01*
X173502856Y-135562371D02*
X173359999Y-135562371D01*
X173359999Y-135562371D02*
X173274285Y-135590942D01*
X173274285Y-135590942D02*
X173217142Y-135648085D01*
X173217142Y-135648085D02*
X173188571Y-135705228D01*
X173188571Y-135705228D02*
X173159999Y-135819514D01*
X173159999Y-135819514D02*
X173159999Y-135905228D01*
X173159999Y-135905228D02*
X173188571Y-136019514D01*
X173188571Y-136019514D02*
X173217142Y-136076657D01*
X173217142Y-136076657D02*
X173274285Y-136133800D01*
X173274285Y-136133800D02*
X173359999Y-136162371D01*
X173359999Y-136162371D02*
X173502856Y-136162371D01*
X139161904Y-77879800D02*
X139019047Y-77927419D01*
X139019047Y-77927419D02*
X138780952Y-77927419D01*
X138780952Y-77927419D02*
X138685714Y-77879800D01*
X138685714Y-77879800D02*
X138638095Y-77832180D01*
X138638095Y-77832180D02*
X138590476Y-77736942D01*
X138590476Y-77736942D02*
X138590476Y-77641704D01*
X138590476Y-77641704D02*
X138638095Y-77546466D01*
X138638095Y-77546466D02*
X138685714Y-77498847D01*
X138685714Y-77498847D02*
X138780952Y-77451228D01*
X138780952Y-77451228D02*
X138971428Y-77403609D01*
X138971428Y-77403609D02*
X139066666Y-77355990D01*
X139066666Y-77355990D02*
X139114285Y-77308371D01*
X139114285Y-77308371D02*
X139161904Y-77213133D01*
X139161904Y-77213133D02*
X139161904Y-77117895D01*
X139161904Y-77117895D02*
X139114285Y-77022657D01*
X139114285Y-77022657D02*
X139066666Y-76975038D01*
X139066666Y-76975038D02*
X138971428Y-76927419D01*
X138971428Y-76927419D02*
X138733333Y-76927419D01*
X138733333Y-76927419D02*
X138590476Y-76975038D01*
X137638095Y-77927419D02*
X138209523Y-77927419D01*
X137923809Y-77927419D02*
X137923809Y-76927419D01*
X137923809Y-76927419D02*
X138019047Y-77070276D01*
X138019047Y-77070276D02*
X138114285Y-77165514D01*
X138114285Y-77165514D02*
X138209523Y-77213133D01*
D12*
%TO.C,REF\u002A\u002A*%
X147150000Y-110235000D02*
X172580000Y-110235000D01*
X147150000Y-110235000D02*
X147150000Y-107695000D01*
X140250000Y-107695000D02*
X140250000Y-84375000D01*
X147150000Y-107695000D02*
X140250000Y-107695000D01*
X174710000Y-86495000D02*
X174710000Y-108105000D01*
X140250000Y-84375000D02*
X172580000Y-84375000D01*
X172580000Y-110235000D02*
G75*
G03*
X174710000Y-108105000I-2J2130002D01*
G01*
X174710000Y-86505000D02*
G75*
G03*
X172580000Y-84375000I-2130000J0D01*
G01*
D10*
X167005000Y-111275000D02*
X165735000Y-111275000D01*
X166370000Y-110640000D01*
X167005000Y-111275000D01*
G36*
X167005000Y-111275000D02*
G01*
X165735000Y-111275000D01*
X166370000Y-110640000D01*
X167005000Y-111275000D01*
G37*
D11*
%TO.C,5V IN*%
X179040000Y-136890000D02*
X179040000Y-131810000D01*
X179040000Y-131810000D02*
X171420000Y-131810000D01*
X171420000Y-136890000D02*
X179040000Y-136890000D01*
X171420000Y-131810000D02*
X171420000Y-136890000D01*
%TO.C,S1*%
X141992102Y-80010000D02*
G75*
G03*
X141992102Y-80010000I-3592102J0D01*
G01*
%TD*%
M02*
