M48
; DRILL file {KiCad 7.0.9+dfsg-1} date Kam 14 Des 2023 09:32:51 
; FORMAT={2:4/ absolute / inch / suppress leading zeros}
; #@! TF.CreationDate,2023-12-14T21:32:51+07:00
; #@! TF.GenerationSoftware,Kicad,Pcbnew,7.0.9+dfsg-1
; #@! TF.FileFunction,Plated,1,2,PTH
FMAT,2
INCH,TZ
; #@! TA.AperFunction,Plated,PTH,ComponentDrill
T1C0.0394
; #@! TA.AperFunction,Plated,PTH,ComponentDrill
T2C0.0400
%
G90
G05
T1
X58500Y-33809
X58500Y-42809
X59500Y-33809
X59500Y-42809
X60500Y-33809
X60500Y-42809
X61500Y-33809
X61500Y-42809
X62500Y-33809
X62500Y-42809
X63500Y-33809
X63500Y-42809
X64500Y-33809
X64500Y-42809
X65500Y-33809
X65500Y-42809
T2
X54012Y-47500
X55012Y-47500
X56500Y-45000
X56512Y-50000
X57500Y-45000
X57512Y-50000
X59012Y-47500
X60012Y-47500
X60500Y-32000
X61500Y-32000
X62500Y-32000
X63500Y-32000
X64512Y-49500
X65512Y-49500
X67512Y-45500
X68512Y-45500
T0
M30
