M48
; DRILL file {KiCad 7.0.9+dfsg-1} date Rab 29 Nov 2023 04:19:39 
; FORMAT={-:-/ absolute / inch / decimal}
; #@! TF.CreationDate,2023-11-29T16:19:39+07:00
; #@! TF.GenerationSoftware,Kicad,Pcbnew,7.0.9+dfsg-1
; #@! TF.FileFunction,Plated,1,2,PTH
FMAT,2
INCH
; #@! TA.AperFunction,Plated,PTH,ComponentDrill
T1C0.0300
; #@! TA.AperFunction,Plated,PTH,ComponentDrill
T2C0.0354
%
G90
G05
T1
X4.8Y-3.6
X4.8Y-3.7
X5.1Y-3.4
X5.1Y-3.5
X5.1Y-3.8
X5.1Y-3.9
X5.4Y-2.3
X5.4Y-3.6
X5.4Y-3.7
X5.5Y-2.3
X5.55Y-3.4
X5.55Y-3.5
X5.55Y-3.6
X5.55Y-3.7
X5.55Y-3.8
X5.55Y-3.9
X5.55Y-4.0
X5.55Y-4.1
X5.55Y-4.2
X5.55Y-4.3
X5.55Y-4.4
X5.55Y-4.5
X5.55Y-4.6
X5.55Y-4.7
X5.55Y-4.8
X5.6Y-2.3
X5.7Y-2.3
X6.0Y-3.8
X6.0Y-3.9
X6.3Y-3.4
X6.3Y-3.5
X6.65Y-3.4
X6.65Y-3.5
X6.65Y-3.6
X6.65Y-3.7
X6.65Y-3.8
X6.65Y-3.9
X6.65Y-4.0
X6.65Y-4.1
X6.65Y-4.2
X6.65Y-4.3
X6.65Y-4.4
X6.65Y-4.5
X6.65Y-4.6
X6.65Y-4.7
X6.65Y-4.8
T2
X6.6Y-2.2
X6.7Y-2.2
T0
M30
