%TF.GenerationSoftware,KiCad,Pcbnew,7.0.9+dfsg-1*%
%TF.CreationDate,2023-11-29T16:22:22+07:00*%
%TF.ProjectId,wifitools,77696669-746f-46f6-9c73-2e6b69636164,rev?*%
%TF.SameCoordinates,Original*%
%TF.FileFunction,Copper,L1,Top*%
%TF.FilePolarity,Positive*%
%FSLAX46Y46*%
G04 Gerber Fmt 4.6, Leading zero omitted, Abs format (unit mm)*
G04 Created by KiCad (PCBNEW 7.0.9+dfsg-1) date 2023-11-29 16:22:22*
%MOMM*%
%LPD*%
G01*
G04 APERTURE LIST*
%TA.AperFunction,ComponentPad*%
%ADD10C,1.524000*%
%TD*%
%TA.AperFunction,ComponentPad*%
%ADD11R,1.800000X1.800000*%
%TD*%
%TA.AperFunction,ComponentPad*%
%ADD12C,1.800000*%
%TD*%
%TA.AperFunction,Conductor*%
%ADD13C,0.250000*%
%TD*%
G04 APERTURE END LIST*
D10*
%TO.P,Display ,1*%
%TO.N,N/C*%
X137160000Y-58420000D03*
%TO.P,Display ,2*%
X139700000Y-58420000D03*
%TO.P,Display ,3*%
X142240000Y-58420000D03*
%TO.P,Display ,4*%
X144780000Y-58420000D03*
%TD*%
%TO.P,A,1*%
%TO.N,N/C*%
X160020000Y-86360000D03*
%TO.P,A,2*%
X160020000Y-88900000D03*
%TD*%
D11*
%TO.P,Senter,1*%
%TO.N,N/C*%
X167640000Y-55880000D03*
D12*
%TO.P,Senter,2*%
X170180000Y-55880000D03*
%TD*%
D10*
%TO.P,RIGHT,1*%
%TO.N,N/C*%
X137160000Y-91440000D03*
%TO.P,RIGHT,2*%
X137160000Y-93980000D03*
%TD*%
%TO.P,LEFT,1*%
%TO.N,N/C*%
X121920000Y-91440000D03*
%TO.P,LEFT,2*%
X121920000Y-93980000D03*
%TD*%
%TO.P,DOWN,1*%
%TO.N,N/C*%
X129540000Y-96520000D03*
%TO.P,DOWN,2*%
X129540000Y-99060000D03*
%TD*%
%TO.P,UP,1*%
%TO.N,N/C*%
X129540000Y-86360000D03*
%TO.P,UP,2*%
X129540000Y-88900000D03*
%TD*%
%TO.P,B,1*%
%TO.N,N/C*%
X152400000Y-96520000D03*
%TO.P,B,2*%
X152400000Y-99060000D03*
%TD*%
%TO.P,,1*%
%TO.N,N/C*%
X168910000Y-86360000D03*
%TO.P,,2*%
X168910000Y-88900000D03*
%TO.P,,3*%
X168910000Y-91440000D03*
%TO.P,,4*%
X168910000Y-93980000D03*
%TO.P,,5*%
X168910000Y-96520000D03*
%TO.P,,6*%
X168910000Y-99060000D03*
%TO.P,,7*%
X168910000Y-101600000D03*
%TO.P,,8*%
X168910000Y-104140000D03*
%TO.P,,9*%
X168910000Y-106680000D03*
%TO.P,,10*%
X168910000Y-109220000D03*
%TO.P,,11*%
X168910000Y-111760000D03*
%TO.P,,12*%
X168910000Y-114300000D03*
%TO.P,,13*%
X168910000Y-116840000D03*
%TO.P,,14*%
X168910000Y-119380000D03*
%TO.P,,15*%
X168910000Y-121920000D03*
%TO.P,,16*%
X140970000Y-121920000D03*
%TO.P,,17*%
X140970000Y-119380000D03*
%TO.P,,18*%
X140970000Y-116840000D03*
%TO.P,,19*%
X140970000Y-114300000D03*
%TO.P,,20*%
X140970000Y-111760000D03*
%TO.P,,21*%
X140970000Y-109220000D03*
%TO.P,,22*%
X140970000Y-106680000D03*
%TO.P,,23*%
X140970000Y-104140000D03*
%TO.P,,24*%
X140970000Y-101600000D03*
%TO.P,,25*%
X140970000Y-99060000D03*
%TO.P,,26*%
X140970000Y-96520000D03*
%TO.P,,27*%
X140970000Y-93980000D03*
%TO.P,,28*%
X140970000Y-91440000D03*
%TO.P,,29*%
X140970000Y-88900000D03*
%TO.P,,30*%
X140970000Y-86360000D03*
%TD*%
D13*
%TO.N,*%
X140970000Y-101600000D02*
X147320000Y-101600000D01*
X124460000Y-93980000D02*
X121920000Y-93980000D01*
X147320000Y-109220000D02*
X149860000Y-106680000D01*
X149860000Y-104140000D02*
X152400000Y-101600000D01*
X132080000Y-99060000D02*
X129540000Y-99060000D01*
X149860000Y-99060000D02*
X152400000Y-99060000D01*
X149860000Y-86360000D02*
X144780000Y-91440000D01*
X140970000Y-119380000D02*
X139700000Y-119380000D01*
X139700000Y-78740000D02*
X137160000Y-81280000D01*
X140970000Y-121920000D02*
X139700000Y-121920000D01*
X144780000Y-91440000D02*
X140970000Y-91440000D01*
X149860000Y-81280000D02*
X149860000Y-86360000D01*
X132080000Y-99060000D02*
X132080000Y-91440000D01*
X139700000Y-96520000D02*
X137160000Y-93980000D01*
X144780000Y-58420000D02*
X144780000Y-63500000D01*
X154940000Y-88900000D02*
X157480000Y-86360000D01*
X132080000Y-101600000D02*
X127000000Y-101600000D01*
X140970000Y-109220000D02*
X147320000Y-109220000D01*
X147320000Y-101600000D02*
X149860000Y-99060000D01*
X142240000Y-119380000D02*
X144780000Y-121920000D01*
X127000000Y-96520000D02*
X124460000Y-93980000D01*
X139700000Y-101600000D02*
X140970000Y-101600000D01*
X144780000Y-124460000D02*
X139700000Y-124460000D01*
X139700000Y-121920000D02*
X137160000Y-119380000D01*
X144780000Y-66040000D02*
X144780000Y-78740000D01*
X132080000Y-91440000D02*
X129540000Y-88900000D01*
X132080000Y-99060000D02*
X132080000Y-101600000D01*
X134620000Y-96520000D02*
X134620000Y-78740000D01*
X147320000Y-66040000D02*
X147320000Y-78740000D01*
X144780000Y-88900000D02*
X140970000Y-88900000D01*
X168910000Y-88900000D02*
X160020000Y-88900000D01*
X157480000Y-86360000D02*
X160020000Y-86360000D01*
X137160000Y-99060000D02*
X134620000Y-96520000D01*
X144780000Y-63500000D02*
X147320000Y-66040000D01*
X144780000Y-78740000D02*
X147320000Y-81280000D01*
X152400000Y-101600000D02*
X154940000Y-101600000D01*
X147320000Y-81280000D02*
X147320000Y-86360000D01*
X147320000Y-86360000D02*
X144780000Y-88900000D01*
X134620000Y-78740000D02*
X137160000Y-76200000D01*
X134620000Y-119380000D02*
X134620000Y-101600000D01*
X137160000Y-88900000D02*
X139700000Y-88900000D01*
X142240000Y-58420000D02*
X142240000Y-63500000D01*
X142240000Y-63500000D02*
X144780000Y-66040000D01*
X147320000Y-78740000D02*
X149860000Y-81280000D01*
X140970000Y-96520000D02*
X152400000Y-96520000D01*
X149860000Y-106680000D02*
X149860000Y-104140000D01*
X137160000Y-81280000D02*
X137160000Y-88900000D01*
X144780000Y-121920000D02*
X144780000Y-124460000D01*
X154940000Y-101600000D02*
X154940000Y-88900000D01*
X137160000Y-76200000D02*
X137160000Y-58420000D01*
X139700000Y-96520000D02*
X139700000Y-101600000D01*
X139700000Y-58420000D02*
X139700000Y-78740000D01*
X140970000Y-119380000D02*
X142240000Y-119380000D01*
X139700000Y-124460000D02*
X134620000Y-119380000D01*
X134620000Y-101600000D02*
X132080000Y-99060000D01*
X139700000Y-88900000D02*
X139700000Y-96520000D01*
X127000000Y-101600000D02*
X127000000Y-96520000D01*
X137160000Y-119380000D02*
X137160000Y-99060000D01*
%TD*%
M02*
