%TF.GenerationSoftware,KiCad,Pcbnew,7.0.9+dfsg-1*%
%TF.CreationDate,2023-11-29T16:22:22+07:00*%
%TF.ProjectId,wifitools,77696669-746f-46f6-9c73-2e6b69636164,rev?*%
%TF.SameCoordinates,Original*%
%TF.FileFunction,Legend,Top*%
%TF.FilePolarity,Positive*%
%FSLAX46Y46*%
G04 Gerber Fmt 4.6, Leading zero omitted, Abs format (unit mm)*
G04 Created by KiCad (PCBNEW 7.0.9+dfsg-1) date 2023-11-29 16:22:22*
%MOMM*%
%LPD*%
G01*
G04 APERTURE LIST*
%ADD10C,0.100000*%
%ADD11C,0.150000*%
%ADD12C,0.120000*%
G04 APERTURE END LIST*
D10*
X139406666Y-66497419D02*
X139406666Y-65497419D01*
X139406666Y-65497419D02*
X139644761Y-65497419D01*
X139644761Y-65497419D02*
X139787618Y-65545038D01*
X139787618Y-65545038D02*
X139882856Y-65640276D01*
X139882856Y-65640276D02*
X139930475Y-65735514D01*
X139930475Y-65735514D02*
X139978094Y-65925990D01*
X139978094Y-65925990D02*
X139978094Y-66068847D01*
X139978094Y-66068847D02*
X139930475Y-66259323D01*
X139930475Y-66259323D02*
X139882856Y-66354561D01*
X139882856Y-66354561D02*
X139787618Y-66449800D01*
X139787618Y-66449800D02*
X139644761Y-66497419D01*
X139644761Y-66497419D02*
X139406666Y-66497419D01*
X140406666Y-66497419D02*
X140406666Y-65830752D01*
X140406666Y-65497419D02*
X140359047Y-65545038D01*
X140359047Y-65545038D02*
X140406666Y-65592657D01*
X140406666Y-65592657D02*
X140454285Y-65545038D01*
X140454285Y-65545038D02*
X140406666Y-65497419D01*
X140406666Y-65497419D02*
X140406666Y-65592657D01*
X140835237Y-66449800D02*
X140930475Y-66497419D01*
X140930475Y-66497419D02*
X141120951Y-66497419D01*
X141120951Y-66497419D02*
X141216189Y-66449800D01*
X141216189Y-66449800D02*
X141263808Y-66354561D01*
X141263808Y-66354561D02*
X141263808Y-66306942D01*
X141263808Y-66306942D02*
X141216189Y-66211704D01*
X141216189Y-66211704D02*
X141120951Y-66164085D01*
X141120951Y-66164085D02*
X140978094Y-66164085D01*
X140978094Y-66164085D02*
X140882856Y-66116466D01*
X140882856Y-66116466D02*
X140835237Y-66021228D01*
X140835237Y-66021228D02*
X140835237Y-65973609D01*
X140835237Y-65973609D02*
X140882856Y-65878371D01*
X140882856Y-65878371D02*
X140978094Y-65830752D01*
X140978094Y-65830752D02*
X141120951Y-65830752D01*
X141120951Y-65830752D02*
X141216189Y-65878371D01*
X141692380Y-65830752D02*
X141692380Y-66830752D01*
X141692380Y-65878371D02*
X141787618Y-65830752D01*
X141787618Y-65830752D02*
X141978094Y-65830752D01*
X141978094Y-65830752D02*
X142073332Y-65878371D01*
X142073332Y-65878371D02*
X142120951Y-65925990D01*
X142120951Y-65925990D02*
X142168570Y-66021228D01*
X142168570Y-66021228D02*
X142168570Y-66306942D01*
X142168570Y-66306942D02*
X142120951Y-66402180D01*
X142120951Y-66402180D02*
X142073332Y-66449800D01*
X142073332Y-66449800D02*
X141978094Y-66497419D01*
X141978094Y-66497419D02*
X141787618Y-66497419D01*
X141787618Y-66497419D02*
X141692380Y-66449800D01*
X142739999Y-66497419D02*
X142644761Y-66449800D01*
X142644761Y-66449800D02*
X142597142Y-66354561D01*
X142597142Y-66354561D02*
X142597142Y-65497419D01*
X143549523Y-66497419D02*
X143549523Y-65973609D01*
X143549523Y-65973609D02*
X143501904Y-65878371D01*
X143501904Y-65878371D02*
X143406666Y-65830752D01*
X143406666Y-65830752D02*
X143216190Y-65830752D01*
X143216190Y-65830752D02*
X143120952Y-65878371D01*
X143549523Y-66449800D02*
X143454285Y-66497419D01*
X143454285Y-66497419D02*
X143216190Y-66497419D01*
X143216190Y-66497419D02*
X143120952Y-66449800D01*
X143120952Y-66449800D02*
X143073333Y-66354561D01*
X143073333Y-66354561D02*
X143073333Y-66259323D01*
X143073333Y-66259323D02*
X143120952Y-66164085D01*
X143120952Y-66164085D02*
X143216190Y-66116466D01*
X143216190Y-66116466D02*
X143454285Y-66116466D01*
X143454285Y-66116466D02*
X143549523Y-66068847D01*
X143930476Y-65830752D02*
X144168571Y-66497419D01*
X144406666Y-65830752D02*
X144168571Y-66497419D01*
X144168571Y-66497419D02*
X144073333Y-66735514D01*
X144073333Y-66735514D02*
X144025714Y-66783133D01*
X144025714Y-66783133D02*
X143930476Y-66830752D01*
X141644762Y-61162300D02*
X141716190Y-61186109D01*
X141716190Y-61186109D02*
X141835238Y-61186109D01*
X141835238Y-61186109D02*
X141882857Y-61162300D01*
X141882857Y-61162300D02*
X141906666Y-61138490D01*
X141906666Y-61138490D02*
X141930476Y-61090871D01*
X141930476Y-61090871D02*
X141930476Y-61043252D01*
X141930476Y-61043252D02*
X141906666Y-60995633D01*
X141906666Y-60995633D02*
X141882857Y-60971823D01*
X141882857Y-60971823D02*
X141835238Y-60948014D01*
X141835238Y-60948014D02*
X141740000Y-60924204D01*
X141740000Y-60924204D02*
X141692381Y-60900395D01*
X141692381Y-60900395D02*
X141668571Y-60876585D01*
X141668571Y-60876585D02*
X141644762Y-60828966D01*
X141644762Y-60828966D02*
X141644762Y-60781347D01*
X141644762Y-60781347D02*
X141668571Y-60733728D01*
X141668571Y-60733728D02*
X141692381Y-60709919D01*
X141692381Y-60709919D02*
X141740000Y-60686109D01*
X141740000Y-60686109D02*
X141859047Y-60686109D01*
X141859047Y-60686109D02*
X141930476Y-60709919D01*
X142430475Y-61138490D02*
X142406666Y-61162300D01*
X142406666Y-61162300D02*
X142335237Y-61186109D01*
X142335237Y-61186109D02*
X142287618Y-61186109D01*
X142287618Y-61186109D02*
X142216190Y-61162300D01*
X142216190Y-61162300D02*
X142168571Y-61114680D01*
X142168571Y-61114680D02*
X142144761Y-61067061D01*
X142144761Y-61067061D02*
X142120952Y-60971823D01*
X142120952Y-60971823D02*
X142120952Y-60900395D01*
X142120952Y-60900395D02*
X142144761Y-60805157D01*
X142144761Y-60805157D02*
X142168571Y-60757538D01*
X142168571Y-60757538D02*
X142216190Y-60709919D01*
X142216190Y-60709919D02*
X142287618Y-60686109D01*
X142287618Y-60686109D02*
X142335237Y-60686109D01*
X142335237Y-60686109D02*
X142406666Y-60709919D01*
X142406666Y-60709919D02*
X142430475Y-60733728D01*
X142882856Y-61186109D02*
X142644761Y-61186109D01*
X142644761Y-61186109D02*
X142644761Y-60686109D01*
X136493334Y-60686109D02*
X136660000Y-61186109D01*
X136660000Y-61186109D02*
X136826667Y-60686109D01*
X137279047Y-61138490D02*
X137255238Y-61162300D01*
X137255238Y-61162300D02*
X137183809Y-61186109D01*
X137183809Y-61186109D02*
X137136190Y-61186109D01*
X137136190Y-61186109D02*
X137064762Y-61162300D01*
X137064762Y-61162300D02*
X137017143Y-61114680D01*
X137017143Y-61114680D02*
X136993333Y-61067061D01*
X136993333Y-61067061D02*
X136969524Y-60971823D01*
X136969524Y-60971823D02*
X136969524Y-60900395D01*
X136969524Y-60900395D02*
X136993333Y-60805157D01*
X136993333Y-60805157D02*
X137017143Y-60757538D01*
X137017143Y-60757538D02*
X137064762Y-60709919D01*
X137064762Y-60709919D02*
X137136190Y-60686109D01*
X137136190Y-60686109D02*
X137183809Y-60686109D01*
X137183809Y-60686109D02*
X137255238Y-60709919D01*
X137255238Y-60709919D02*
X137279047Y-60733728D01*
X137779047Y-61138490D02*
X137755238Y-61162300D01*
X137755238Y-61162300D02*
X137683809Y-61186109D01*
X137683809Y-61186109D02*
X137636190Y-61186109D01*
X137636190Y-61186109D02*
X137564762Y-61162300D01*
X137564762Y-61162300D02*
X137517143Y-61114680D01*
X137517143Y-61114680D02*
X137493333Y-61067061D01*
X137493333Y-61067061D02*
X137469524Y-60971823D01*
X137469524Y-60971823D02*
X137469524Y-60900395D01*
X137469524Y-60900395D02*
X137493333Y-60805157D01*
X137493333Y-60805157D02*
X137517143Y-60757538D01*
X137517143Y-60757538D02*
X137564762Y-60709919D01*
X137564762Y-60709919D02*
X137636190Y-60686109D01*
X137636190Y-60686109D02*
X137683809Y-60686109D01*
X137683809Y-60686109D02*
X137755238Y-60709919D01*
X137755238Y-60709919D02*
X137779047Y-60733728D01*
X144172858Y-61162300D02*
X144244286Y-61186109D01*
X144244286Y-61186109D02*
X144363334Y-61186109D01*
X144363334Y-61186109D02*
X144410953Y-61162300D01*
X144410953Y-61162300D02*
X144434762Y-61138490D01*
X144434762Y-61138490D02*
X144458572Y-61090871D01*
X144458572Y-61090871D02*
X144458572Y-61043252D01*
X144458572Y-61043252D02*
X144434762Y-60995633D01*
X144434762Y-60995633D02*
X144410953Y-60971823D01*
X144410953Y-60971823D02*
X144363334Y-60948014D01*
X144363334Y-60948014D02*
X144268096Y-60924204D01*
X144268096Y-60924204D02*
X144220477Y-60900395D01*
X144220477Y-60900395D02*
X144196667Y-60876585D01*
X144196667Y-60876585D02*
X144172858Y-60828966D01*
X144172858Y-60828966D02*
X144172858Y-60781347D01*
X144172858Y-60781347D02*
X144196667Y-60733728D01*
X144196667Y-60733728D02*
X144220477Y-60709919D01*
X144220477Y-60709919D02*
X144268096Y-60686109D01*
X144268096Y-60686109D02*
X144387143Y-60686109D01*
X144387143Y-60686109D02*
X144458572Y-60709919D01*
X144672857Y-61186109D02*
X144672857Y-60686109D01*
X144672857Y-60686109D02*
X144791905Y-60686109D01*
X144791905Y-60686109D02*
X144863333Y-60709919D01*
X144863333Y-60709919D02*
X144910952Y-60757538D01*
X144910952Y-60757538D02*
X144934762Y-60805157D01*
X144934762Y-60805157D02*
X144958571Y-60900395D01*
X144958571Y-60900395D02*
X144958571Y-60971823D01*
X144958571Y-60971823D02*
X144934762Y-61067061D01*
X144934762Y-61067061D02*
X144910952Y-61114680D01*
X144910952Y-61114680D02*
X144863333Y-61162300D01*
X144863333Y-61162300D02*
X144791905Y-61186109D01*
X144791905Y-61186109D02*
X144672857Y-61186109D01*
X145149048Y-61043252D02*
X145387143Y-61043252D01*
X145101429Y-61186109D02*
X145268095Y-60686109D01*
X145268095Y-60686109D02*
X145434762Y-61186109D01*
X139319047Y-60709919D02*
X139271428Y-60686109D01*
X139271428Y-60686109D02*
X139199999Y-60686109D01*
X139199999Y-60686109D02*
X139128571Y-60709919D01*
X139128571Y-60709919D02*
X139080952Y-60757538D01*
X139080952Y-60757538D02*
X139057142Y-60805157D01*
X139057142Y-60805157D02*
X139033333Y-60900395D01*
X139033333Y-60900395D02*
X139033333Y-60971823D01*
X139033333Y-60971823D02*
X139057142Y-61067061D01*
X139057142Y-61067061D02*
X139080952Y-61114680D01*
X139080952Y-61114680D02*
X139128571Y-61162300D01*
X139128571Y-61162300D02*
X139199999Y-61186109D01*
X139199999Y-61186109D02*
X139247618Y-61186109D01*
X139247618Y-61186109D02*
X139319047Y-61162300D01*
X139319047Y-61162300D02*
X139342856Y-61138490D01*
X139342856Y-61138490D02*
X139342856Y-60971823D01*
X139342856Y-60971823D02*
X139247618Y-60971823D01*
X139557142Y-61186109D02*
X139557142Y-60686109D01*
X139557142Y-60686109D02*
X139842856Y-61186109D01*
X139842856Y-61186109D02*
X139842856Y-60686109D01*
X140080952Y-61186109D02*
X140080952Y-60686109D01*
X140080952Y-60686109D02*
X140200000Y-60686109D01*
X140200000Y-60686109D02*
X140271428Y-60709919D01*
X140271428Y-60709919D02*
X140319047Y-60757538D01*
X140319047Y-60757538D02*
X140342857Y-60805157D01*
X140342857Y-60805157D02*
X140366666Y-60900395D01*
X140366666Y-60900395D02*
X140366666Y-60971823D01*
X140366666Y-60971823D02*
X140342857Y-61067061D01*
X140342857Y-61067061D02*
X140319047Y-61114680D01*
X140319047Y-61114680D02*
X140271428Y-61162300D01*
X140271428Y-61162300D02*
X140200000Y-61186109D01*
X140200000Y-61186109D02*
X140080952Y-61186109D01*
X159781905Y-87801704D02*
X160258095Y-87801704D01*
X159686667Y-88087419D02*
X160020000Y-87087419D01*
X160020000Y-87087419D02*
X160353333Y-88087419D01*
D11*
X166719523Y-53327200D02*
X166862380Y-53374819D01*
X166862380Y-53374819D02*
X167100475Y-53374819D01*
X167100475Y-53374819D02*
X167195713Y-53327200D01*
X167195713Y-53327200D02*
X167243332Y-53279580D01*
X167243332Y-53279580D02*
X167290951Y-53184342D01*
X167290951Y-53184342D02*
X167290951Y-53089104D01*
X167290951Y-53089104D02*
X167243332Y-52993866D01*
X167243332Y-52993866D02*
X167195713Y-52946247D01*
X167195713Y-52946247D02*
X167100475Y-52898628D01*
X167100475Y-52898628D02*
X166909999Y-52851009D01*
X166909999Y-52851009D02*
X166814761Y-52803390D01*
X166814761Y-52803390D02*
X166767142Y-52755771D01*
X166767142Y-52755771D02*
X166719523Y-52660533D01*
X166719523Y-52660533D02*
X166719523Y-52565295D01*
X166719523Y-52565295D02*
X166767142Y-52470057D01*
X166767142Y-52470057D02*
X166814761Y-52422438D01*
X166814761Y-52422438D02*
X166909999Y-52374819D01*
X166909999Y-52374819D02*
X167148094Y-52374819D01*
X167148094Y-52374819D02*
X167290951Y-52422438D01*
X168100475Y-53327200D02*
X168005237Y-53374819D01*
X168005237Y-53374819D02*
X167814761Y-53374819D01*
X167814761Y-53374819D02*
X167719523Y-53327200D01*
X167719523Y-53327200D02*
X167671904Y-53231961D01*
X167671904Y-53231961D02*
X167671904Y-52851009D01*
X167671904Y-52851009D02*
X167719523Y-52755771D01*
X167719523Y-52755771D02*
X167814761Y-52708152D01*
X167814761Y-52708152D02*
X168005237Y-52708152D01*
X168005237Y-52708152D02*
X168100475Y-52755771D01*
X168100475Y-52755771D02*
X168148094Y-52851009D01*
X168148094Y-52851009D02*
X168148094Y-52946247D01*
X168148094Y-52946247D02*
X167671904Y-53041485D01*
X168576666Y-52708152D02*
X168576666Y-53374819D01*
X168576666Y-52803390D02*
X168624285Y-52755771D01*
X168624285Y-52755771D02*
X168719523Y-52708152D01*
X168719523Y-52708152D02*
X168862380Y-52708152D01*
X168862380Y-52708152D02*
X168957618Y-52755771D01*
X168957618Y-52755771D02*
X169005237Y-52851009D01*
X169005237Y-52851009D02*
X169005237Y-53374819D01*
X169338571Y-52708152D02*
X169719523Y-52708152D01*
X169481428Y-52374819D02*
X169481428Y-53231961D01*
X169481428Y-53231961D02*
X169529047Y-53327200D01*
X169529047Y-53327200D02*
X169624285Y-53374819D01*
X169624285Y-53374819D02*
X169719523Y-53374819D01*
X170433809Y-53327200D02*
X170338571Y-53374819D01*
X170338571Y-53374819D02*
X170148095Y-53374819D01*
X170148095Y-53374819D02*
X170052857Y-53327200D01*
X170052857Y-53327200D02*
X170005238Y-53231961D01*
X170005238Y-53231961D02*
X170005238Y-52851009D01*
X170005238Y-52851009D02*
X170052857Y-52755771D01*
X170052857Y-52755771D02*
X170148095Y-52708152D01*
X170148095Y-52708152D02*
X170338571Y-52708152D01*
X170338571Y-52708152D02*
X170433809Y-52755771D01*
X170433809Y-52755771D02*
X170481428Y-52851009D01*
X170481428Y-52851009D02*
X170481428Y-52946247D01*
X170481428Y-52946247D02*
X170005238Y-53041485D01*
X170910000Y-53374819D02*
X170910000Y-52708152D01*
X170910000Y-52898628D02*
X170957619Y-52803390D01*
X170957619Y-52803390D02*
X171005238Y-52755771D01*
X171005238Y-52755771D02*
X171100476Y-52708152D01*
X171100476Y-52708152D02*
X171195714Y-52708152D01*
D10*
X135826666Y-93167419D02*
X135493333Y-92691228D01*
X135255238Y-93167419D02*
X135255238Y-92167419D01*
X135255238Y-92167419D02*
X135636190Y-92167419D01*
X135636190Y-92167419D02*
X135731428Y-92215038D01*
X135731428Y-92215038D02*
X135779047Y-92262657D01*
X135779047Y-92262657D02*
X135826666Y-92357895D01*
X135826666Y-92357895D02*
X135826666Y-92500752D01*
X135826666Y-92500752D02*
X135779047Y-92595990D01*
X135779047Y-92595990D02*
X135731428Y-92643609D01*
X135731428Y-92643609D02*
X135636190Y-92691228D01*
X135636190Y-92691228D02*
X135255238Y-92691228D01*
X136255238Y-93167419D02*
X136255238Y-92167419D01*
X137255237Y-92215038D02*
X137159999Y-92167419D01*
X137159999Y-92167419D02*
X137017142Y-92167419D01*
X137017142Y-92167419D02*
X136874285Y-92215038D01*
X136874285Y-92215038D02*
X136779047Y-92310276D01*
X136779047Y-92310276D02*
X136731428Y-92405514D01*
X136731428Y-92405514D02*
X136683809Y-92595990D01*
X136683809Y-92595990D02*
X136683809Y-92738847D01*
X136683809Y-92738847D02*
X136731428Y-92929323D01*
X136731428Y-92929323D02*
X136779047Y-93024561D01*
X136779047Y-93024561D02*
X136874285Y-93119800D01*
X136874285Y-93119800D02*
X137017142Y-93167419D01*
X137017142Y-93167419D02*
X137112380Y-93167419D01*
X137112380Y-93167419D02*
X137255237Y-93119800D01*
X137255237Y-93119800D02*
X137302856Y-93072180D01*
X137302856Y-93072180D02*
X137302856Y-92738847D01*
X137302856Y-92738847D02*
X137112380Y-92738847D01*
X137731428Y-93167419D02*
X137731428Y-92167419D01*
X137731428Y-92643609D02*
X138302856Y-92643609D01*
X138302856Y-93167419D02*
X138302856Y-92167419D01*
X138636190Y-92167419D02*
X139207618Y-92167419D01*
X138921904Y-93167419D02*
X138921904Y-92167419D01*
X120967618Y-93167419D02*
X120491428Y-93167419D01*
X120491428Y-93167419D02*
X120491428Y-92167419D01*
X121300952Y-92643609D02*
X121634285Y-92643609D01*
X121777142Y-93167419D02*
X121300952Y-93167419D01*
X121300952Y-93167419D02*
X121300952Y-92167419D01*
X121300952Y-92167419D02*
X121777142Y-92167419D01*
X122539047Y-92643609D02*
X122205714Y-92643609D01*
X122205714Y-93167419D02*
X122205714Y-92167419D01*
X122205714Y-92167419D02*
X122681904Y-92167419D01*
X122920000Y-92167419D02*
X123491428Y-92167419D01*
X123205714Y-93167419D02*
X123205714Y-92167419D01*
X127659048Y-98247419D02*
X127659048Y-97247419D01*
X127659048Y-97247419D02*
X127897143Y-97247419D01*
X127897143Y-97247419D02*
X128040000Y-97295038D01*
X128040000Y-97295038D02*
X128135238Y-97390276D01*
X128135238Y-97390276D02*
X128182857Y-97485514D01*
X128182857Y-97485514D02*
X128230476Y-97675990D01*
X128230476Y-97675990D02*
X128230476Y-97818847D01*
X128230476Y-97818847D02*
X128182857Y-98009323D01*
X128182857Y-98009323D02*
X128135238Y-98104561D01*
X128135238Y-98104561D02*
X128040000Y-98199800D01*
X128040000Y-98199800D02*
X127897143Y-98247419D01*
X127897143Y-98247419D02*
X127659048Y-98247419D01*
X128849524Y-97247419D02*
X129040000Y-97247419D01*
X129040000Y-97247419D02*
X129135238Y-97295038D01*
X129135238Y-97295038D02*
X129230476Y-97390276D01*
X129230476Y-97390276D02*
X129278095Y-97580752D01*
X129278095Y-97580752D02*
X129278095Y-97914085D01*
X129278095Y-97914085D02*
X129230476Y-98104561D01*
X129230476Y-98104561D02*
X129135238Y-98199800D01*
X129135238Y-98199800D02*
X129040000Y-98247419D01*
X129040000Y-98247419D02*
X128849524Y-98247419D01*
X128849524Y-98247419D02*
X128754286Y-98199800D01*
X128754286Y-98199800D02*
X128659048Y-98104561D01*
X128659048Y-98104561D02*
X128611429Y-97914085D01*
X128611429Y-97914085D02*
X128611429Y-97580752D01*
X128611429Y-97580752D02*
X128659048Y-97390276D01*
X128659048Y-97390276D02*
X128754286Y-97295038D01*
X128754286Y-97295038D02*
X128849524Y-97247419D01*
X129611429Y-97247419D02*
X129849524Y-98247419D01*
X129849524Y-98247419D02*
X130040000Y-97533133D01*
X130040000Y-97533133D02*
X130230476Y-98247419D01*
X130230476Y-98247419D02*
X130468572Y-97247419D01*
X130849524Y-98247419D02*
X130849524Y-97247419D01*
X130849524Y-97247419D02*
X131420952Y-98247419D01*
X131420952Y-98247419D02*
X131420952Y-97247419D01*
X128754286Y-87087419D02*
X128754286Y-87896942D01*
X128754286Y-87896942D02*
X128801905Y-87992180D01*
X128801905Y-87992180D02*
X128849524Y-88039800D01*
X128849524Y-88039800D02*
X128944762Y-88087419D01*
X128944762Y-88087419D02*
X129135238Y-88087419D01*
X129135238Y-88087419D02*
X129230476Y-88039800D01*
X129230476Y-88039800D02*
X129278095Y-87992180D01*
X129278095Y-87992180D02*
X129325714Y-87896942D01*
X129325714Y-87896942D02*
X129325714Y-87087419D01*
X129801905Y-88087419D02*
X129801905Y-87087419D01*
X129801905Y-87087419D02*
X130182857Y-87087419D01*
X130182857Y-87087419D02*
X130278095Y-87135038D01*
X130278095Y-87135038D02*
X130325714Y-87182657D01*
X130325714Y-87182657D02*
X130373333Y-87277895D01*
X130373333Y-87277895D02*
X130373333Y-87420752D01*
X130373333Y-87420752D02*
X130325714Y-87515990D01*
X130325714Y-87515990D02*
X130278095Y-87563609D01*
X130278095Y-87563609D02*
X130182857Y-87611228D01*
X130182857Y-87611228D02*
X129801905Y-87611228D01*
X152471428Y-97723609D02*
X152614285Y-97771228D01*
X152614285Y-97771228D02*
X152661904Y-97818847D01*
X152661904Y-97818847D02*
X152709523Y-97914085D01*
X152709523Y-97914085D02*
X152709523Y-98056942D01*
X152709523Y-98056942D02*
X152661904Y-98152180D01*
X152661904Y-98152180D02*
X152614285Y-98199800D01*
X152614285Y-98199800D02*
X152519047Y-98247419D01*
X152519047Y-98247419D02*
X152138095Y-98247419D01*
X152138095Y-98247419D02*
X152138095Y-97247419D01*
X152138095Y-97247419D02*
X152471428Y-97247419D01*
X152471428Y-97247419D02*
X152566666Y-97295038D01*
X152566666Y-97295038D02*
X152614285Y-97342657D01*
X152614285Y-97342657D02*
X152661904Y-97437895D01*
X152661904Y-97437895D02*
X152661904Y-97533133D01*
X152661904Y-97533133D02*
X152614285Y-97628371D01*
X152614285Y-97628371D02*
X152566666Y-97675990D01*
X152566666Y-97675990D02*
X152471428Y-97723609D01*
X152471428Y-97723609D02*
X152138095Y-97723609D01*
%TO.C,Display *%
X124460000Y-55880000D02*
X157480000Y-55880000D01*
X157480000Y-55880000D02*
X157480000Y-76200000D01*
X157480000Y-76200000D02*
X124460000Y-76200000D01*
X124460000Y-76200000D02*
X124460000Y-55880000D01*
%TO.C,A*%
X157480000Y-83820000D02*
X162560000Y-83820000D01*
X162560000Y-83820000D02*
X162560000Y-91440000D01*
X162560000Y-91440000D02*
X157480000Y-91440000D01*
X157480000Y-91440000D02*
X157480000Y-83820000D01*
D12*
%TO.C,Senter*%
X167350000Y-54644000D02*
X167350000Y-54800000D01*
X167350000Y-56960000D02*
X167350000Y-57116000D01*
X170582334Y-54801392D02*
G75*
G03*
X167350001Y-54644485I-1672334J-1078608D01*
G01*
X169951129Y-54800164D02*
G75*
G03*
X167869040Y-54800001I-1041129J-1079836D01*
G01*
X167869040Y-56959999D02*
G75*
G03*
X169951129Y-56959836I1040960J1079999D01*
G01*
X167350001Y-57115515D02*
G75*
G03*
X170582334Y-56958608I1559999J1235515D01*
G01*
D10*
%TO.C,RIGHT*%
X134620000Y-88900000D02*
X139700000Y-88900000D01*
X139700000Y-88900000D02*
X139700000Y-96520000D01*
X139700000Y-96520000D02*
X134620000Y-96520000D01*
X134620000Y-96520000D02*
X134620000Y-88900000D01*
%TO.C,LEFT*%
X119380000Y-88900000D02*
X124460000Y-88900000D01*
X124460000Y-88900000D02*
X124460000Y-96520000D01*
X124460000Y-96520000D02*
X119380000Y-96520000D01*
X119380000Y-96520000D02*
X119380000Y-88900000D01*
%TO.C,DOWN*%
X127000000Y-93980000D02*
X132080000Y-93980000D01*
X132080000Y-93980000D02*
X132080000Y-101600000D01*
X132080000Y-101600000D02*
X127000000Y-101600000D01*
X127000000Y-101600000D02*
X127000000Y-93980000D01*
%TO.C,UP*%
X127000000Y-83820000D02*
X132080000Y-83820000D01*
X132080000Y-83820000D02*
X132080000Y-91440000D01*
X132080000Y-91440000D02*
X127000000Y-91440000D01*
X127000000Y-91440000D02*
X127000000Y-83820000D01*
%TO.C,B*%
X149860000Y-93980000D02*
X154940000Y-93980000D01*
X154940000Y-93980000D02*
X154940000Y-101600000D01*
X154940000Y-101600000D02*
X149860000Y-101600000D01*
X149860000Y-101600000D02*
X149860000Y-93980000D01*
%TD*%
M02*
