%TF.GenerationSoftware,KiCad,Pcbnew,7.0.9+dfsg-1*%
%TF.CreationDate,2023-11-29T16:22:22+07:00*%
%TF.ProjectId,wifitools,77696669-746f-46f6-9c73-2e6b69636164,rev?*%
%TF.SameCoordinates,Original*%
%TF.FileFunction,Copper,L2,Bot*%
%TF.FilePolarity,Positive*%
%FSLAX46Y46*%
G04 Gerber Fmt 4.6, Leading zero omitted, Abs format (unit mm)*
G04 Created by KiCad (PCBNEW 7.0.9+dfsg-1) date 2023-11-29 16:22:22*
%MOMM*%
%LPD*%
G01*
G04 APERTURE LIST*
G04 Aperture macros list*
%AMRoundRect*
0 Rectangle with rounded corners*
0 $1 Rounding radius*
0 $2 $3 $4 $5 $6 $7 $8 $9 X,Y pos of 4 corners*
0 Add a 4 corners polygon primitive as box body*
4,1,4,$2,$3,$4,$5,$6,$7,$8,$9,$2,$3,0*
0 Add four circle primitives for the rounded corners*
1,1,$1+$1,$2,$3*
1,1,$1+$1,$4,$5*
1,1,$1+$1,$6,$7*
1,1,$1+$1,$8,$9*
0 Add four rect primitives between the rounded corners*
20,1,$1+$1,$2,$3,$4,$5,0*
20,1,$1+$1,$4,$5,$6,$7,0*
20,1,$1+$1,$6,$7,$8,$9,0*
20,1,$1+$1,$8,$9,$2,$3,0*%
G04 Aperture macros list end*
%TA.AperFunction,ComponentPad*%
%ADD10C,1.524000*%
%TD*%
%TA.AperFunction,ComponentPad*%
%ADD11R,1.800000X1.800000*%
%TD*%
%TA.AperFunction,ComponentPad*%
%ADD12C,1.800000*%
%TD*%
%TA.AperFunction,SMDPad,CuDef*%
%ADD13RoundRect,0.381000X0.762000X0.381000X-0.762000X0.381000X-0.762000X-0.381000X0.762000X-0.381000X0*%
%TD*%
%TA.AperFunction,SMDPad,CuDef*%
%ADD14R,6.350000X7.340000*%
%TD*%
%TA.AperFunction,Conductor*%
%ADD15C,0.250000*%
%TD*%
G04 APERTURE END LIST*
D10*
%TO.P,Display ,1*%
%TO.N,N/C*%
X137160000Y-58420000D03*
%TO.P,Display ,2*%
X139700000Y-58420000D03*
%TO.P,Display ,3*%
X142240000Y-58420000D03*
%TO.P,Display ,4*%
X144780000Y-58420000D03*
%TD*%
%TO.P,A,1*%
%TO.N,N/C*%
X160020000Y-86360000D03*
%TO.P,A,2*%
X160020000Y-88900000D03*
%TD*%
D11*
%TO.P,Senter,1*%
%TO.N,N/C*%
X167640000Y-55880000D03*
D12*
%TO.P,Senter,2*%
X170180000Y-55880000D03*
%TD*%
D10*
%TO.P,RIGHT,1*%
%TO.N,N/C*%
X137160000Y-91440000D03*
%TO.P,RIGHT,2*%
X137160000Y-93980000D03*
%TD*%
%TO.P,LEFT,1*%
%TO.N,N/C*%
X121920000Y-91440000D03*
%TO.P,LEFT,2*%
X121920000Y-93980000D03*
%TD*%
%TO.P,DOWN,1*%
%TO.N,N/C*%
X129540000Y-96520000D03*
%TO.P,DOWN,2*%
X129540000Y-99060000D03*
%TD*%
%TO.P,UP,1*%
%TO.N,N/C*%
X129540000Y-86360000D03*
%TO.P,UP,2*%
X129540000Y-88900000D03*
%TD*%
%TO.P,B,1*%
%TO.N,N/C*%
X152400000Y-96520000D03*
%TO.P,B,2*%
X152400000Y-99060000D03*
%TD*%
%TO.P,,1*%
%TO.N,N/C*%
X168910000Y-86360000D03*
%TO.P,,2*%
X168910000Y-88900000D03*
%TO.P,,3*%
X168910000Y-91440000D03*
%TO.P,,4*%
X168910000Y-93980000D03*
%TO.P,,5*%
X168910000Y-96520000D03*
%TO.P,,6*%
X168910000Y-99060000D03*
%TO.P,,7*%
X168910000Y-101600000D03*
%TO.P,,8*%
X168910000Y-104140000D03*
%TO.P,,9*%
X168910000Y-106680000D03*
%TO.P,,10*%
X168910000Y-109220000D03*
%TO.P,,11*%
X168910000Y-111760000D03*
%TO.P,,12*%
X168910000Y-114300000D03*
%TO.P,,13*%
X168910000Y-116840000D03*
%TO.P,,14*%
X168910000Y-119380000D03*
%TO.P,,15*%
X168910000Y-121920000D03*
%TO.P,,16*%
X140970000Y-121920000D03*
%TO.P,,17*%
X140970000Y-119380000D03*
%TO.P,,18*%
X140970000Y-116840000D03*
%TO.P,,19*%
X140970000Y-114300000D03*
%TO.P,,20*%
X140970000Y-111760000D03*
%TO.P,,21*%
X140970000Y-109220000D03*
%TO.P,,22*%
X140970000Y-106680000D03*
%TO.P,,23*%
X140970000Y-104140000D03*
%TO.P,,24*%
X140970000Y-101600000D03*
%TO.P,,25*%
X140970000Y-99060000D03*
%TO.P,,26*%
X140970000Y-96520000D03*
%TO.P,,27*%
X140970000Y-93980000D03*
%TO.P,,28*%
X140970000Y-91440000D03*
%TO.P,,29*%
X140970000Y-88900000D03*
%TO.P,,30*%
X140970000Y-86360000D03*
%TD*%
D13*
%TO.P,R1,1*%
%TO.N,N/C*%
X137160000Y-137160000D03*
%TO.P,R1,2*%
X147320000Y-137160000D03*
%TD*%
D14*
%TO.P,REF\u002A\u002A,1*%
%TO.N,N/C*%
X124460000Y-59730000D03*
%TO.P,REF\u002A\u002A,2*%
X124460000Y-138390000D03*
%TD*%
D13*
%TO.P,R2,1*%
%TO.N,N/C*%
X137160000Y-142240000D03*
%TO.P,R2,2*%
X147320000Y-142240000D03*
%TD*%
D15*
%TO.N,*%
X147320000Y-137160000D02*
X152400000Y-137160000D01*
X152400000Y-137160000D02*
X147320000Y-142240000D01*
X137160000Y-142240000D02*
X139700000Y-142240000D01*
X139700000Y-142240000D02*
X142240000Y-139700000D01*
X142240000Y-139700000D02*
X142240000Y-134620000D01*
X142240000Y-134620000D02*
X147320000Y-129540000D01*
X147320000Y-129540000D02*
X147320000Y-124460000D01*
X147320000Y-124460000D02*
X149860000Y-121920000D01*
X149860000Y-121920000D02*
X162560000Y-121920000D01*
X162560000Y-121920000D02*
X165100000Y-119380000D01*
X165100000Y-119380000D02*
X168910000Y-119380000D01*
X124460000Y-138390000D02*
X128230000Y-138390000D01*
X128230000Y-138390000D02*
X129540000Y-139700000D01*
X129540000Y-139700000D02*
X134620000Y-139700000D01*
X134620000Y-139700000D02*
X137160000Y-142240000D01*
X124460000Y-129540000D02*
X132080000Y-137160000D01*
X132080000Y-137160000D02*
X137160000Y-137160000D01*
X157480000Y-55880000D02*
X152400000Y-60960000D01*
X154940000Y-127000000D02*
X167640000Y-127000000D01*
X137160000Y-88900000D02*
X137160000Y-91440000D01*
X144780000Y-114300000D02*
X147320000Y-111760000D01*
X170180000Y-124460000D02*
X170180000Y-86360000D01*
X116840000Y-121920000D02*
X124460000Y-129540000D01*
X137160000Y-96520000D02*
X134620000Y-96520000D01*
X147320000Y-93980000D02*
X154940000Y-86360000D01*
X140970000Y-119380000D02*
X144780000Y-119380000D01*
X144780000Y-93980000D02*
X144780000Y-109220000D01*
X139700000Y-93980000D02*
X137160000Y-96520000D01*
X127000000Y-83820000D02*
X124460000Y-86360000D01*
X167640000Y-55880000D02*
X157480000Y-55880000D01*
X152400000Y-76200000D02*
X152400000Y-68580000D01*
X147320000Y-111760000D02*
X147320000Y-93980000D01*
X140970000Y-104140000D02*
X139700000Y-104140000D01*
X149860000Y-129540000D02*
X144780000Y-134620000D01*
X124460000Y-60960000D02*
X116840000Y-68580000D01*
X124460000Y-88900000D02*
X121920000Y-91440000D01*
X134620000Y-86360000D02*
X132080000Y-83820000D01*
X140970000Y-106680000D02*
X139700000Y-106680000D01*
X154940000Y-78740000D02*
X152400000Y-76200000D01*
X149860000Y-66040000D02*
X149860000Y-76200000D01*
X144780000Y-109220000D02*
X142240000Y-111760000D01*
X134620000Y-96520000D02*
X134620000Y-86360000D01*
X140970000Y-93980000D02*
X139700000Y-93980000D01*
X165100000Y-124460000D02*
X167640000Y-121920000D01*
X139700000Y-86360000D02*
X137160000Y-88900000D01*
X152400000Y-129540000D02*
X154940000Y-127000000D01*
X154940000Y-86360000D02*
X154940000Y-78740000D01*
X142240000Y-144780000D02*
X119380000Y-144780000D01*
X152400000Y-137160000D02*
X152400000Y-129540000D01*
X170180000Y-86360000D02*
X168910000Y-86360000D01*
X119380000Y-134620000D02*
X124460000Y-129540000D01*
X149860000Y-127000000D02*
X149860000Y-129540000D01*
X139700000Y-106680000D02*
X129540000Y-96520000D01*
X152400000Y-86360000D02*
X144780000Y-93980000D01*
X142240000Y-111760000D02*
X140970000Y-111760000D01*
X132080000Y-83820000D02*
X127000000Y-83820000D01*
X167640000Y-121920000D02*
X168910000Y-121920000D01*
X124460000Y-59730000D02*
X124460000Y-60960000D01*
X165100000Y-60960000D02*
X170180000Y-55880000D01*
X140970000Y-86360000D02*
X139700000Y-86360000D01*
X157480000Y-60960000D02*
X165100000Y-60960000D01*
X124460000Y-59730000D02*
X124460000Y-63500000D01*
X144780000Y-142240000D02*
X142240000Y-144780000D01*
X149860000Y-76200000D02*
X152400000Y-78740000D01*
X149860000Y-127000000D02*
X152400000Y-124460000D01*
X144780000Y-134620000D02*
X144780000Y-142240000D01*
X132080000Y-96520000D02*
X132080000Y-88900000D01*
X144780000Y-119380000D02*
X144780000Y-114300000D01*
X154940000Y-63500000D02*
X157480000Y-60960000D01*
X152400000Y-63500000D02*
X149860000Y-66040000D01*
X124460000Y-86360000D02*
X124460000Y-88900000D01*
X139700000Y-104140000D02*
X132080000Y-96520000D01*
X152400000Y-68580000D02*
X154940000Y-66040000D01*
X116840000Y-68580000D02*
X116840000Y-121920000D01*
X154940000Y-66040000D02*
X154940000Y-63500000D01*
X119380000Y-144780000D02*
X119380000Y-134620000D01*
X152400000Y-124460000D02*
X165100000Y-124460000D01*
X152400000Y-60960000D02*
X152400000Y-63500000D01*
X152400000Y-78740000D02*
X152400000Y-86360000D01*
X132080000Y-88900000D02*
X129540000Y-86360000D01*
X167640000Y-127000000D02*
X170180000Y-124460000D01*
%TD*%
M02*
