%TF.GenerationSoftware,KiCad,Pcbnew,7.0.9+dfsg-1*%
%TF.CreationDate,2023-11-29T16:22:22+07:00*%
%TF.ProjectId,wifitools,77696669-746f-46f6-9c73-2e6b69636164,rev?*%
%TF.SameCoordinates,Original*%
%TF.FileFunction,Soldermask,Top*%
%TF.FilePolarity,Negative*%
%FSLAX46Y46*%
G04 Gerber Fmt 4.6, Leading zero omitted, Abs format (unit mm)*
G04 Created by KiCad (PCBNEW 7.0.9+dfsg-1) date 2023-11-29 16:22:22*
%MOMM*%
%LPD*%
G01*
G04 APERTURE LIST*
%ADD10C,1.524000*%
%ADD11R,1.800000X1.800000*%
%ADD12C,1.800000*%
%ADD13C,2.390000*%
%ADD14C,3.450000*%
G04 APERTURE END LIST*
D10*
%TO.C,Display *%
X137160000Y-58420000D03*
X139700000Y-58420000D03*
X142240000Y-58420000D03*
X144780000Y-58420000D03*
%TD*%
%TO.C,A*%
X160020000Y-86360000D03*
X160020000Y-88900000D03*
%TD*%
D11*
%TO.C,Senter*%
X167640000Y-55880000D03*
D12*
X170180000Y-55880000D03*
%TD*%
D10*
%TO.C,RIGHT*%
X137160000Y-91440000D03*
X137160000Y-93980000D03*
%TD*%
%TO.C,LEFT*%
X121920000Y-91440000D03*
X121920000Y-93980000D03*
%TD*%
%TO.C,DOWN*%
X129540000Y-96520000D03*
X129540000Y-99060000D03*
%TD*%
%TO.C,UP*%
X129540000Y-86360000D03*
X129540000Y-88900000D03*
%TD*%
%TO.C,B*%
X152400000Y-96520000D03*
X152400000Y-99060000D03*
%TD*%
%TO.C,*%
X168910000Y-86360000D03*
X168910000Y-88900000D03*
X168910000Y-91440000D03*
X168910000Y-93980000D03*
X168910000Y-96520000D03*
X168910000Y-99060000D03*
X168910000Y-101600000D03*
X168910000Y-104140000D03*
X168910000Y-106680000D03*
X168910000Y-109220000D03*
X168910000Y-111760000D03*
X168910000Y-114300000D03*
X168910000Y-116840000D03*
X168910000Y-119380000D03*
X168910000Y-121920000D03*
X140970000Y-121920000D03*
X140970000Y-119380000D03*
X140970000Y-116840000D03*
X140970000Y-114300000D03*
X140970000Y-111760000D03*
X140970000Y-109220000D03*
X140970000Y-106680000D03*
X140970000Y-104140000D03*
X140970000Y-101600000D03*
X140970000Y-99060000D03*
X140970000Y-96520000D03*
X140970000Y-93980000D03*
X140970000Y-91440000D03*
X140970000Y-88900000D03*
X140970000Y-86360000D03*
%TD*%
D13*
%TO.C,REF\u002A\u002A*%
X116460000Y-63130000D03*
D14*
X132460000Y-71460000D03*
X116460000Y-126660000D03*
%TD*%
M02*
